<?xml version="1.0" encoding="utf-8"?>
<!-- Generator: Adobe Illustrator 16.0.0, SVG Export Plug-In . SVG Version: 6.00 Build 0)  -->
<!DOCTYPE svg PUBLIC "-//W3C//DTD SVG 1.1//EN" "http://www.w3.org/Graphics/SVG/1.1/DTD/svg11.dtd">
<svg version="1.1" id="Layer_1" xmlns="http://www.w3.org/2000/svg" xmlns:xlink="http://www.w3.org/1999/xlink" x="0px" y="0px"
	 width="450px" height="450px" viewBox="0 0 450 450" enable-background="new 0 0 450 450" xml:space="preserve">
<g>
	<rect x="83.8" y="66.6" fill="#0093D0" width="282.4" height="282.4"/>
	<g>
		<defs>
			<rect id="SVGID_1_" x="83.8" y="66.6" width="282.4" height="282.4"/>
		</defs>
		<clipPath id="SVGID_2_">
			<use xlink:href="#SVGID_1_"  overflow="visible"/>
		</clipPath>
		<path clip-path="url(#SVGID_2_)" fill="#FFFFFF" d="M325.84,177.185V164.97h-46.508v45.039c-0.245-5.273-2.173-9.372-5.825-12.247
			c-2.507-1.986-6.298-3.578-11.359-4.769l-11.527-2.737c-4.464-1.024-7.369-1.927-8.73-2.705c-1.27-0.689-2.157-1.59-2.644-2.676
			h-0.019c-0.014-0.017-0.014-0.017-0.014-0.029c-0.336-0.737-0.536-1.623-0.536-2.569c0-2.002,0.69-3.717,2.127-5.078
			c0.031-0.014,0.045-0.061,0.077-0.075c0-0.016,0-0.016,0,0c0.336-0.291,0.672-0.55,1.054-0.811c2.154-1.422,5.044-2.14,8.685-2.14
			c3.256,0,5.978,0.55,8.181,1.652c3.285,1.665,5.042,4.479,5.305,8.423h13.192c-0.246-6.986-2.844-12.306-7.783-15.977
			c-4.951-3.669-10.929-5.504-17.947-5.504c-8.394,0-14.771,1.942-19.096,5.84c-2.644,2.386-4.493,5.152-5.518,8.304h-0.017
			c-0.213,0.686-0.399,1.39-0.535,2.094c-1.621,7.583-6.497,12.719-14.662,12.719c-13.058,0-17.979-11.1-17.979-22.122
			c0-11.59,4.921-22.688,17.979-22.688c7.215,0,13.513,4.981,14.448,11.572h14.08c-1.759-15.291-13.989-23.805-28.528-23.805
			c-19.524,0-31.357,13.898-32.414,32.214v-30.638h-14.554v41.124c0,9.816-3.332,14.341-13.715,14.341
			c-11.771,0-13.622-7.124-13.622-14.341v-41.124h-14.539v41.124c0,17.964,10.38,26.572,28.161,26.572
			c17.688,0,28.269-8.698,28.269-26.572v-5.166c1.056,17.841,12.89,31.738,32.414,31.738c8.027,0,14.875-2.583,19.904-7.198
			c0.323,0.256,0.627,0.504,0.982,0.73c2.611,1.819,7.428,3.501,14.416,5.046l7.109,1.561c4.156,0.888,7.201,1.911,9.11,3.073
			c1.927,1.19,2.89,2.874,2.89,5.043c0,3.72-1.957,6.257-5.871,7.615c-2.062,0.718-4.756,1.072-8.054,1.072
			c-5.534,0-9.435-1.348-11.698-4.053c-1.254-1.483-2.078-3.73-2.508-6.727H224.92c0,6.833,2.459,12.199,7.43,16.113
			c4.951,3.898,11.758,5.856,20.396,5.856c8.485,0,15.027-1.973,19.676-5.948c4.266-3.654,6.574-8.164,6.91-13.531v18.483h14.558
			v-27.32h27.7v-11.297h-27.7v-15.289H325.84z"/>
	</g>
	<text transform="matrix(1 0 0 1 118.292 280.8896)"><tspan x="0" y="0" fill="#FFFFFF" font-family="'HelveticaNeue-Thin'" font-size="72.5442" letter-spacing="1">Li</tspan><tspan x="51.216" y="0" fill="#FFFFFF" font-family="'HelveticaNeue-Thin'" font-size="72.5442" letter-spacing="1">b</tspan><tspan x="93.001" y="0" fill="#FFFFFF" font-family="'HelveticaNeue-Thin'" font-size="72.5442">r</tspan><tspan x="113.169" y="0" fill="#FFFFFF" font-family="'HelveticaNeue-Thin'" font-size="72.5442" letter-spacing="1">a</tspan><tspan x="150.892" y="0" fill="#FFFFFF" font-family="'HelveticaNeue-Thin'" font-size="72.5442" letter-spacing="2">r</tspan><tspan x="173.815" y="0" fill="#FFFFFF" font-family="'HelveticaNeue-Thin'" font-size="72.5442">y</tspan></text>
</g>
</svg>
