<?xml version="1.0" encoding="utf-8"?>

<!DOCTYPE svg PUBLIC "-//W3C//DTD SVG 1.1//EN" "http://www.w3.org/Graphics/SVG/1.1/DTD/svg11.dtd">
<svg version="1.1" id="Layer_1" xmlns="http://www.w3.org/2000/svg" xmlns:xlink="http://www.w3.org/1999/xlink" x="0px" y="0px"
	 viewBox="0 0 1130.638 1629.51" enable-background="new 0 0 1130.638 1629.51" xml:space="preserve">
<path enable-background="new    " d="M1102.387,525.971c-3.224-0.78-12.151,0.629-13.244,0.66c-1.882-0.601-1.008-2.781-1.836-4.113
	c-0.462-1.198-1.752-1.681-2.584-2.555c-2.172,0.038-4.391-0.307-6.508,0.248c-3.395-0.87-6.828,0.319-10.244,0.273
	c-3.139,0.147-5.882-1.462-8.853-2.105c-5.417-0.811-6.345,1.249-9.693-1.794c2.765-3.156,4.116-9.975-0.635-10.878
	c-4.324-0.559-4.39,1.656-8.084,3.122c-2.823,1.126-5.697,2.139-8.533,3.227c-1.164,0.475-2.462,0.134-3.63,0.529
	c-4.781,1.418-3.465-0.194-8.154-0.925c-151.46-23.601-125.981,1.375-215.685,7.43c-67.226,4.529-67.292,5.163-107.596,20.881
	c-20.12,6.358-107.33,23.901-125.213,22.659c-12.444-2.174-22.906-5.576-34.941-6.885c-30.932-3.359-36.701,3.871-49.928,3.759
	c-7.732,0.613-6.574,0.103-37.213,1.072c-9.33,0.295-13.66,0.995-13.66,0.995c-7.451-4.877-22.172-21.448-23.172-22.185
	c-0.547-0.403,0.644-0.784,0.791-0.8c0.452-0.049,1.153,0.482,1.598,0.613c9.699,2.869,22.061,0.993,26.918-9.091
	c0.002-0.004,7.067-14.743,7.067-14.744c0,0,15.141-4.256,23.91-6.848c6.603-1.951,2.157-0.776,8.916-6.468
	c6.796-5.723,14.211-11.621,14.211-11.621c9.973-12.199,9.729-12.592,11.654-13.987c3.211-2.327,5.202-1.606,6.611-6.893
	c2.362-11.81,11.636-32.099,13.716-41.845c0.714-3.342,0.459-7.265,1.376-10.437c0.944-3.399,1.984-3.813,1.651-13.126
	c-1.029,1.525-0.802,3.445-0.987,5.189c-0.008,2.021-0.786,3.908-1.134,5.874c0-0.916-0.126-1.827-0.437-2.681
	c-0.004-1.655,0.244-3.294,0.777-4.861c0.004-0.172,0.008-0.513,0.013-0.685c1.034-2.164,1-4.613,0.832-6.95
	c0.576,0.458,1.147,0.924,1.723,1.403c-0.745-3.926,1.415-8.608-0.727-10.681c-0.271-4.383,1.333-21.115-1.63-26.479
	c-2.652-6.717-4.925-21.077-9.155-24.214c-0.262-0.45-3.411-4.739-3.983-5.147c0.101-0.193,0.302-0.58,0.407-0.777
	c0.773,0.471,1.525,0.991,2.34,1.416c-0.492-1.412-1.29-2.76-2.861-3.08c-1.176-1.542-2.399-3.046-3.483-4.647
	c-0.786-0.525-1.693-0.807-2.533-1.185c-1.004-1.71-2.651-2.836-4.29-3.853c-0.412-0.664-0.756-1.361-1.206-1.987
	c-2.69-7.98-3.866-5.987-5.244-10.723c-0.601,0.521-1.151,1.101-1.744,1.622c-0.58-0.744-1.202-1.45-1.786-2.181
	c-0.773-2.432-2.74-4.223-4.528-5.95c-1.638-0.298-3.13-1.359-4.288-2.562c-1.44,0.332-14.222-15.411-23.297-24.236
	c-2.408-2.29-4.403-5.101-7.328-6.773c-1.232-1.739-6.068-6.741-9.811-5.525c-3.043-1.739-10.292-2.997-11.294-3.025
	c-1.155-0.032-2.281,0.786-3.353,0.786c-2.403,0-4.786-0.475-7.181-0.424c-0.84-0.559-1.723-1.063-2.702-1.298
	c0.021,0.761,0.03,1.521,0.004,2.286c-0.252-0.004-0.761-0.012-1.013-0.017c-1.836-1.285-0.239-3.991-1.706-5.513
	c-1.193-1.339-2.287-2.239-2.424-4.021c-4.257-1.501-4.349-1.547-5.87-1.118c-0.924-0.693-1.643-2.071-2.958-1.895
	c-0.849,0.601-1.303,1.634-1.924,2.454c-0.479-0.447-0.917-0.933-1.364-1.411c-1.246,1.132-3.142,0.967-4.822,1.076
	c-1.623,0.106-6.673,2.85-7.73,1.339c0,0-0.252-0.168-0.252-0.168c-0.067-0.866-0.021-1.996-1.05-2.298
	c-0.979-0.534-1.601,0.584-2.248,1.109c-0.78-0.269-1.984-0.168-2.701-0.599c-0.869-0.055-1.632-0.38-2.339-1.08
	c-25.345-4.96-55.498,12.187-60.851,12.258c0.807,0.126,1.92-0.059,2.21,0.95c-1.324,0.58-2.702,1.034-4.13,1.235l-0.172,0.109
	c-4.012,0.57-9.992,6.74-11.454,8.672c1.155-0.571,2.277-1.366,3.634-1.319c-0.485,1.001-7.783,8.077-8.344,8.538
	c-1.571,1.294-1.76,4.126-4.118,4.403c-0.122,1.664-1.786,2.714-1.655,4.399c-0.584-0.466-1.13-0.954-1.647-1.479
	c-0.408,0.924-0.706,1.891-0.769,2.908c-0.693,0.974-4.865,6.023-4.945,7.429c-0.496-0.021-0.983-0.038-1.462-0.051
	c-0.315,4.657-3.371,6.7-4.752,10.878c-0.84,0.492-1.311,1.324-1.584,2.235c-0.139,0.097-0.412,0.294-0.55,0.395
	c-0.235-0.5-0.466-1-0.693-1.492c-3.948,5.849-1.955,2.56-6.294,14.87c0.639,0.139,1.29,0.286,1.937,0.433
	c-0.786,0.907-2.996,10.903-3.093,11.903c-0.109,1.168-1.101,1.937-1.555,2.958c-0.118,0.962-0.017,1.941-0.088,2.912
	c-0.639,0.366-1.324,1.479-2.097,0.752c-0.412-1.487-0.58-3.025-0.845-4.538c-0.685,1.466-1.034,3.122-0.571,4.714
	c-0.37,0.29-0.735,0.584-1.097,0.878c-0.012,0.269-0.046,0.803-0.059,1.067c0.366-0.298,0.731-0.601,1.109-0.891
	c0.389,2.53,0.514,9.258,0.424,9.504c-1.609-0.034-1.21-1.895-2.374-2.487c-0.84,1.055-0.79,2.29-0.172,3.433
	c-0.218-0.025-0.651-0.076-0.866-0.101c0.704,2.037-0.229,2.09-0.291,3.476c-0.007,0.156,1.126,12.512,1.14,12.668
	c0.112-0.279,0.224-0.558,0.336-0.837c-0.143,0.826-0.057,1.743,0.403,2.474c-0.151,1.151-0.765,2.088-1.655,2.819
	c0.832,1.16,1.063,2.525,0.87,3.933c-0.42-0.072-0.836-0.139-1.248-0.197c-0.076-1.345-0.046-2.689,0.067-4.029
	c-1.832-0.118-2.021,2.294-1.412,3.563c-0.134,0.32-0.26,0.643-0.378,0.975c-0.487,0.029-0.971,0.067-1.445,0.114
	c-1.5,2.126-4.336,3.147-5.143,5.735c-1.832-0.084-3.681-0.126-5.496,0.181c0.5,1.483,1.471,2.714,2.504,3.866l-0.412,0.298
	c-0.542,0.76-1.189,1.429-2.113,1.693c-0.399,0.979-0.79,1.962-1.059,2.992c-3.795,1.919-2.304,3.045-4.16,4.433
	c1.299,0.661,2.004,0.843,2.824,2.983c0.891-0.37,1.349-1.475,2.445-1.475c-0.34,1.298-0.672,2.634-0.323,3.979
	c-1.118,0.416-1.861-0.748-2.651-1.298c-0.336,0.374-1.109,0.534-1.126,1.097c-21.414-31.45-29.918-37.819-34.445-53.924
	c-34.326-101.146-7.986-95.658-39.693-149.747c-24.237-41.431-24.902-64.707-33.071-85.873c0.395-2.302,0.966-5.151-0.975-6.954
	c-2.664-3.589-3.436,0.412,2.105-11.101c0.558-1,4.539-5.195,3.513-11.319c-0.796-10.121,4.919-14.485,1.21-20.554
	c-2.017-3.454-2.311-7.639-4.508-11.004c-4.84-7.918-10.409-7.408-13.332-8.92c-2.517-0.756-4.702-2.382-7.319-2.807
	c-1.525-3.403-4.139-6.185-5.428-9.706c-6.524-12.58-3.773-8.771-7.878-11.395c-2.626-1.735-3.466-5.181-6.299-6.698
	c-5.636-4.094-11.868,6.156-4.781,17.34c4.016,6.029,2.692,10.953,2.622,18.046c0.072,0.95-0.672,1.647-0.945,2.5
	c-3.668,14.431,2.574,36.714,2.643,35.714c-0.097,1.395,0.269,2.937-0.416,4.227c-0.68,1-12.335,11.568-6.769,23.059
	c0.672,1.979,2.206,3.513,2.891,5.479c0.073,1.001,0.111,48.335,3.227,61.075c3.204,15.788,3.892,46.97,10.63,67.533
	c1.233,4.056,1.303,15.222,4.076,25.386c16.614,53.02,6.796,47.866,13.311,72.894c1.568,7.452,18.32,94.71,36.689,121.39
	c0.433,1.416,1.189,2.739,1.37,4.231c-31.738,13.922-58.232,36.654-56.689,41.508c1.122-1.55,2.483-2.903,3.685-4.386
	c0.441,0.412,0.886,0.836,1.332,1.265c-0.765,1.248-1.496,2.529-2.42,3.672c0.301,0.481-2.736,5.813-2.98,6.372
	c-4.168,9.552-3.166,12.225-5.174,18.298c-1.866,5.647-4.059,3.299-8.519,18.552c0.147,0.084,0.437,0.248,0.58,0.328
	c2.004-10.856,14.137-24.043,18.567-25.916c0.269-0.697,0.538-1.395,0.815-2.08c0.058-0.059,7.313-7.718,7.555-8.038
	c0.739-0.404,1.382-1.298,2.323-1.038c0.323,2.076-1.454,3.584-2.223,5.349c-2.725,2.651-4.151,8.036-4.958,9.13
	c1.579,2.289-0.51,2.891-2.731,5.458c-0.859,1-5.566,5.53-5.815,7.731c-1.391,1.909-3.415,3.409-5.018,5.148
	c-10.528,11.42-7.797,12.134-9.418,18.192c-0.64,2.395-3.275,5.935-3.115,11.429c0.256-1.029,0.609-2.029,1.08-2.975
	c1.082-0.88,5.019-6.17,5.391-7.857c0.097-0.122,0.286-0.357,0.378-0.475c1.5,0,2.202-1.777,3.802-1.634
	c0.176-0.651,0.34-1.307,0.504-1.945c1.105-1.126,1.424-2.828,2.307-4.13c0.782-0.464,1.422-1.495,1.887-2.29
	c2.273-0.593,6.315-5.588,6.815-6.588c0.937-0.773,1.975-1.441,2.803-2.336c2.328-0.756,3.5-4.075,6.181-3.613
	c-0.571,1.038-1.13,2.088-1.504,3.223c-0.303,0.294-0.609,0.592-0.903,0.904c-0.071,0.176-0.214,0.529-0.286,0.706
	c-0.466,0.324-0.928,0.655-1.386,0.992c-0.307,1.403-1.63,2.202-2.168,3.496c-5.22,8.508-2.695,2.411-3.529,7.374
	c-0.029,0.735-0.79,1.101-1.206,1.622c-1.412,0.424-2.857,1.084-3.613,2.428c1.37,0.597,3.176-0.483,4.239,0.76
	c-0.924,1.235-2.441,1.614-3.777,2.202c-0.256,0.844-0.24,1.735-0.319,2.618c9.023-4.042,11.041-7.242,13.311-8.559
	c2.017-1.109,3.336-3.538,5.836-3.588c1.059-1.042,2.235-1.988,3.647-2.492c1.836-0.655,3.038-2.29,4.689-3.261
	c0.034-0.622,0.16-1.235,0.101-1.836l-0.227-0.172c0.21-0.16,0.433-0.294,0.672-0.404c2.101,0.231,3.105-1.991,4.903-2.605
	c-0.147,0.563-0.294,1.147-0.446,1.722c-4.335,2.776-30.618,43.458-30.079,47.029c-6.637,9.683-1.057,10.787-7.235,14.659
	c-0.412,1.988-1.626,3.63-2.441,5.454c-1.639,1.798-3.349,3.613-4.597,5.727c-1.462,1.16-2.235,2.996-3.836,4.008
	c-1.046,0.571-1.294,1.824-1.933,2.748c0.546-0.168,1.059-0.42,1.366-0.924c0.794-0.038,1.529,0.223,2.063,0.832
	c1.891-2.029,3.164-4.592,4.378-7.042c0.437-0.483,0.861-0.974,1.252-1.492c0.605,0.08,1.214,0.164,1.828,0.26
	c1.288-2.321,1.169-2.487,2.971-4.277c2.865-2.693,4.945-6.072,7.63-8.933c0.769,0.189,1.538,0.391,2.311,0.601
	c0.055,0.487,0.114,0.983,0.176,1.483l0.382-0.076c0.597,0.811,1.168,1.656,1.37,2.672c0.357-0.16,0.719-0.315,1.084-0.458
	c0.13,0.437,0.282,0.878,0.458,1.324c-0.349,2.441-0.164,4.92-0.168,7.382c-0.765,2.404-1.643,4.777-2.395,7.189
	c-2.195,2.606,0.301,0.938-4.323,5.424c-1.395,1.42-3.664,1.819-4.441,3.836c-0.651,0.626-1.391,1.189-1.895,1.954
	c-0.193,0.639-0.113,1.324-0.155,2c-1.861,1.13-3.563,2.672-4.693,4.538c2.134-1.626,4.966-2.185,6.681-4.365
	c1.429-1.223,2.924-2.353,4.412-3.496c0.461,5.103-2.265,5.439,0.441,10.458c0.05-4.214,0.962-8.382,2.189-12.399
	c0.441-1.832,2.492-2.504,3.143-4.202c0.267-0.222,0.964-0.64,1.26-0.823c0.239,0.088,0.723,0.265,0.962,0.353
	c0.849,1.622,1.382,3.437,2.605,4.84c-0.834,4.949-3.209,4.567-3.584,7.567c1.42-1.92,2.592-4.101,4.584-5.513
	c1.035,1.282,0.287,0.428,2.004,2.353c-1.664,0.731-3.294,2.042-3.437,3.992c-0.101,0.025-0.298,0.072-0.395,0.097
	c0.319,1.861-1.13,3.231-1.525,4.941c0.474-0.429,5.415-5.823,5.92-6.824c0.802-0.77,37.497-46.467,38.201-47.327
	c2.841,1.977-0.616,4.9-9.924,22.424c-3.795,5.988-0.825,24.818-0.592,25.819c0,0,0.467,35.049,0.701,37.555
	c1.325,14.199,1.255,6.601,5.98,30.516c1.251,5.854-0.842,8.898,4.26,9.24c2.098,3.811,1.76,18.376,1.731,23.932
	c-1.269,0.353-2.534,0.752-3.845,0.903c-5.786-1.146-12.049-4.455-19.298,0.437c-0.735,0.996-0.798,2.315-1.067,3.5
	c-0.928,7.621-5.532,12.336-1.122,15.807c1.168,0.861,2.651,1.214,3.794,2.122c0.886,1.748,1.66,3.563,2.55,5.319
	c-6.024,2.297-16.205,14.45-17.697,15.517c-15.187,10.665-9.767,23.713-24.815,28.13c-6.581,1.242-7.227-1.985-17.126,1.95
	c-2.861,1.626-4.769,4.424-7.349,6.416c-1.513,1.261-3.391,2.286-4.13,4.227c-1.956,4.591-4.412,11.218-4.412,11.218
	c-1.459,2.616-22.616,5.253-26.037,11.753c-1.229,2.285-8.365,14.037-9.37,19.155c-7.58,4.968-15.968,20.032-5.538,38.37
	c0.542,0.878-0.26,1.76-0.513,2.605c-0.546,2.404,0.275,23.601,6.374,36.945c1.277,2.92,1.546,6.235,3.193,8.996
	c14.05-3.463,12.85-3.824,15.773-0.681c11.914,32.258,10.728,34.332,13.576,37.252c1.379,1.569,8.697,10.041,9.424,11.735
	c0.433-0.009,0.874,0,1.319,0.021c0.794-0.916,1.302-2.181,2.508-2.634c1.475-0.613,2.634-1.937,4.294-2.063
	c0.265,2.386,1.067,4.676,1.857,6.937c-0.874,0.962-1.933,1.807-2.475,3.03c0.411,2.307,0.242,4.584,5.836,9.756
	c3.325,2.938-0.653,10.872,2.592,9.298c1.596-1.164,2.223-3.374,3.731-4.475c8.773,11.684,1.96,8.935,11.933,13.08
	c1.324,1.076,2.424,2.374,3.416,3.765c1.674,2.37,10.879,0.558,13.353-0.895c1.176,1.332,2.903,2.689,4.748,1.706
	c2.128-0.076,11.7-5.078,12.702-5.689c5.393,5.185,6.298,10.411,10.823,12.403c2.109-1.349,4.185-2.958,6.66-3.538
	c0.332,0.987,0.668,1.983,1.029,2.979c1.798,0.534,3.748,1.328,4.727,3.034c-1.685-0.017-4.072,0.559-4.336,2.504
	c1.695,4.093,3.56,3.745,7.185,7.471c7.68-0.051,7.496,4.199,10.353,5.622c3.26-2.328,6.949-4.092,10.928-4.702
	c8.409-0.833,5.785-0.045,10.176-4.08c1.105,0.651,1.597,1.92,2.588,2.719c8.601,6.839,14.548,2.494,17.891,1.399
	c1.307,0.572,2.769,0.21,4.139,0.534c14.743,2.863,11.663,3.692,10.706,13.353c-3.226,32.547-11.743,51.9-5.333,125.574
	c3.328,38.25,7.311,42.812,15.686,84.941c8.181,36.33,21.404,49.212,23.727,58.785c7.576,25.331,8.669,23.789,18.689,34.113
	c5.649,4.97,12.789,10.559,19.702,13.458c1.01,0.383,16.835,6.154,18.609,6.525c14.845,4.98,43.496,20.846,45.353,21.584
	c18.922,10.949,57.938,26.163,107.1,48.533c14.537,4.569,59.146,29.967,64.142,32.298c14.194,8.014,18.208,13.943,26.949,17.235
	c7.336,3.119,13.539,12.138,22.865,16.597c16.689,8.588,2.615-3.181,21.281,11.886c5.51,5.695,35.453,24.517,36.453,24.966
	c1,0.904,17.975,14.799,24.575,14.491c8.589-0.4,15.075,6.906,22.769,8.613c0.479,0.277,0.975,0.546,1.496,0.84
	c3.564,6.646,4.825,6.288,7.197,9.042c1.265,0.028,9.145,2.141,9.067-8.125c-0.027-3.582-1.796-2.088-2.107-6.524
	c-0.097-1.376-0.73-2.728-0.715-4.082c0.038-3.38,4.744-9.979-4.496-14.093c-2.427-1.081-0.974,1.026-2.223-3.689
	c-0.794-0.752-1.748-1.286-2.794-1.555c-0.118-0.681-0.093-1.437-0.786-1.76c0.114,0.053,0.277-4.425,0.177-4.886
	c-0.694-3.198-6.998-5.312-9.198-5.413c-0.421-2.705,2.105-6.055-7.174-9.489c-18.207-6.738-14.866-4.985-17.295-12.556
	c-1.005-3.131-2.304-2.221-3.222-3.221c0,0-1.365-2.92-3.809-6.279c-11.52-15.83-3.945-6.356-9.313-14.497
	c-5.333-25.423,4.908-21.319-15.748-61.529c-2.821-5.467-10.36-7.619-16.036-5.965c-1,0.292-19.675,10.085-26.979,10.04
	c-13.191-0.081-8.141,5.855-95.139-72.646c-8.909-6.05-10.64-13.012-15.365-20.849c-10.231-17.14-35.383-38.121-70.918-48.708
	c-6.099-1.817-24.165-6.245-25.956-8.956c-0.976-1.327-2.199-22.804-2.265-25.563c0.203-8.811,5.452-35.294,8.55-48.281
	c2.416-9.227,6.605-17.836,9.466-26.916c10.645-30.032,10.645-78.947,11.932-92.784c1.344-14.455,4.701-34.777,2.244-54.883
	c-0.825-6.726-3.529-10.722-3.202-13.525c3.333-1.8,2.827-2.549,4.214-1.332c8.904,8.217,37.83-12.897,38.239-30.895
	c1.777,0.542,3.618,1.399,5.525,1.017c8.195-1.642,4.908-0.513,10.115,1.41c34.166,12.616,158.237,8.689,176.438,4.17
	c15.121-3.838,31.188-10.675,40.075-12.172c1.005-0.169,48.443-8.87,57.063-4.773c0,0-0.516,30.239,6.768,57.554
	c7.536,28.261,17.695,33.6,25.018,49.29c14.734,31.801,27.79,75.516,28.029,76.516c9.29,27.669,12.322,24.093,10.305,28.71
	c-2.135,0.503-0.247,1.428-2.547,4.355c-2.192,2.789-9.05,6.653-10.842,8.701c-0.686,0.784-0.971,1.789-1.864,2.206
	c-1.046,0.489-2.255,0.016-3.287,0.792c-2.815,1.916-4.958,4.655-7.836,6.475c-2.051,1.297-3.448,4.865-3.862,7.124
	c-1.638,8.936,11.738,24.325,16.559,29.847c0.668,0.433,1.235,1.008,1.706,1.685c1.001,0.711,11.738,11.748,18.117,12.933
	c1.193,0.756,2.252,1.702,3.252,2.719c1.534,1.542,3.87,1.903,5.303,3.588c0.029,0.269,0.08,0.802,0.109,1.067
	c4.083,4.394,17.515,26.25,17.828,31.987c1.685,1.87,2.605,4.219,3.853,6.378c-0.021,2.105,0.975,3.962,1.752,5.861
	c-0.059,2.001,1.231,18.518,4.483,31.546c0.386,1.584,2.332,2.76,1.664,4.542c-1.762,5.22,11.702,27.885,21.004,22.117
	c3.076-3.684,2.36-10.302,1.483-12.828c-0.818-2.214,3.938-11.782,5.13-17.907c0.555-2.092,0.534-4.286,1.223-6.332
	c2.765-9.01,3.846-1.871,3.971-32.882c-0.028-3.418-0.64-24.474-2.545-41.618c-0.499-4.493-3.785-11.924-3.346-15.528
	c0.303-2.483,3.511-12.404,2.223-17.617c-0.031-0.405-6.979-32.341-9.101-49.853c-20.976-184.345-4.253-91.461-20.193-238.502
	c-6.525-49.653-3.113-55.359-30.517-77.936c-63.251-52.351-259.332-58.233-259.964-55.937c0.399-1.45,0.613-3.126,1.769-4.189
	c1.304-0.544,12.223-3.355,13.466-3.786c0.693-1.828,0.807-3.803-0.084-5.576c-0.118-1.651-2.319-2.122-1.832-3.903
	c5.966,1.473,10.755,1.95,17.353,0.118c-0.222-2.356-0.107-1.883-4.735-6.437c0.996-1.706,2.63-3.231,2.92-5.218
	c-9.366-24.107,13.716-25.8,17.286-37.496c0.666-1.719,5.938-1.767,2.143-12.567c-3.405-8.381-3.396-16.412-7.857-28.706
	c-0.758-2.225-5.8-11.939-8.097-12.378c-1.508-0.344-2.714,0.761-3.987,1.34c-0.731,1.021-1.223,2.181-1.58,3.382
	c-5.091-3.325-5.808-2.987-5.832-4.357c0.008-1.849,0.378-3.769-0.366-5.53c-0.458-1.05-0.769-2.298,0.092-3.239
	c1.804-3.444,6.271,0.205,5.668-10.609c-0.325-1-4.9-8.263-4.122-14.719c0.556-1,1.751-4.849,4.437-6.575
	c2.697-1.8,7.035-9.722,9.571-11.845c3.626-0.857,6.924-2.676,10.055-4.643c3.053-6.015,0.688-6.211,1.181-13.508
	c0,0,52.276-12.407,73.579-22.092c25.977-8.347,16.384-5.386,26.462-6.307c30.598,0.227,174.557-53.667,189.074-63.525
	c13.508-9.172,27.652-9.701,28.68-8.555c5.507,5.227,12.587,4.15,13.739,4.214c1.542,0.143,3.559-0.571,4.588,0.992
	c0.744,1,11.506,10.707,27.466,14.466c5.031,1.558,9.432-1.762,20.756,4.038c4.298,1.897,30.2,19.33,31.836,2.819
	c-1.572-9.421-9.677-14.149-11.26-16.202c-1.479-1.824-3.836-2.42-6.042-2.777c-1.616-0.752-7.993-4.4-9.017-6.189
	c0.378-2.156,1.987-3.996,3.849-5.109c1.146-0.815,9.262-0.451,10.575-0.185c8.379,1.468,12.268-2.093,14.227-2.739
	c2.345-0.588,5.028,2.191,10.092,2.096c3.067,0,6.248,0.555,9.218-0.5c1.483-0.391,3.042-1.349,4.605-0.718
	c4.53,1.744,9.408,2.828,14.277,2.357c12.254,3.91,15.071,2.169,18.433,0.53c1.425-0.885,9.183-2.29,10.487-10.004
	C1104.93,528.584,1103.635,527.051,1102.387,525.971z M516.22,336.346c0.592,0.756,1.185,1.525,1.761,2.307
	c0.911,3.366,10.774,15.213,10.05,27.075c-0.748-0.588-1.433-1.248-2.067-1.946c0.433,0.055,0.87,0.118,1.319,0.185
	c-2.699-6.46-1.18-4.949-5.996-16.122c-2.106-4.353-5.246-7.383-5.416-11.067C515.959,336.67,516.136,336.456,516.22,336.346z
	 M497.989,457.61c0.185-1.79,1.521-3.113,2.815-4.223C500.695,455.114,500.212,457.682,497.989,457.61z M501.926,369.262
	c0.252,1.395,0.437,2.844,1.16,4.096c0.349,1.828,0.903,3.618,1.706,5.303c-0.055,0.324-0.168,0.966-0.227,1.286
	C501.105,374.822,499.355,374.038,501.926,369.262z M497.018,358.312c0.433,0.32,0.874,0.643,1.303,0.992
	c0.328,0.761,0.672,1.513,0.992,2.29c-0.227,0.374-0.454,0.748-0.676,1.126c1.171,3.485,1.626,3.795-0.017,6.853
	c-0.613-0.315-1.219-0.63-1.815-0.95c0.004-1.887-0.5-3.693-0.979-5.492C495.745,361.46,496.615,359.909,497.018,358.312z
	 M495.115,368.418c0.248,0.113,0.74,0.344,0.987,0.458c1.208,1.375,3.038,3.464,0.668,8.26c-0.483-0.269-0.958-0.534-1.424-0.794
	C495.22,373.699,495.035,371.06,495.115,368.418z M495.077,416.484c0.563-2.084,0.08-4.223,0.122-6.332
	c0.675-5.991-1.101-15.809,1.483-26.954c0.546-0.134,1.105-0.265,1.672-0.391c0.235-1.382,0.294-2.786,0.118-4.176
	c0.071-0.172,0.218-0.517,0.294-0.689c0.298-0.051,0.903-0.151,1.202-0.202c0.046-0.752,0.093-1.504,0.164-2.244
	c5.849,5.616,6.029,17.762,5.454,25.723c-0.555-0.319-1.088-0.63-1.622-0.95c0.391,1.559,0.769,3.122,1.05,4.706
	c-0.429,0.975-0.685,2.004-0.857,3.055c-0.848,1.532-1.647,6.889-3.727,10.117c-0.71,1.023-0.899,2.042-1.605,5.357
	c-0.928,2.983-3,5.42-3.887,8.424c-0.668-1.441-0.878-3.034-0.87-4.605C494.964,423.762,494.157,420.039,495.077,416.484z
	 M470.636,487.459c1.736-1.663,0.978-1.435,2.42-2.58c1.58,0.319,3.038-0.429,4.126-1.529c0.256,0.021,0.773,0.063,1.029,0.084
	c0.563-0.273,1.143-0.529,1.723-0.782c1.889,0.795,2.886-0.062,9.126-5.122c0.731-0.042,1.475-0.051,2.223-0.054
	c-0.042,0.55-0.08,1.105-0.118,1.668c-3.461,5.652-12.397,8.262-14.529,9.517c-2.727,0.038-5.038,2.126-7.802,1.689
	c-0.109-0.168-0.319-0.5-0.424-0.668C469.017,488.681,469.299,488.161,470.636,487.459z M460.909,495.622
	c0.849,0.399,1.681,0.891,2.605,1.147c0.752-0.009,1.504-0.16,2.252-0.286c0.41-0.59,0.272-0.559,1.697-1.903
	c8.208-0.135,5.208-0.786,10.416-3.357c0.332,0.307,0.672,0.618,1.017,0.937c-2.29,2.137-1.894,1.899-2.626,2.899
	c-2.288,0.959-10.713,8.545-21.689,10.273c0.072-0.689,0.172-1.353,0.265-2.021c1.87-1.202,3.155-3.277,5.361-3.916
	C459.309,498.139,460.182,496.711,460.909,495.622z M448.788,267.082c2.752,1.596,5.462,3.277,7.857,5.386
	c-0.336,0.307-0.664,0.614-0.987,0.929c-3.182-2.673-4.949-2.232-7.651-5.651C448.199,267.578,448.59,267.25,448.788,267.082z
	 M115.244,555.126c-1.101,0.954-2.223,1.895-3.374,2.79c-0.433,0.181-0.861,0.362-1.294,0.542c0.172-0.567,0.349-1.13,0.55-1.672
	c0.713-1,3.279-3.841,4.449-3.395C115.505,553.966,115.391,554.551,115.244,555.126z M119.286,567.135
	c-0.748-0.013-1.496-0.009-2.239-0.013c0.189-0.698,0.374-1.378,0.605-2.05c0.685-0.323,1.416-0.525,2.156-0.685
	C119.693,565.307,119.572,566.239,119.286,567.135z M161.676,481.333c0.038,0.273,0.122,0.815,0.164,1.088
	c-2.594,2.145-2.971,2.168-6.731,1.928c-0.034-0.336-0.105-1-0.143-1.336C157.139,482.232,159.328,481.366,161.676,481.333z
	 M155.273,485.27c0.371,0.402,0.405,0.43,0.899,1.197c-3.302,1.02-7.145,2.549-11.168,3.256c-0.151-0.273-0.45-0.828-0.597-1.101
	C150.793,486.408,147.348,486.729,155.273,485.27z M123.177,523.706c-15.394,14.937-14.045,15.134-17.886,17.63
	c0.759-9.653,14.038-39.284,34.361-47.949c-2.545-0.172,11.478-4.072,12.479-4.365c1.76-0.538,3.76,0.584,5.323-0.735
	c0.899-0.155,1.811-0.273,2.723-0.382c5.928-2.216,7.197-0.863,5.949,0.29c-0.725,0.669-2.311,0.501-3.245,1.11
	c-1,0.653-22.954,15.309-28.792,24.15C129.612,519.285,124.972,522.09,123.177,523.706z M151.878,517.942
	c-2.531,4.771-7.645,7.309-9.071,9.206c-1.395,0.979-2.626,2.231-4.239,2.87c-0.933-0.386-1.912-0.647-2.916-0.681
	c0.643-0.555,1.165-0.939,1.971-2.958c5.115-3.331,7.32-5.435,13.008-8.714C150.941,517.736,151.567,517.87,151.878,517.942z
	 M121.832,539.5c0.672-0.63,1.395-1.21,2.156-1.731c0.235-0.034,0.706-0.101,0.941-0.139c-0.286,1.324-1.063,2.445-2.038,3.361
	c-0.34,0.008-1.017,0.021-1.353,0.025C121.631,540.504,121.731,540,121.832,539.5z M123.706,548.147c0,0-0.772,0.095-1.718,0.227
	c-0.025-0.555-0.038-1.105-0.038-1.647c2.181-2.718,5.248-4.529,7.723-6.937c0.719-0.13,1.437-0.26,2.168-0.37
	c-0.034,0.899-0.185,1.79-0.416,2.664C131.425,542.084,124.074,547.83,123.706,548.147z M122.832,564.676
	c-0.332-0.643-0.664-1.273-0.992-1.899c1.179-1.219,1.973-1.571,2.046-4.395c0.723-1.34,1.605-2.634,3.008-3.332
	c0.567,0.529,1.088,1.109,1.605,1.701c0.256-0.786,0.231-1.819,1.055-2.26c2.425-1.66,1.227-2.206,4.399-5.58
	c1.366-1.416,2.525-3.013,3.588-4.66c0.895-1.395,2.756-1.63,3.702-2.983c0.656-0.244,1.332-0.433,2.009-0.618
	c0.248-0.328,0.496-0.647,0.756-0.949c3.954,0,2.601-2.785,7.08-1.794c-0.353,0.567-0.706,1.139-1.101,1.685
	c-0.58,0.336-1.004,0.84-1.315,1.433c-0.386,0.08-0.769,0.168-1.143,0.26c-1.227,1.013-1.286,2.76-2.307,3.916
	C137.126,553.905,127.472,561.708,122.832,564.676z M153.479,574.176c0.151,0.034,0.445,0.093,0.592,0.122
	c-0.038,0.538-0.076,1.067-0.101,1.617c1.756-0.475,6.751-4.457,9.139-4.924c-0.571,5.521-6.674,5.874-11.71,12.592
	c-2.252,1.92-5.412,2.101-7.66,4.021c0.992-0.147,1.979-0.315,2.971-0.475c0.03,0.336,0.097,1.013,0.13,1.353
	c-2.635,3.387-15.326,17.476-24.504,34.668c-0.311,0.164-0.613,0.34-0.916,0.525c-0.8-2.303-0.2-6.699,0.903-10.302
	c1.308-1.31,6.295-7.865,6.609-9.475c0,0,2.957-3.291,5.198-7.033c1.109-1.79,2.214-3.744,4.235-4.626
	c0.483-1.996,2.429-2.882,3.992-3.903c-1-1.216-1.232-1.482,4.668-7.172c0.391,0.059,0.79,0.101,1.197,0.135
	c0.987-0.916,1.576-2.219,2.723-2.974c1.151-0.778,2.336-1.559,3.034-2.803c-0.399-0.004-1.202-0.013-1.601-0.021 M162.849,550.433
	c-2.145,2.388-5.463,4.993-7.164,8.874c-0.648,1.001-9.374,12.68-10.424,13.735c-6.819,11.408-7.698,10.132-9.189,10.412
	c-0.547-3.116,15.711-23.285,16.365-24.285c1.021-0.811,1.815-1.857,2.529-2.937c1-0.67,4.506-5.675,6.487-6.798
	c0.361-0.084,1.076-0.244,1.433-0.324C162.878,549.437,162.857,550.101,162.849,550.433z M163.134,564.689
	c0.647,0.126,1.723-0.202,1.949,0.668c0.042,1.34-0.093,2.723-0.672,3.958c-1.655,0.601-3.311,1.21-4.891,1.991
	c-1.441,0.689-2.336,2.639-4.181,2.164c0.029-0.433,0.08-1.298,0.109-1.735C157.126,569.924,163.038,564.82,163.134,564.689z
	 M121.551,626.718c21.43-36.422,29.497-36.957,35.227-44.39c0.391-0.114,0.782-0.214,1.181-0.307
	c0.029,0.323,0.084,0.979,0.109,1.303c-3.421,4.772-3.593,14.819-34.953,47.542c-0.458-0.13-0.912-0.256-1.366-0.374
	C121.534,629.243,121.294,627.97,121.551,626.718z M124.055,641.533c-1.084-2.429-2.298-5.416-0.765-7.908
	c17.899-16.519,15.18-19.223,20.546-21.243c-0.126,0.962-0.235,1.945-0.471,2.899c-9.47,13.385,1.637-0.051-9.723,14.449
	c-2.836,3.16-5.349,6.655-7.357,10.399C125.286,640.837,126.134,640.421,124.055,641.533z M126.559,643.554
	c-1.299-1.968,0.408-3.45,5.832-10.823c0.235-0.012,0.702-0.042,0.933-0.055C133.051,633.493,127.086,642.877,126.559,643.554z
	 M164.933,599.697c-0.382,0.214-0.765,0.437-1.139,0.668c-11.017,14.213-15.494,20.605-34.122,43.407
	c-0.643,0.424-1.302,0.824-1.966,1.21c1.03-3.438,14.861-24.234,15.861-25.122c1.592-1.651,3.58-3.265,3.895-5.681
	c1.336-1.773,2.697-3.525,4.08-5.256c1.155-0.361,1.471-1.571,1.996-2.508c0.013-0.027,5.009-5.665,6.08-7.294
	c1.534-1.979,2.647-4.395,4.752-5.845C165.37,595.281,165.277,597.542,164.933,599.697z M168.361,537.294
	c-3.887,3.975-7.16,8.517-11.143,12.412c-0.706,0.13-1.408,0.261-2.101,0.404c-0.101,0.744-0.197,1.487-0.29,2.248
	c-6.029,5.987-14.05,17.046-18.399,23.416c-7.618,9.15-8.14,19.033-16.307,27.05c-2.702,1.693-5.008,3.962-6.643,6.71
	c-0.626-0.332-1.248-0.656-1.866-0.975c0.857-1.651,1.088-3.5,1.458-5.29c0,0,7.999-14.541,8-14.542
	c5.716-10.068,2.97-4.306,6.907-11.038c0.996-0.563,1.782-1.408,2.302-2.424c5.262-9.736,9.407-13.326,12.214-17.672
	c3.249-2.733,7.964-9.26,10.592-10.828c0.176-0.353,0.361-0.706,0.55-1.046c1.252-0.857,2.428-1.815,3.676-2.685l0.471-0.79
	c0,0,1.003-0.612,1.004-0.613c0.546-0.084,1.093-0.156,1.647-0.21c0.063-0.26,0.193-0.777,0.256-1.038
	c3.396-2.05,3.828-4.462,7.689-4.933C168.382,536.055,168.437,536.677,168.361,537.294z"/>
</svg>
