<?xml version="1.0" encoding="utf-8"?>

<!DOCTYPE svg PUBLIC "-//W3C//DTD SVG 1.1//EN" "http://www.w3.org/Graphics/SVG/1.1/DTD/svg11.dtd">
<svg version="1.1" id="Layer_1" xmlns="http://www.w3.org/2000/svg" xmlns:xlink="http://www.w3.org/1999/xlink" x="0px" y="0px"
	 viewBox="0 0 2529.696 1631.522" enable-background="new 0 0 2529.696 1631.522" xml:space="preserve">
<g>
	<path d="M2173.509,687.096c184.298-123.045,124.768-88.776,166.079-111.353c42.874-23.43,39.979-30.795,157.37-103.627
		c6.211-3.842,25.81,4.834,10.954,11.228c-20.853,8.975-34.451,21.64-53.211,34.147c-23.408,15.674-48.475,28.939-70.381,46.789
		c-22.661,18.465-45.757,36.318-70.631,51.134c-47.818,28.482-89.156,66.502-138.526,92.478
		c-19.623,10.325-32.308,30.404-54.091,37.795c-14.258,4.839,13.723,22.004-9.946,40.918c-8.935,7.14-19.145,12.164-30.418,3.703
		c-7.667-5.754-8.72,2.499-5.391,7.554c9.145,13.885,18.995,27.293,24.672,43.204c15.733,44.1,34.861,86.839,48.592,131.853
		c18.642,61.113,90.739,138.048,51.221,149.589c-29.965,8.75-59.317,13.195-86.955-7.829
		c-38.711-29.448-6.608-104.997-40.936-151.243c-17.468-23.533-29.162-48.24-19.584-78.565c1.282-4.058,1.821-9.889-0.158-13.175
		c-22.01-36.545,2.969-50.167-9.895-55.004c-3.121-1.173-4.469,1.894-6.187,4.075c-33.8,42.922-82.112,68.518-122.508,103.423
		c-23.383,20.205-48.564,38.259-73.252,55.701c-34.639,24.471-64.352,54.428-98.579,79.31
		c-42.936,31.213-85.784,63.932-121.841,103.561c-53.829,59.16-143.516,65.095-221.447,95.708
		c-58.803,23.099-89.224,5.18-181.743,33.349c-26.759,8.147-54.316,14.513-81.091,22.994
		c-83.491,26.446-158.666-34.301-234.212-108.359c-2.35-2.304-3.261-8.481-8.558-5.417c-9.093,5.259-7.789,56.828,16.295,94.791
		c12.948,20.41,22.618,41.31,26.745,64.971c0.661,3.788,1.403,8,3.522,11.026c15.658,22.359,21.692,49.356,32.035,73.786
		c42.523,100.439,69.587,102.637,41.013,161.418c-5.514,11.344-19.955,9.59-31.781,5.869c-10.339-3.253-18.493-9.419-18.282-20.702
		c0.432-23.122-8.082-45.556-3.923-68.99c3.299-18.588-4.935-34.865-17.769-46.64c-26.038-23.886-41.764-55.492-56.942-85.122
		c-14.505-28.315-35.402-54.307-42.311-86.645c-8.417-39.401-19.838-78.077-27.175-117.797
		c-19.456-105.333-36.716-61.612-121.697-192.425c-15.365-23.651-35.555-43.25-50.856-67.122
		c-12.604-19.663-25.496-40.384-43.782-57.265c-14.633-13.508-21.179-35.029-34.21-51.361
		c-36.501-45.748-60.871-88.586-96.316-132.635c-54.115-67.252-50.191-92.409-75.993-98.441
		c-40.207-9.399-12.074-65.146-78.844-68.305c-14.589-0.69-18.812-9.958-21.366-21.167c-24.309-106.715-4.315-84.833-28.024-115.968
		c-10.328-13.563-15.333-30.822-29.681-41.653c-8.964-6.767-9.619-19.292-17.048-28.001
		C123.996,204.251,101.968,144.008,57.805,88.705C42.588,69.649,31.763,47.067,19.249,25.894c-1.402-2.372-4.711-5.622-0.505-8.62
		C24.67,13.052,28.7,16.19,48.25,42.342c33.378,44.649,100.688,155.692,122.32,175.928c10.058,9.409,12.735,22.962,21.549,33.379
		c21.592,25.52,41.717,52.348,61.32,79.454c25.965,35.905,22.358,53.226,37.794,53.416c8.16,0.101,13.65,1.516,14.094,11.857
		c0.371,8.645,8.735,5.443,13.342,4.947c24.691-2.661,44.441,7.969,63.082,22.091c2.514,1.905,6.671,3.176,5.016,7.489
		c-2.693,7.017-22.743,8.144-39.09-4.89c-20.174-16.085-15.701-12.267-32.615,8.706c9.577-1.497,17.925-10.499,24.33-4.767
		c6.146,5.5,2.804,15.47-2.237,25.01c14.003-2.806,19.044,8.004,27,11.849c11.737,5.674,27.147,4.098,41.033,4.881
		c42.774,2.411,55.08-3.671,56.962,12.877c0.865,7.611,2.169,15.683-8.802,18.689c-5.494,1.505-14.552,3.743-4.905,12.681
		c5.605,5.193,17.202,8.081,16.167,15.256c-1.494,10.362-6.972,21.233-13.734,29.425c-15.966,19.342,26.12,49.247,43.158,76.214
		c14.161,22.414,30.755,43.014,48.46,62.609c16.895,18.699,28.628,41.051,45.675,59.902c14.5,16.035,23.438,37.278,33.951,56.696
		c14.321,26.451,22.355,29.096,48.594,14.634c21.975-12.112,27.474-8.392,28.859-14.87c4.449-20.817,19.675-15.017,32.86-13.157
		c24.158,3.407,36.99,22.508,46.662,40.796c6.518,12.325,13.59,15.749,24.813,15.777c13.505,0.035,18.156,5.552,10.996,17.301
		c-9.496,15.584,20.996,25.364,20.208,45.021c-1.053,26.287-19.972,5.522-20.426,33.548c-0.39,24.056,25.244,25.965,84.698,43.61
		c53.138,15.771,70.803,22.498,85.801,63.17c11.395,30.9,30.579,49.755,64.264,52.392c35.654,2.791,20.053,32.097,56.015,30.292
		c9.536-0.479,11.514-10.862,14.051-18.659c32.769-100.707,26.403-152.48,69.219-184.536c16.993-12.723,25.104-12.182,41.365,0.902
		c29.245,23.53,46.083,55.786,61.903,88.376c11.045,22.751,28.756,41.752,35.804,66.701c2.967,10.501,12.328,5.601,18.296,3.932
		c27.329-7.644,54.271-16.722,80.198-28.267c26.196-11.664,54.537-17.617,80.363-29.619c47.933-22.275,98.703-37.001,146.436-60.621
		c44.161-21.852,89.732-42.124,135.734-60.843c81.605-33.204,140.165-111.009,225.126-126.788
		c8.607-1.599,11.484-2.702,9.365-13.101c-4.24-20.81,9.818-31.955,31.241-26.428c6.135,1.582,12.695,4.013,16.605-2.359
		c5.562-9.066-20.254-25.569-9.76-33.503c4.876-3.687,11.344,2.255,15.742,8.127c8.807,11.762,18.852,11.701,32.995,5.959
		c25.699-10.434,41.253-33.147,63.691-47.087L2173.509,687.096z M1255.559,1125.813c-8.493-9.061-20.775-15.245-19.166-30.224
		c0.313-2.914-4.216-3.006-6.803-3.108c-10.756-0.42-1.194,21.48-8.511,41.641
		C1233.857,1133.688,1245.086,1133.555,1255.559,1125.813z"/>
	<path d="M2173.837,686.742l-0.825-0.323C2173.594,687.209,2173.459,687.149,2173.837,686.742z"/>
</g>
</svg>
