<?xml version="1.0" encoding="utf-8"?>

<!DOCTYPE svg PUBLIC "-//W3C//DTD SVG 1.1//EN" "http://www.w3.org/Graphics/SVG/1.1/DTD/svg11.dtd">
<svg version="1.1" id="Layer_1" xmlns="http://www.w3.org/2000/svg" xmlns:xlink="http://www.w3.org/1999/xlink" x="0px" y="0px"
	 viewBox="0 0 1919.7599 1279.84" enable-background="new 0 0 1919.7599 1279.84" xml:space="preserve">
<g>
	<path d="M0.9999,990.8761c13.4514,1.9428,26.7422,5.1923,40.5912,2.6899c4.991-0.902,10.3146-0.874,14.3442,4.3798
		c2.3295,3.0372,7.0043,3.559,10.9496,4.2943c18.3721,3.424,37.0346,4.2593,55.5984,5.7649
		c6.7869,0.5505,11.1096,5.5423,17.1552,6.922c7.0843,1.6166,12.8599,6.5045,19.5885,8.3693
		c6.4073,1.7756,13.5485,0.7146,20.3064,1.4543c12.5182,1.3704,25.2326,0.7346,37.5963,3.5663
		c12.9034,2.9553,26.0419,1.697,39.065,2.491c13.8461,0.8442,27.6139,1.719,39.782,10.413
		c7.5221,5.3745,16.9505,7.2139,26.1664,8.9302c7.7147,1.437,15.1349,4.4028,23.0751,4.7896
		c6.1675,0.3008,12.0157,3.6514,18.4574,1.7322c1.3698-0.4081,3.1075,0.6376,4.6578,0.5746
		c4.3168-0.1755,7.2437-2.342,8.6515-6.5303c0.3371-1.0029,0.7036-2.7107,2.1836-2.103c1.1367,0.4667,2.0076,2.058,1.4643,3.3574
		c-1.8984,4.541,0.8069,4.2233,3.805,3.8936c7.4876-0.8231,14.0313,1.04,19.583,6.4275c3.8188,3.7058,8.8376,5.6245,14.3327,8.6647
		c-0.7076-2.0743-4.2655-5.0564,0.9923-4.1108c3.2342,0.5817,4.5712-2.5146,4.0681-4.8456
		c-1.0328-4.7847-0.7426-9.785-3.0779-14.4213c-1.8782-3.7286-1.3604-3.9746,2.531-3.5013c1.801,0.219,2.8182-0.6964,3.1892-2.4059
		c0.3857-1.7773,0.809-3.484,0.1936-5.3834c-0.4661-1.4386,0.6525-2.8241,1.9572-3.0244c2.2495-0.3456,1.3133,1.7323,1.6106,2.8114
		c0.7612,2.7625-1.6151,6.6781,1.5451,8.2314c2.548,1.2527,1.9458,2.7944,2.3759,4.5583c0.4511,1.85-0.7025,3.0742-0.9727,4.524
		c-0.4208,2.2579-4.0354,6.6318,2.5232,6.4547c1.4311-0.0387,1.8343,0.8978,0.9364,1.882
		c-2.6512,2.9056,1.0768,2.9805,1.9149,3.6996c1.9641,1.6847,3.7485-0.7155,5.2328-1.5111
		c1.6866-0.9038-0.6094-2.0823-1.2045-3.0275c-0.6819-1.0834-1.7007-2.0599-2.7795-2.7684
		c-3.3198-2.1803-4.2525-3.9817,0.4809-5.3962c0.4173-0.1248,1.0867-0.7722,1.065-0.8055
		c-2.7358-4.2306,2.7711-8.8615-0.6736-13.0784c-1.5913-1.948-0.9232-2.7977,1.4612-3.83c2.719-1.1769,4.9873,0.3501,7.0082,0.8368
		c2.566,0.6179,0.8855,4.3889,1.229,6.6436c0.5646,3.7051-1.4448,7.9309,4.091,9.5356c0.7283,0.2112,1.0225,1.9197,1.6875,3.2825
		c0.3549-2.4185-0.6159-6.3055,2.6747-5.5708c2.2032,0.4919,6.939,0.3751,5.856,5.442c2.7155-0.2117,1.8336-3.4462,4.6033-3.3666
		c-3.5699-1.01-3.3999-2.2357-3.2292-5.4738c0.3551-6.7346,2.5792-13.0415,3.107-19.6909c0.2862-3.605-1.6486-6.4899-1.5742-9.9927
		c0.0355-1.6732,0.2727-4.014-0.6339-5.9863c-0.6293-1.3691,0.9134-1.957,1.924-2.4315c1.7365-0.8154,1.8027,0.7629,2.259,1.731
		c1.4081,2.9872,1.8948,6.3593,6.2707,7.3724c1.4059,0.3255,2.0176,4.423,2.827,6.85c0.455,1.3641,0.1846,3.423,2.5963,2.1801
		c1.4512-0.748,3.6232-0.9218,2.3688-3.8297c-2.7677-6.4155-3.2104-13.2182-2.8468-20.1716
		c0.1273-2.4343-0.8536-4.9637-1.5395-7.3899c-0.4266-1.509-1.1161-3.1223,0.752-3.8153c1.6195-0.6006,3.3783-0.1876,4.734,1.1801
		c3.3744,3.4039,4.5974,7.8171,5.2901,12.2899c0.2889,1.8657,0.4691,3.0242,3.2703,3.5224
		c-2.0426-3.0612-1.3055-5.0823,0.9622-7.0117c1.7271-1.4696,3.2195-3.1904,1.8698-6.0644
		c-0.5859-1.2474,0.0753-3.2927,0.6293-4.8078c0.6446-1.7631,2.5145-2.3536,3.37-0.5842c1.8743,3.8766,4.4972,7.9608,1.2771,12.3676
		c-1.0059,1.3766-0.7249,2.128,0.1044,3.4378c1.4098,2.2267,4.116,3.9681,3.2307,7.2746c-0.0807,0.3013,0.4042,0.8436,0.74,1.1493
		c0.8301,0.7554,10.8788-2.8759,11.6202-3.2195c5.7397-2.6589-0.512-7.4427,2.018-10.5688c-4.3467-2.913-1.719-6.7441-1.425-10.3071
		c0.1124-1.3622,0.5131-2.3263,1.8665-2.4794c1.4803-0.1672,1.6786,1.0198,2.184,2.1525c1.4972,3.356,2.9053,6.6243,2.2103,10.47
		c-0.1862,1.0305-0.025,1.9635,1.4894,2.9741c4.0638,2.7122,3.754,3.8801-0.5189,6.0739c-0.7219,0.3705-1.5781,0.6646-2.0734,1.2477
		c-0.7205,0.8483-1.7156,1.8535-1.0396,3.1091c0.9438,1.7527,1.8672,0.2846,2.8102-0.1572
		c0.9861-0.4621,2.6956,0.2734,2.5598,0.4271c-1.7292,1.9576,0.9796,4.7278-1.1059,6.3239
		c-2.1016,1.6085-3.2643,3.6526-4.0169,6.1003c7.1074,0.1494,7.1074,0.1494,7.6221-6.3777c2.9677,3.3535,4.0103,1.021,4.6748-1.4297
		c0.7252-2.675,1.3141-5.4238,1.5707-8.1769c0.194-2.0835,0.7763-4.0555,2.2045-5.2962c2.7227-2.3655,7.295-2.7136,7.6373-7.8346
		c0.4267,3.0902,2.7151,5.9195-0.8232,8.3817c-0.386,0.2687-3.113,4.7374,1.2049,6.6121c1.4735,0.6397,0.6608,3.6473-0.5527,4.9495
		c-2.4716,2.652-3.9621,6.6207-8.4369,6.9184c-0.4928,0.0328-0.9399,0.7521-1.579,1.2991c5.2208,0.9397,6.1617,2.4706,5.4349,8.4373
		c-0.1089,0.8942-0.0616,1.8634,0.7988,2.1398c4.7957,1.5396,2.9553,5.3595,2.2957,8.0825c-0.4424,1.8264,0.0626,3.1666,0.8182,4.01
		c1.1688,1.3042,1.3854-1.0576,2.3425-1.2347c2.1912-0.4055,4.6534-1.5243,5.442,1.9501c0.214,0.9425,0.7571,1.6077,1.6951,1.3619
		c1.0595-0.2778,0.6884-1.3561,0.7335-2.1267c0.0284-0.4846-0.3297-1.3452-0.1891-1.4193c6.2916-3.3135,6.6217-9.6407,7.6563-15.897
		c1.2493,2.6161,1.9352,4.6622,4.8002,5.7656c2.4573,0.9462,0.6406,5.0129,2.5637,6.8779c2.865,2.7782,0.7105,4.1031-1.191,5.8868
		c-1.5778,1.4799-3.6979,2.8074-1.0793,5.7242c1.3685,1.5244,1.0504,4.563,1.9398,7.0061c-0.5871-4.0288,4.2741-4.6501,4.6796-8.261
		c0.1867-1.6619,2.967-1.248,4.388-0.4235c1.6033,0.9303,2.7622,2.7266,2.2196,4.5693c-0.4898,1.6635-1.5837,4.0791-2.8673,4.4136
		c-4.9119,1.2804-2.8859,5.0555-2.1444,7.0319c1.0023,2.6714,4.0987,1.3805,6.578,1.302c3.8412-0.1215,6.0923-3.9106,9.9681-3.7506
		c0.3326,0.0138,0.9394-2.3395,1.1144-3.6343c0.4209-3.1136,1.1842-6.0936,2.4209-9.0304c0.5375,0.3195,0.9739,0.4391,0.9973,0.614
		c0.2851,2.1342-1.9396,5.0593,0.7212,6.2688c2.7906,1.2688,4.2849-1.6387,5.8564-3.5583
		c2.9716-3.6301,7.6696-6.3058,6.5678-12.1417c-0.1559-0.8259,0.3649-1.1564,1.0899-1.304c3.5712-0.7272,4.2368-3.8247,5.4257-6.546
		c0.2612-0.598-0.5978-2.224,1.4026-1.6863c1.0754,0.2892,2.3372-0.2783,2.2641,1.6423c-0.0825,2.1643,1.3014,3.0577,3.2502,2.6678
		c1.6758-0.3356,2.7385-0.4675,3.1689,1.6792c0.4267,2.1279-0.6451,2.8096-2.208,3.7571
		c-9.0164,5.4672-15.8535,13.3042-23.6845,21.4861c4.0991-0.0963,7.3199,2.7817,9.8672-2.132
		c0.8773-1.6921,4.9495-1.4266,7.4288-2.9924c2.8492-1.7996,5.4622-3.115,4.6863-7.2329c0.756,1.1538,1.5121,2.3076,2.449,3.7373
		c1.528-2.6932,1.9177-5.0852,1.6937-7.5719c-0.1404-1.5593,0.0544-2.5754,1.993-2.5149c2.3403,0.0731,1.439,1.5837,1.4578,2.8121
		c0.0405,2.6466,0.1792,5.2924,0.3109,7.9368c0.1714,3.443,1.5458,4.0271,4.4324,2.0846c4.9615-3.3385,9.3775-7.105,12.0584-12.6233
		c0.7189-1.4797,1.824-2.7826,2.8287-4.1086c0.5792-0.7642,1.2711-1.8075,2.3983-1.1497c1.0978,0.6404,1.5209,1.8605,0.986,3.0551
		c-1.6904,3.7751-3.0193,7.6882-6.2009,10.7042c-5.118,4.8514-8.569,10.8506-10.3962,17.6608
		c-0.7397,2.7568-0.5955,5.2371,3.428,5.6749c1.7889,0.1947,3.5126,1.6548,5.1185,2.7556
		c8.6031,5.8964,18.2476,7.4065,28.4069,7.0371c8.7819-0.3197,17.2128,0.9811,25.7474,3.582
		c7.2028,2.1951,14.6645,4.0664,21.955,5.6487c5.3743,1.1664,11.4254,1.0708,16.9099,2.8235
		c7.4075,2.3676,15.5449,1.8879,22.4979,5.9943c2.128,1.257,4.4777,2.4453,7.0754,2.0402
		c8.0628-1.2571,15.8339,1.1046,23.6156,2.2496c7.0161,1.0323,14.7976,1.4896,20.7856,4.5419
		c7.9243,4.0394,15.6196,3.1025,23.4771,3.1218c3.9167,0.0096,6.6421,2.3802,10.1152,3.106
		c7.7644,1.6222,15.5897,0.9292,23.3511,0.7544c7.0654-0.1588,13.5367,1.5695,20.145,3.5543
		c4.5112,1.3552,9.5373,0.2024,13.9829,2.5398c5.6798,2.9863,12.2897,2.7836,18.2379,3.2501
		c6.7761,0.5316,13.3896-3.385,18.162-9.0122c7.1674-8.4512,10.351-18.2839,10.6786-29.3094
		c0.2258-7.5992-0.0499-15.2537,2.2184-22.7349c1.2762-4.2091-0.4352-8.5778-0.836-12.8661
		c-1.0524-11.2609-2.2228-22.511-3.4132-33.7583c-0.1821-1.7198,0.5414-3.8339-2.6442-4.2232
		c-1.9655-0.2402-0.5839-2.9606-1.4706-4.7075c-4.8922,1.8963-6.1115-0.0951-6.5228-5.161
		c-0.4456-5.4885-1.8613-11.1403-5.8806-15.5674c-2.0573-2.266-3.2498-4.8761-3.3604-8.0927
		c-0.138-4.0189-1.2751-7.8766-3.2252-11.4309c-2.3289-4.2447-3.7533-8.8178-5.3275-13.3721
		c-1.8267-5.2848-2.5363-10.9485-10.8635-11.6636c-5.0022-0.4296-9.6536-5.4573-14.3736-8.5544
		c-10.4297-6.8437-20.5356-14.2286-31.2753-20.5389c-10.5922-6.2234-22.4443-9.8718-33.8717-14.3312
		c-12.964-5.0589-26.6986-8.4406-38.1444-16.8152c-10.6158-7.7673-16.9504-17.8887-14.6584-31.6234
		c1.5739-9.4313,8.3333-15.3155,15.6944-20.3912c19.5073-13.4512,41.0651-23.1951,62.1206-33.8179
		c6.3417-3.1995,13.1711-5.4249,19.7429-8.1782c3.9498-1.6548,7.1844-4.5537,10.8353-6.7349
		c2.3081-1.3791,4.3922-4.2365,2.8044-8.0195c-1.7161-4.0889-0.9649-8.9043-3.3439-12.8833c-0.7975-1.334-1.0287-2.7885-0.97-4.3199
		c0.5323-13.8702-1.7108-27.3959-4.1801-41.0091c-2.0646-11.3821-3.857-23.0043-4.3814-34.491
		c-0.6052-13.2546,0.658-26.5199,6.9473-39.1608c5.8101-11.6777,9.4535-24.4418,13.9171-36.7759
		c1.3812-3.8168,0.4317-7.7274-0.7991-11.3918c-0.7736-2.303-0.9706-4.496-0.7609-6.8401c0.2647-2.9579,0.7559-5.9636-1.5339-8.498
		c-1.1451-1.2676-0.6457-2.7433-0.46-4.2593c0.9199-7.51,0.8577-14.9742-1.9077-22.168c-1.3191-3.4314-0.2913-6.9363-0.4386-10.3953
		c-0.65-15.2628-2.5986-30.4906,0.6567-45.795c2.1813-10.2556,3.9752-20.6151,7.095-30.6125
		c4.3458-13.9253,5.1921-28.4354,7.8599-42.6339c1.611-8.5737,6.3345-16.0427,7.9299-24.6037
		c0.4925-2.6425,3.913-3.598,4.9894-6.6927c0.6489-1.866,3.892,1.3075,6.045,1.9531c5.4453,1.6327,8.1361,6.0735,9.4036,11.4469
		c0.1478,0.6264,0.6426,1.724,0.8726,1.6977c7.2335-0.8285,4.085,4.8865,4.3915,7.6382c0.8625,7.744,2.1546,15.5343,1.0626,23.3761
		c-0.7163,5.1438,2.4147,9.7335,2.2014,14.6031c-0.1606,3.6709,4.3089,5.0719,3.04,9.0585
		c-1.2084,3.7968,0.9477,7.4852,1.8646,11.1703c0.924,3.7133,1.9239,7.4111,3.0179,11.0777
		c1.9497,6.5344,3.753,13.1269,6.0506,19.5399c5.0439,14.0784,5.2775,29.0964,8.819,43.4625
		c3.3333,13.5212,8.3614,26.4559,14.2736,38.9653c5.3232,11.2632,11.2011,22.2936,17.7742,32.9405
		c5.0109,8.1163,3.19,15.2515-4.6873,20.9728c-3.5718,2.5943-5.5378,6.5785-6.4524,10.3265
		c-2.1888,8.9697-6.6186,17.199-8.1672,26.3402c-0.3148,1.8579-0.5808,3.5234,0.139,5.3436
		c0.6147,1.554,1.0487,3.4816,0.1088,4.8635c-4.9846,7.329-1.9659,14.7189-0.3595,22.0685
		c3.1074,14.2169,6.3018,28.4152,9.5566,42.599c0.8209,3.5773,0.0774,5.0372-3.994,4.8596
		c-5.2935-0.2309-5.509,0.5971-3.0607,4.9844c9.3654,16.7825,16.5054,34.4708,18.11,53.7324
		c0.7816,9.3829,0.2759,18.9451-1.8729,28.3842c-4.0832,17.9366-9.4497,35.7772-9.5622,54.3076
		c-0.1174,19.3455-4.762,38.366-3.5696,57.7264c0.4954,8.043,0.635,16.1647,3.9794,23.8373
		c7.4938,17.1915,6.856,35.1669,3.6479,53.0181c-2.8503,15.8607-0.6251,31.551-0.1702,47.3192
		c0.0432,1.4944,0.2504,2.9836,0.3016,4.478c0.3102,9.0466-0.3171,10.3488-9.0829,12.6854
		c-3.8612,1.0292-4.3439,2.8379-4.3876,6.288c-0.1252,9.8976,2.4695,19.4617,3.2008,29.2527
		c0.2672,3.5773,4.7504,3.0756,7.0238,3.6163c10.7985,2.5684,21.6174,5.3076,32.9789,4.4c6.8842-0.55,13.4544,1.8076,20.1215,3.4104
		c2.8981,0.6964,6.4913-1.4415,9.7516-2.3534c0.7736-0.2164,1.5319-1.0624,2.2067-0.9686c7.1742,0.9967,13.802-2.7219,20.9312-2.251
		c22.2554,1.4703,44.3494-2.3123,66.5946-2.4218c6.0327-0.0297,13.1321-0.0197,19.1451-3.1788
		c0.2821-0.1482,0.6591-0.2247,0.9738-0.1865c7.3402,0.8909,14.3843-1.3618,21.5172-2.2845
		c14.3805-1.8605,28.7772-2.0332,43.2123-1.8802c2.5847,0.0273,5.3652-0.6367,7.502,1.6615
		c0.2719,0.2924,0.9971,0.4115,1.4128,0.285c6.8594-2.0895,14.208-1.0366,21.0416-3.3326c3.1842-1.0699,6.6713-1.3206,9.7855-0.4996
		c8.2142,2.1652,16.838,3.3481,24.5516,6.5151c3.7291,1.5311,8.3734,2.3813,11.7153,5.8042
		c2.8734,2.9432,6.2826-0.4614,9.1735-1.4957c1.8119-0.6483,3.4987-1.384,5.1248-0.6979c8.3695,3.5322,17.087,1.6963,25.6052,1.5425
		c6.6281-0.1194,14.156,4.3771,15.6434,10.9987c1.3134,5.8469,2.5472,11.7123,3.7672,17.5797
		c0.8712,4.1897,4.2405,6.1466,8.3456,4.662c2.101-0.7598,4.2594-0.6339,6.4092-0.7396c14.8357-0.73,29.7244-0.0616,44.2555,2.3898
		c10.6924,1.804,21.2638-0.318,31.74,1.3613c10.2073,1.6367,20.4921,1.3707,30.7119,2.1038
		c12.1721,0.8734,24.2261,3.3037,36.463,4.4763c13.5485,1.2983,26.9105,4.3674,40.6561,2.8816
		c6.1595,4.0573,13.8854,0.234,20.1298,3.9855c0.6373,0.3828,1.8844,0.6702,2.3186,0.3285
		c4.0762-3.2064,8.3049-1.2545,12.4338-0.4366c3.4657,0.6865,6.9321,0.8058,10.4297,0.8285
		c1.3282,0.0085,3.0132-0.3892,3.9272,0.2578c7.2468,5.1287,14.7415,2.229,22.1388,0.8533
		c6.9149-1.2861,13.8687-1.3748,20.8385-1.1975c10.7521,0.2733,21.0337-4.2721,31.8885-2.9629
		c5.3728,0.6479,10.915,1.3782,16.1196-0.2498c11.2468-3.5179,22.9125,0.5457,34.282-2.4773
		c4.1829-1.1123,9.2113,1.02,13.8639,1.5929c5.1187,0.6302,10.0167,1.8994,15.4119,1.6938
		c12.2329-0.4661,24.6796-2.0828,36.6694,2.4453c4.5973,1.7362,6.8293,4.9508,7.1111,9.6294
		c0.2985,4.9556,3.4326,5.8889,7.6406,6.3727c5.3744,0.6179,10.5114-0.8903,14.9006-2.9454
		c8.7666-4.1053,16.9368-1.9398,24.9896,0.7764c7.8569,2.6498,16.1808,5.1206,23.9436,5.4551
		c11.1515,0.4803,22.2794,2.532,33.5459,1.6617c6.9468-0.5365,7.4574,0.4121,7.4598,7.1804
		c0.0065,16.9979-0.1449,33.9978,0.1077,50.9921c0.0658,4.4149-0.9155,5.7867-5.6216,5.7794
		c-99.4869-0.1533-198.9741-0.1185-298.4612-0.1183c-538.5924,0.0013-1077.1848,0.0032-1615.7772,0.0049
		C0.9999,1184.1853,0.9999,1087.5306,0.9999,990.8761z M548.1599,1052.2881c-0.2287,3.6859-3.1436,3.698-6.1882,3.8508
		c1.2164,1.325,2.7612,0.0527,3.3958,1.361c-0.8745,1.3152-2.2493,1.4086-3.5587,1.205c-4.5165-0.7028-7.4372,0.2451-7.455,5.6997
		c-0.0046,1.4097-1.2615,2.7551,0.8199,3.5436c1.8893,0.7158,2.0884-0.8793,2.729-2.0073c1.4068-2.4772,2.8709-5.0183,5.153-0.5647
		c0.4778,0.9324,1.6029,1.1576,2.6279,0.7264c0.9451-0.3976,0.989-1.2131,0.7092-2.0808c-1.0009-3.1034,2.1549-3.819,3.3091-3.7059
		c6.6257,0.6487,2.2462-2.7175,1.5481-4.2435c-0.6559-1.4338-2.0378-2.5358-3.0958-3.7847
		c1.3566,0.1453,2.9932,1.3898,3.8446-0.7867C550.1445,1049.7349,549.6324,1052.8938,548.1599,1052.2881z M930.5383,918.0464
		c-0.6343-5.7486-1.297-10.1896-1.5854-14.6547c-0.9549-14.7845-3.796-29.1953-8.0104-43.3802
		c-1.1531-3.8813-2.8357-4.6239-6.8483-3.4809c-14.1458,4.0297-27.4814,10.4627-41.848,13.8052
		c-5.5018,1.28-5.8983,2.2108-1.5127,5.6191c8.2421,6.4052,15.1461,14.3066,23.791,20.2759
		c8.0284,5.5436,16.3436,10.7106,23.8395,17.0302c2.3929,2.0173,5.1357,3.7024,7.9268,5.1331
		C927.9047,919.2213,930.196,919.8896,930.5383,918.0464z M920.0192,523.4663c2.2166-2.3004,2.0063-6.382,5.0002-7.1552
		c6.506-1.6802,5.5005-6.218,5.0174-10.8187c-0.2426-2.3106-0.3137-4.6399-0.5792-6.9473
		c-1.2364-10.7436-1.4943-21.5584-2.97-32.3232c-0.7263-5.2978-3.7906-8.4958-5.1923-12.9588
		C916.1709,476.6889,922.9805,500.0731,920.0192,523.4663z M607.6571,1069.9773c-8.5663-0.8545-10.9725-0.4965-10.2496,4.8566
		C600.5102,1072.8954,604.4014,1072.8937,607.6571,1069.9773z M540.3057,1074.4359c6.5002,2.5394,9.1603,2.228,11.6059-1.6499
		C548.3747,1076.1689,543.7607,1070.3525,540.3057,1074.4359z M590.6783,1070.3259c-2.9624,0.5574-5.9276,1.101-8.8856,1.6814
		c-0.8502,0.1667-1.6062,0.5935-1.4464,1.6101c0.1797,1.1431,1.6315,2.0289,2.0359,1.5458
		C584.618,1072.4924,588.6489,1073.8306,590.6783,1070.3259z M627.5936,1076.2104c2.2693,0.3398,3.5609-0.4355,3.9641-2.3943
		c0.3325-1.615-0.8305-1.5774-1.8021-1.3097c-1.7893,0.4932-4.3752,0.2233-4.6392,2.6917
		C624.9618,1076.6443,626.8917,1076.0348,627.5936,1076.2104z M444.6818,1069.8619c0.9379,0.2328,1.5766-0.4773,1.6219-1.5781
		c0.0477-1.16-0.22-2.306-1.7857-2.3318c-1.5357-0.0253-1.8692,1.1461-1.9958,2.2598
		C442.3843,1069.4248,443.231,1069.8795,444.6818,1069.8619z M635.2895,1076.6985c0.2707-0.8411,0.5742-1.6812,0.8088-2.54
		c0.282-1.0323,1.2247-2.0645,0.2401-3.1322c-0.2249-0.2439-0.9564-0.2838-1.2975-0.1096
		c-1.2366,0.6312-0.9491,1.9181-1.0975,3.0013C633.7885,1075.0507,633.5469,1076.2379,635.2895,1076.6985z M541.4802,1047.8953
		c-1.095,0.2422-1.6006,0.9475-1.6953,2.0779c-0.1286,1.5364,0.7971,2.0507,2.0615,2.2301
		c1.2575,0.1783,1.2545-0.8414,1.2489-1.5875C543.0867,1049.4694,543.0143,1048.2404,541.4802,1047.8953z M503.3829,1049.7235
		c0.3823-0.3235,1.2839-0.7184,1.4731-1.3326c0.2853-0.9264-0.4276-1.3662-1.4091-1.1556c-0.795,0.1707-1.6208,0.3661-1.5779,1.3921
		C501.8965,1049.2836,502.2365,1049.8276,503.3829,1049.7235z M564.1989,1059.4213c1.1057-1.4739,2.257-2.3705,1.6851-4.2961
		C564.0948,1056.1274,564.0034,1057.4385,564.1989,1059.4213z M576.404,1074.5562c-2.2372-1.1442-3.458-0.4535-4.9336,1.1469
		C573.3937,1076.1002,574.7808,1076.4326,576.404,1074.5562z M618.5577,1075.0026c-2.396-0.8721-4.0638-0.4117-6.8629,0.7665
		C614.6284,1076.2339,616.3954,1076.9862,618.5577,1075.0026z M478.3479,1055.0957c-1.3563,0.5544-2.657,0.7206-2.9895,2.2896
		c-0.0281,0.1327,0.4229,0.3668,0.6754,0.5735C477.5294,1057.8087,478.3822,1057.0842,478.3479,1055.0957z M612.1241,1068.4976
		c2.1113,0.572,3.6077-0.077,5.2211-1.2539C615.2327,1066.4347,613.8251,1067.437,612.1241,1068.4976z M516.9178,1063.3121
		c-0.8858-0.0355-1.0855,0.6282-1.0725,1.2615c0.014,0.679,0.4007,1.2211,1.1906,1.2634c0.8615,0.046,1.144-0.5414,1.0873-1.2227
		C518.068,1063.9509,517.7039,1063.3959,516.9178,1063.3121z M512.6121,1069.5647c1.8525,0.4781,3.1555,1.2057,4.4178-0.7107
		C515.4521,1068.1781,514.2531,1068.3047,512.6121,1069.5647z M471.6615,1042.1195c0.9447,0.0757,1.3759-0.3811,1.3687-1.0664
		c-0.0039-0.3777-0.3577-1.0205-0.6416-1.0737c-0.7054-0.1318-1.202,0.3999-1.2328,1.0833
		C471.1392,1041.431,471.5063,1041.817,471.6615,1042.1195z M527.7289,1066.9717c-0.2411,0.1807-0.7407,0.3667-0.8901,0.7064
		c-0.3127,0.7112,0.0217,1.264,0.8296,1.2446c0.4133-0.0099,1.1078-0.2494,1.1722-0.5094
		C528.9992,1067.772,528.6655,1067.1985,527.7289,1066.9717z M555.9358,1061.8389c0.232-0.3263,0.645-0.6538,0.6768-1.0148
		c0.0422-0.4788-0.401-0.8151-0.8553-0.4679c-0.3111,0.2378-0.4387,0.7157-0.6483,1.0864
		C555.3439,1061.5553,555.579,1061.668,555.9358,1061.8389z M597.3971,1063.8464c0.3577,0.2332,0.6273,0.5325,0.7807,0.4816
		c0.266-0.0884,0.5282-0.3605,0.6539-0.6219c0.0578-0.12-0.211-0.3972-0.3317-0.6033
		C598.1514,1063.338,597.8026,1063.5731,597.3971,1063.8464z M629.5938,1065.1567c-0.1151-0.2823-0.1611-0.7019-0.3631-0.7998
		c-0.1816-0.088-0.5344,0.1775-0.8116,0.287c0.1113,0.2727,0.1563,0.6829,0.3534,0.7781
		C628.9556,1065.5105,629.3008,1065.2632,629.5938,1065.1567z M554.7822,1068.5885c-1.0635-0.3312-1.5384-0.4729-2.0092-0.6271
		c-0.726-0.2378-0.9053,0.3538-0.8655,0.7653c0.0356,0.3699,0.3914,0.8848,0.72,0.9949
		C552.8907,1069.8097,553.3252,1069.3865,554.7822,1068.5885z M579.7662,1076.6885c0.1537-0.0366,0.3074-0.0732,0.4611-0.1097
		c-0.1737-0.2323-0.3288-0.4836-0.5346-0.6827c-0.0504-0.049-0.2667,0.0736-0.4068,0.1173
		C579.4454,1076.2389,579.6049,1076.4642,579.7662,1076.6885z"/>
</g>
</svg>
