<?xml version="1.0" encoding="utf-8"?>
<svg version="1.1" id="Layer_1" xmlns="http://www.w3.org/2000/svg" xmlns:xlink="http://www.w3.org/1999/xlink" x="0px" y="0px"
	 viewBox="0 0 2187.523 1672.373" enable-background="new 0 0 2187.523 1672.373" xml:space="preserve">
<g>
	<path opacity="0.1" enable-background="new    " d="M882.741,39.325c2.666-1.796,5.677-3.646,9.087-2.938
		c5.315,3.483,12.189,7.382,12.243,14.583c2.576-0.091,5.17-0.2,7.763-0.308c0.653-4.916,0.744-10.158,3.555-14.474
		c3.682,2.721,3.99,7.364,4.716,11.518c1.324-1.632,2.684-3.247,4.045-4.843c1.07,5.986,1.868,12.026,2.793,18.03
		c3.718-3.283,5.115-8.017,5.877-12.751c2.666,4.97,5.079,10.103,6.911,15.454c5.75,0.798,9.74-4.825,15.363-4.444
		c1.596,1.85,0.78,4.426,0.998,6.639c3.192-2.322,6.366-4.698,9.468-7.183c0.018,1.324,0.054,2.648,0.109,3.99
		c-1.306,1.161-2.612,2.34-3.882,3.501c1.614,1.832,3.265,3.664,4.916,5.496c-1.669,1.36-3.319,2.721-4.97,4.081
		c-0.127,1.016-0.381,3.065-0.508,4.081c2.376-1.052,4.77-2.104,7.165-3.156c0.181,4.299,0.363,8.598,0.508,12.896
		c6.929-3.882,13.259-9.323,21.186-11.046c1.886,3.247-3.192,4.136-4.807,6.094c1.868,1.614,3.737,3.247,5.623,4.861
		c-4.371,2.63-7.165,6.766-9.704,11.028c-5.079,1.905-10.012,4.208-14.22,7.727c0,1.959,0,3.936,0.018,5.913
		c3.265,0.798,6.512,2.304,9.958,1.977c1.669-2.957,0.544-7.183,3.9-9.16c2.666,1.651,4.226,4.444,5.986,6.965
		c6.185,0.2,12.026,2.158,17.975,3.61c5.532,0.091,14.112-1.125,14.982,6.548c-7.219-2.775-14.874-4.389-22.637-3.882
		c-5.188,0.49-9.758-2.177-14.565-3.519c-4.226,1.143-8.035,5.677-12.661,3.718c-1.814-0.526-3.628-1.106-5.387-1.723
		c-2.612,1.741-5.188,3.519-7.836,5.188l-2.104,0.417c1.56-5.278,5.695-9.051,8.362-13.695c2.485-8.126,7.201-17.05,1.977-25.122
		c-0.58,3.265-1.143,6.53-1.759,9.795c-1.342-4.208-2.158-8.543-2.703-12.915c-0.58,0.762-1.705,2.285-2.267,3.047
		c-1.016-1.868-2.031-3.755-3.029-5.605c-1.796,3.936-3.628,7.854-5.115,11.935c-0.798-3.011-2.177-5.786-3.682-8.471
		c-0.798,6.149-0.725,12.37-0.345,18.556c-0.961-0.871-1.905-1.723-2.848-2.576c-1.161,1.016-2.322,2.05-3.464,3.065
		c-3.7,1.233-6.421,4.027-9.087,6.711c-1.252,1.07-2.503,2.158-3.755,3.229c-1.578-3.065-3.156-6.113-4.734-9.178
		c7.89-8.416,14.166-18.646,16.615-30.019c-5.532,8.561-8.18,20.732-19.281,23.816c-1.85-1.868-3.7-3.718-5.568-5.568
		c-1.542,2.793-2.902,5.677-3.954,8.67c-6.203,3.174-9.976,8.833-11.862,15.418c-1.034-9.65-1.36-20.116,3.954-28.695
		c1.415,0.689,2.811,1.451,4.19,2.267c1.052-2.158,2.104-4.335,3.174-6.494c-2.521-1.197-5.024-2.394-7.527-3.591
		c2.902-5.46,5.478-11.101,8.616-16.433c3.537-2.558,6.094-6.095,7.618-10.194c-4.426,2.503-9.087,4.571-14.021,5.859
		c-1.27-3.628-2.557-7.237-3.845-10.847c-0.453,2.63-0.907,5.242-1.342,7.872c-1.56-1.759-3.12-3.537-4.607-5.351
		C891.194,45.401,888.292,40.649,882.741,39.325z"/>
	<path opacity="0.34" enable-background="new    " d="M898.921,55.051c0.435-2.63,0.889-5.242,1.342-7.872
		c1.288,3.61,2.576,7.219,3.845,10.847c4.934-1.288,9.595-3.356,14.021-5.859c-1.524,4.099-4.081,7.636-7.618,10.194
		c-1.487,0.925-2.975,1.832-4.462,2.739c-0.961-0.345-2.866-0.998-3.827-1.324c-0.018-1.306-0.036-3.918-0.054-5.224
		c-3.356,0.762-6.711,1.524-9.958,2.576c0.707-3.809,1.415-7.618,2.104-11.427C895.801,51.514,897.361,53.291,898.921,55.051z"/>
	<path opacity="0.71" enable-background="new    " d="M892.21,61.127c3.247-1.052,6.602-1.814,9.958-2.576
		c0.018,1.306,0.036,3.918,0.054,5.224c-3.12,2.703-6.203,5.496-8.543,8.924c-2.195,0.417-4.389,0.853-6.566,1.288
		c-1.506,3.555-2.938,7.165-4.208,10.811c1.487,0.562,2.975,1.125,4.498,1.687c-0.29,4.154-0.526,8.289-0.526,12.443
		c0.018,1.034,0.054,3.102,0.073,4.136c-0.399,0.526-1.215,1.56-1.632,2.068c-3.7,1.433-6.838,3.9-9.396,6.893
		c1.632-4.389,3.555-8.67,5.478-12.951c1.161,1.07,2.322,2.14,3.501,3.211c-0.109-2.63-0.181-5.26-0.254-7.89
		c-0.707-0.218-2.14-0.653-2.848-0.871c-0.49-1.778-0.979-3.555-1.451-5.315c-1.034,0-3.12,0.036-4.154,0.036
		c-0.417,4.462-0.707,8.924-1.143,13.386l-0.798,0.163c-1.36-6.838-3.99-13.93-2.14-20.932c1.868-5.841,8.035-8.362,12.298-12.189
		c0.326-0.671,0.979-1.995,1.306-2.666c0.236-0.49,0.689-1.469,0.925-1.977C888.455,63.032,890.251,61.943,892.21,61.127z"/>
	<path opacity="0.22" enable-background="new    " d="M906.049,65.099c1.487-0.907,2.975-1.814,4.462-2.739
		c-3.138,5.333-5.714,10.974-8.616,16.433c2.503,1.197,5.006,2.394,7.527,3.591c-1.07,2.158-2.122,4.335-3.174,6.494
		c-1.379-0.816-2.775-1.578-4.19-2.267c-5.315,8.579-4.988,19.045-3.954,28.695c1.886-6.584,5.659-12.243,11.862-15.418
		c0.327,0.961,0.98,2.884,1.306,3.845c-4.553,5.949-9.269,12.153-8.87,20.097c-1.977,5.206-5.986,9.214-10.067,12.842
		c-1.215-2.285-2.975-4.389-3.446-6.965c0.635-4.027,2.739-7.6,4.498-11.228c-0.236-0.689-0.707-2.05-0.943-2.739
		c3.12-8.997,2.576-18.828,6.24-27.697c-2.467,0.254-4.934,0.526-7.364,0.78c1.632-2.866,3.247-5.768,4.825-8.67
		c-1.814-0.726-3.628-1.451-5.423-2.177c0.961-1.759,1.923-3.537,2.957-5.278c2.34-3.428,5.423-6.221,8.543-8.924
		C903.183,64.102,905.088,64.755,906.049,65.099z"/>
	<path opacity="0.44" enable-background="new    " d="M877.3,69.471c2.612-1.578,5.405-2.811,8.416-3.464
		c-0.326,0.671-0.979,1.995-1.306,2.666c-4.263,3.827-10.43,6.348-12.298,12.189c-1.85,7.001,0.78,14.094,2.14,20.932
		c-2.068-0.2-4.135-0.435-6.167-0.707c-0.834-6.711-2.902-13.15-5.242-19.463c-0.472,3.374-0.998,6.729-1.578,10.067
		c-1.07,3.555-1.85,7.183-2.412,10.847c-0.889,0.181-1.741,0.363-2.594,0.526c0.889-5.768-0.29-11.482-2.521-16.796
		c1.905,2.013,3.845,4.045,5.786,6.04c-0.018-5.351-0.145-10.702-0.435-16.034C864.494,72.282,871.731,73.044,877.3,69.471z"/>
	<path opacity="0.34" enable-background="new    " d="M887.113,73.987c2.177-0.435,4.371-0.871,6.566-1.288
		c-1.034,1.741-1.995,3.519-2.957,5.278c1.796,0.726,3.61,1.451,5.423,2.177c-1.578,2.902-3.192,5.804-4.825,8.67
		c-1.85,3.192-3.519,6.53-4.444,10.103c0-4.154,0.236-8.289,0.526-12.443c-1.524-0.562-3.011-1.125-4.498-1.687
		C884.174,81.152,885.607,77.542,887.113,73.987z"/>
	<path opacity="0.3" enable-background="new    " d="M919.49,96.787c11.101-3.084,13.749-15.254,19.281-23.816
		c-2.449,11.373-8.725,21.603-16.615,30.019c1.578,3.065,3.156,6.113,4.734,9.178c-2.122,2.304-3.845,4.934-5.587,7.509
		c-2.358,3.628-5.496,6.693-9.45,8.453c2.848-7.818,6.566-15.653,5.169-24.233c-1.034,3.936-2.303,7.8-4.135,11.427
		c-0.363-3.882-0.472-7.836-1.614-11.59c-0.326-0.961-0.979-2.884-1.306-3.845c1.052-2.993,2.412-5.877,3.954-8.67
		C915.79,93.069,917.64,94.919,919.49,96.787z"/>
	<path opacity="0.26" enable-background="new    " d="M853.194,79.556c1.233-2.104,3.864-2.358,5.895-3.283
		c0.29,5.333,0.417,10.684,0.435,16.034c-1.941-1.995-3.882-4.027-5.786-6.04c2.231,5.315,3.41,11.028,2.521,16.796
		c-3.954,0.58-7.927,1.034-11.826,1.941c-7.328,1.36-7.473,9.686-9.124,15.418c-0.907-0.925-1.796-1.85-2.684-2.775
		c-1.052,1.705-2.086,3.392-3.12,5.097c-6.24-0.327-10.647,3.972-12.679,9.523c6.856-1.379,13.676-3.356,19.535-7.31
		c0.925,0.018,2.775,0.073,3.7,0.091c1.379,7.273-3.138,13.967-9.686,16.796c-1.107-1.197-2.177-2.394-3.247-3.591
		c-0.326,1.252-0.998,3.755-1.324,5.006c-3.102,0.163-6.24,0.417-9.341,0.073c-0.78-2.285-1.469-4.589-2.086-6.911
		c0.054,3.319,0.054,6.639,0.308,9.976c-5.169-3.483-2.685-10.919-1.125-15.78c5.206-7.237,9.069-16.179,17.359-20.442
		c4.063-2.394,6.113-6.856,8.979-10.411c3.827-0.762,8.289-1.125,10.937-4.39C852.958,90.384,849.784,84.163,853.194,79.556z"/>
	<path opacity="0.23" enable-background="new    " d="M950.071,91.654c1.487-4.081,3.319-7.999,5.115-11.935
		c0.998,1.85,2.013,3.737,3.029,5.605c0.562-0.762,1.687-2.285,2.267-3.047c0.544,4.371,1.36,8.706,2.703,12.915
		c0.617-3.265,1.179-6.53,1.759-9.795c5.224,8.072,0.508,16.996-1.977,25.122c-2.666,4.643-6.802,8.416-8.362,13.695
		c-3.12,0.653-6.312,0.726-9.414,0.163c2.086-7.618,10.974-9.777,13.876-16.814c1.161-2.938,0.998-6.185,1.252-9.287
		c-2.739,2.757-5.496,5.496-8.325,8.162C950.942,101.558,950.216,96.624,950.071,91.654z"/>
	<path opacity="0.89" enable-background="new    " d="M861.266,91.69c0.58-3.337,1.106-6.693,1.578-10.067
		c2.34,6.312,4.408,12.751,5.242,19.463c2.031,0.272,4.099,0.508,6.167,0.707l0.798-0.163c0.435-4.462,0.726-8.924,1.143-13.386
		c1.034,0,3.12-0.036,4.154-0.036c0.472,1.759,0.961,3.537,1.451,5.315c0.707,0.218,2.14,0.653,2.848,0.871
		c0.073,2.63,0.145,5.26,0.254,7.89c-1.179-1.07-2.34-2.14-3.501-3.211c-1.923,4.281-3.845,8.561-5.478,12.951
		c-0.689,2.576-1.252,5.169-1.796,7.763c-1.215-2.431-2.086-5.115-3.936-7.147c-3.21,0.925-4.099,4.335-5.677,6.856
		c1.814-0.163,3.628-0.326,5.478-0.49c-1.886,2.068-3.773,4.117-5.623,6.203c5.714,0.653,11.464,1.106,17.141,2.068
		c-3.755,0.417-7.419,1.433-10.774,3.156c-3.628,7.654,3.265,14.275,5.55,21.24c8.471-0.036,14.837-6.258,22.727-8.307
		c2.358,1.36,4.734,2.703,7.11,4.045c3.319-3.9,6.076-8.507,10.448-11.337c5.895-2.775,12.098-4.879,17.739-8.199
		c-0.073,3.301-0.127,6.621-0.163,9.94c3.882,0.29,7.781,0.617,11.699,0.889c-2.703,1.923-5.423,3.827-8.507,5.079
		c-7.364,2.811-13.06,8.471-19.608,12.679c-1.052-3.737-2.104-7.473-3.156-11.191c-5.079,3.065-7.854,8.18-7.618,14.13
		c-3.555,0.2-7.092,0.417-10.629,0.635c0.145-2.122,0.308-4.226,0.49-6.348c-5.115,1.832-10.502,2.703-15.889,3.229
		c-0.762,5.188-4.444,8.307-9.595,8.634c-1.451,1.578-2.866,3.174-4.281,4.77c-2.648,0.091-5.315,0.181-7.945,0.272
		c-0.599-9.178,7.364-15.291,10.067-23.417c-0.852-4.516-3.047-8.797-5.895-12.37c-3.9-1.288-8.09-1.016-12.116-1.288
		c-0.907,4.916-1.27,9.922-2.267,14.837c-4.045,3.646-8.706-0.181-12.243-2.431c-1.27,3.446-2.267,6.965-3.065,10.557
		c-2.539-1.778-5.949-2.793-8.453-0.308c-0.979,5.859,3.356,10.883,3.555,16.597c-0.526,4.444-5.351,4.897-8.743,5.949
		c-1.886-4.535-3.737-9.069-5.623-13.586c-6.221,5.877-1.378,16.542-9.232,21.385c1.433-6.802,2.467-13.658,3.501-20.533
		c0.78-1.669,1.578-3.319,2.431-4.952c1.941-0.671,3.882-1.342,5.841-2.013c0.345-3.337,0.689-6.693,1.034-10.031
		c2.811,0.635,5.605,1.252,8.434,1.868c3.319-4.643,7.745-8.634,13.767-8.906c1.397,2.177,2.83,4.335,4.281,6.457
		c1.542-3.356,3.319-6.965,0.707-10.303c-3.174-5.224-2.721-11.863,0.961-16.706c1.723,2.612,3.41,5.224,5.115,7.836
		c5.097-4.299,5.823-10.865,7.582-16.851c2.884-3.845,7.908-7.255,5.043-12.679C862.971,97.023,862.064,94.375,861.266,91.69
		 M817.824,162.303c-0.29,5.26,1.941,10.139,6.602,12.788c0.163-4.136-0.526-8.199-2.594-11.808
		C820.835,163.047,818.822,162.557,817.824,162.303z"/>
	<path opacity="0.4" enable-background="new    " d="M946.389,83.183c1.506,2.684,2.884,5.46,3.682,8.471
		c0.145,4.97,0.871,9.904,1.923,14.783c2.83-2.666,5.587-5.405,8.325-8.162c-0.254,3.102-0.091,6.348-1.252,9.287
		c-2.902,7.038-11.79,9.196-13.876,16.814c-3.138-0.508-6.221-1.106-9.305-1.669c0.635-2.775-0.054-6.621,3.047-8.108
		c3.61-1.778,7.691-2.195,11.572-3.192c-6.095-3.464-13.205-2.068-19.862-2.467c2.666-2.684,5.387-5.478,9.087-6.711
		c1.143-1.016,2.304-2.05,3.464-3.065c0.943,0.853,1.886,1.705,2.848,2.576C945.664,95.554,945.591,89.332,946.389,83.183z"/>
	<path opacity="0.08" enable-background="new    " d="M891.321,88.824c2.43-0.254,4.897-0.526,7.364-0.78
		c-3.664,8.87-3.12,18.701-6.24,27.697c-1.633-4.317-3.591-8.489-5.496-12.679c-0.018-1.034-0.054-3.102-0.073-4.136
		C887.802,95.354,889.471,92.017,891.321,88.824z"/>
	<path opacity="0.31" enable-background="new    " d="M858.853,102.537c0.562-3.664,1.342-7.292,2.412-10.847
		c0.798,2.684,1.705,5.333,2.521,8.017C862.553,100.415,860.086,101.83,858.853,102.537z"/>
	<path opacity="0.7" enable-background="new    " d="M858.853,102.537c1.233-0.707,3.7-2.122,4.934-2.83
		c2.866,5.423-2.158,8.833-5.043,12.679c-1.759,5.986-2.485,12.552-7.582,16.851c-1.705-2.612-3.392-5.224-5.115-7.836
		c-3.682,4.843-4.135,11.482-0.961,16.706c-1.669,1.288-3.338,2.576-4.988,3.845c-6.022,0.272-10.448,4.263-13.767,8.906
		c-2.83-0.617-5.623-1.233-8.434-1.868c-0.345,3.337-0.689,6.693-1.034,10.031c-1.959,0.671-3.9,1.342-5.841,2.013
		c-0.852,1.632-1.651,3.283-2.431,4.952c0.163-2.249,0.29-4.48,0.435-6.729c2.177-0.617,4.353-1.233,6.548-1.832
		c0.272-3.319,0.036-6.639-0.689-9.885l-0.2-1.143c-0.254-3.337-0.254-6.657-0.308-9.976c0.617,2.322,1.306,4.625,2.086,6.911
		c3.102,0.345,6.24,0.091,9.341-0.073c0.326-1.252,0.998-3.755,1.324-5.006c1.07,1.197,2.14,2.394,3.247,3.591
		c6.548-2.83,11.064-9.523,9.686-16.796c0.326-3.936,1.288-7.8,2.177-11.645c1.324,0.961,2.648,1.905,3.99,2.866
		c4.353-3.138,8.87-6.04,13.568-8.652c-1.651-0.798-3.301-1.56-4.952-2.322c-3.41-0.798-6.947-0.798-10.411-0.29
		c3.9-0.907,7.872-1.36,11.826-1.941C857.112,102.9,857.964,102.718,858.853,102.537z"/>
	<path opacity="0.51" enable-background="new    " d="M844.433,105.004c3.464-0.508,7.001-0.508,10.411,0.29
		c-4.208,2.558-8.833,5.369-8.616,10.974c-1.342-0.961-2.666-1.905-3.99-2.866c-0.889,3.845-1.85,7.709-2.177,11.645
		c-0.925-0.018-2.775-0.073-3.7-0.091c-5.859,3.954-12.679,5.931-19.535,7.31c2.031-5.55,6.439-9.849,12.679-9.523
		c1.034-1.705,2.068-3.392,3.12-5.097c0.889,0.925,1.778,1.85,2.684,2.775C836.96,114.69,837.105,106.364,844.433,105.004z"/>
	<path opacity="0.66" enable-background="new    " d="M886.949,103.063c1.905,4.19,3.864,8.362,5.496,12.679
		c0.236,0.689,0.707,2.05,0.943,2.739c-1.76,3.628-3.864,7.201-4.498,11.228c0.472,2.576,2.231,4.68,3.446,6.965
		c4.081-3.628,8.09-7.636,10.067-12.842c4.081,1.034,6.929,4.081,9.94,6.784c6.058,0.073,10.212-4.97,8.96-10.937
		c1.741-2.576,3.465-5.206,5.587-7.509c1.252-1.07,2.503-2.158,3.755-3.229c6.657,0.399,13.767-0.998,19.862,2.467
		c-3.882,0.998-7.963,1.415-11.572,3.192c-3.102,1.487-2.412,5.333-3.047,8.108c3.084,0.562,6.167,1.161,9.305,1.669
		c3.102,0.562,6.294,0.49,9.414-0.163l2.104-0.417c5.315-0.834,10.738-0.707,16.125-0.508c1.578,1.215,3.156,2.431,4.752,3.682
		c-9.885,2.83-20.424-1.161-29.983,3.011c-1.995-0.58-3.99-1.179-5.949-1.759c1.85,3.283,3.755,6.548,5.714,9.795
		c-0.381,0.181-1.143,0.508-1.524,0.689c-3.918-0.272-7.818-0.599-11.699-0.889c0.036-3.319,0.091-6.639,0.163-9.94
		c-5.641,3.319-11.844,5.423-17.739,8.199c-4.371,2.83-7.128,7.437-10.448,11.337c-2.376-1.342-4.752-2.684-7.11-4.045
		c-7.89,2.05-14.257,8.271-22.727,8.307c-2.285-6.965-9.178-13.586-5.55-21.24c0.689,2.539,1.378,5.079,2.068,7.636
		c3.192,0.671,6.403,1.342,9.613,2.013c0.798-4.081,1.542-8.18,2.213-12.28c-0.78-0.127-2.34-0.399-3.12-0.526
		c-5.677-0.961-11.427-1.415-17.141-2.068c1.85-2.086,3.737-4.136,5.623-6.203c-1.85,0.163-3.664,0.326-5.478,0.49
		c1.578-2.521,2.467-5.931,5.677-6.856c1.85,2.032,2.721,4.716,3.936,7.147c4.335-0.363,9.45,0.236,12.697-3.319
		c1.052-3.809-0.834-7.618-1.505-11.337C885.734,104.623,886.55,103.589,886.949,103.063 M922.954,130.235
		c5.006-2.811,5.333-9.214,5.804-14.257C922.755,117.828,923.825,125.301,922.954,130.235z"/>
	<path opacity="0.45" enable-background="new    " d="M911.273,103.734c1.143,3.755,1.252,7.709,1.614,11.59
		c1.832-3.628,3.102-7.491,4.135-11.427c1.397,8.579-2.322,16.415-5.169,24.233c3.954-1.759,7.092-4.825,9.45-8.453
		c1.252,5.968-2.902,11.01-8.96,10.937c-3.011-2.703-5.859-5.75-9.94-6.784C902.004,115.887,906.72,109.684,911.273,103.734z"/>
	<path opacity="0.39" enable-background="new    " d="M854.845,105.294c1.651,0.762,3.301,1.524,4.952,2.322
		c-4.698,2.612-9.214,5.514-13.568,8.652C846.011,110.663,850.636,107.852,854.845,105.294z"/>
	<path opacity="0.37" enable-background="new    " d="M875.921,112.024c2.557-2.993,5.695-5.46,9.396-6.893
		c0.671,3.718,2.557,7.527,1.505,11.337c-3.247,3.555-8.362,2.957-12.697,3.319C874.67,117.193,875.232,114.599,875.921,112.024
		 M881.345,110.119c-1.614,2.231-1.179,3.501,1.27,3.827C884.211,111.715,883.775,110.445,881.345,110.119z"/>
	<path opacity="0.11" enable-background="new    " d="M881.345,110.119c2.431,0.327,2.866,1.596,1.27,3.827
		C880.166,113.62,879.73,112.35,881.345,110.119z"/>
	<path opacity="0.42" enable-background="new    " d="M922.954,130.235c0.871-4.934-0.2-12.407,5.804-14.257
		C928.287,121.02,927.961,127.423,922.954,130.235z"/>
	<path opacity="0.27" enable-background="new    " d="M969.933,120.331c4.625,1.959,8.434-2.576,12.661-3.718
		c4.807,1.342,9.378,4.009,14.565,3.519c7.763-0.508,15.418,1.106,22.637,3.882c6.385,2.793,11.21,8.199,17.522,11.228
		c1.633,0.181,3.265,0.345,4.934,0.508c-0.798,0.326-2.412,0.961-3.211,1.288c2.757,4.716,6.385,8.797,10.448,12.443
		c3.355,3.011,6.058,6.802,6.929,11.3c-11.482-4.825-14.565-21.984-28.623-22.165l-0.943-0.163
		c-1.904-2.177-2.739-6.185-6.167-6.312c-5.968-1.034-12.207-0.726-17.921-2.92c-9.541-3.573-19.608-7.219-29.928-5.931
		c-5.387-0.2-10.811-0.327-16.125,0.508c2.648-1.669,5.224-3.446,7.836-5.188C966.305,119.224,968.119,119.805,969.933,120.331z"/>
	<path opacity="0.51" enable-background="new    " d="M972.835,123.287c10.321-1.288,20.388,2.358,29.928,5.931
		c5.714,2.195,11.953,1.886,17.921,2.92c3.428,0.127,4.263,4.136,6.167,6.312l-2.703-0.435c-6.548-1.143-12.987-2.92-19.626-3.573
		c-3.882,1.995-7.963,3.664-12.316,4.19c-1.85-3.555-3.084-7.618-6.004-10.484c-2.431-1.923-5.786-1.252-8.616-1.179
		C975.991,125.718,974.413,124.503,972.835,123.287z"/>
	<path opacity="0.79" enable-background="new    " d="M977.587,126.97c2.83-0.073,6.185-0.744,8.616,1.179
		c2.92,2.866,4.154,6.929,6.004,10.484c-6.747,0-13.967,0.127-19.245,5.006c-2.558-0.871-5.079-1.814-7.546-2.848
		c2.576-1.143,5.151-2.249,7.763-3.356c-4.045-4.317-9.432-6.657-15.236-7.382c-2.612,3.773-6.203,6.566-10.575,7.963
		c-1.959-3.247-3.864-6.512-5.714-9.795c1.959,0.58,3.954,1.179,5.949,1.759C957.163,125.809,967.702,129.799,977.587,126.97z"/>
	<path opacity="0.3" enable-background="new    " d="M870.734,130.434c3.356-1.723,7.02-2.739,10.774-3.156
		c0.78,0.127,2.34,0.399,3.12,0.526c-0.671,4.099-1.415,8.199-2.213,12.28c-3.21-0.671-6.421-1.342-9.613-2.013
		C872.112,135.513,871.423,132.973,870.734,130.434z"/>
	<path opacity="0.92" enable-background="new    " d="M992.207,138.633c4.353-0.526,8.434-2.195,12.316-4.19
		c6.639,0.653,13.078,2.431,19.626,3.573c0.508,2.394,1.07,4.789,1.614,7.183c-1.251,0.018-3.773,0.054-5.024,0.073
		c-6.911,0.054-14.039-0.381-20.605,2.231c7.364,3.61,15.309,6.276,20.642,12.969c3.464,3.029,7.147,5.822,10.774,8.688
		c-2.122,0.145-4.245,0.29-6.349,0.417c2.485,3.718,4.535,7.818,7.709,11.046c3.555,1.252,7.382,1.451,11.137,1.923
		c-3.736,2.031-7.255,4.571-9.323,8.398c9.051-3.61,18.483-6.348,28.35-5.931l0.744,0.181c5.986,8.96,15.98,13.513,25.485,17.794
		c5.75,1.56,11.79,1.016,17.685,1.106c-0.236,1.016-0.707,3.029-0.943,4.045c4.698,1.469,8.017-1.034,9.867-5.242
		c1.143,1.379,2.304,2.757,3.483,4.136c3.61-5.931,9.668-9.541,14.946-13.803c-0.127,1.632-0.272,3.283-0.363,4.934
		c1.27,0.58,2.558,1.179,3.864,1.759c-6.04,2.612-10.647,7.001-12.443,13.477c-3.573,2.394-7.945,2.811-11.971,3.954
		c-1.723,1.342-3.356,2.757-4.916,4.263c-4.734,0.091-9.142,1.705-12.933,4.48c0.798,1.56,1.614,3.12,2.431,4.68
		c-0.671,1.07-1.324,2.158-1.977,3.247c0.98,0.635,2.92,1.923,3.882,2.558c-2.358,2.431-4.897,4.643-7.582,6.675
		c4.263,2.83,8.833,5.55,11.881,9.777c-0.744,2.285-2.013,4.353-3.174,6.439c-3.882-1.27-7.854-2.267-11.935-2.703
		c4.498,5.224,9.232,10.248,13.495,15.672c2.158,2.938,5.369,4.716,8.761,5.949c0.943,1.741,1.886,3.464,2.866,5.206
		c-3.954-0.453-8.126-0.2-11.826-1.796c-5.895-5.623-9.16-13.604-15.799-18.556c-1.886-2.068-6.439-4.027-4.408-7.364
		c3.229-7.473,4.752-15.49,6.457-23.399c1.27-0.834,2.539-1.687,3.809-2.521c-4.353-1.632-6.838,1.868-8.888,5.079
		c-7.183-2.231-14.13-5.097-20.896-8.362c5.568-1.161,12.643-1.669,14.565-8.108c2.158,0.816,4.353,1.651,6.566,2.467
		c1.505-1.632,3.029-3.265,4.589-4.897c-2.249-2.195-4.408-4.535-7.02-6.24c-4.009,0.979-6.856,4.553-10.847,5.714
		c-4.861,1.469-9.051,4.389-12.788,7.763c-1.687-5.024-3.12-10.139-4.19-15.327c-1.633-0.961-3.247-1.886-4.843-2.83
		c0.163-3.628,1.669-7.618-0.163-11.028c-4.771-2.449-9.994,7.165-13.803,1.179c-4.48-5.133-10.847-7.673-17.177-9.65
		c1.233-1.632,2.485-3.283,3.718-4.916c-5.786-3.646-11.899,4.244-18.048,0.49c-3.9-4.081-1.07-9.668,0.907-13.894
		c-4.68,0.49-9.505,1.143-14.076-0.272c-2.231-0.236-4.045-2.394-3.192-4.625c0.653-3.809,1.741-7.546,2.177-11.391
		c-3.084-0.29-6.076,0.635-9.106,0.871c-1.995-3.192-2.068-8.307-6.983-8.344C978.24,138.76,985.459,138.633,992.207,138.633z"/>
	<path opacity="0.53" enable-background="new    " d="M840.098,141.952c1.651-1.27,3.319-2.558,4.988-3.845
		c2.612,3.337,0.834,6.947-0.707,10.303C842.928,146.287,841.495,144.129,840.098,141.952z"/>
	<path opacity="0.82" enable-background="new    " d="M1024.149,138.016l2.703,0.435l0.943,0.163
		c4.263,3.247,8.144,6.929,11.971,10.665c-0.562,2.866-1.125,5.75-1.741,8.616c1.524,2.14,3.065,4.299,4.607,6.457
		c-3.737-0.018-7.491-0.163-11.21-0.327c2.775,4.226,5.442,9.214,10.448,11.137c3.755,0.925,7.636,1.106,11.482,1.542
		c-1.016,1.977-2.013,3.954-3.029,5.931c4.371-0.018,8.634,0.943,12.751,2.376c-9.867-0.417-19.299,2.322-28.35,5.931
		c2.068-3.827,5.587-6.367,9.323-8.398c-3.755-0.472-7.582-0.671-11.137-1.923c-3.174-3.229-5.224-7.328-7.709-11.046
		c2.104-0.127,4.226-0.272,6.349-0.417c-3.628-2.866-7.31-5.659-10.774-8.688c2.557,0.236,5.151,0.472,7.727,0.707
		c-1.651-2.013-3.283-4.027-4.897-6.04c0.671-1.524,1.342-3.029,2.031-4.535c-1.651-1.778-3.283-3.555-4.897-5.333
		c1.252-0.018,3.773-0.054,5.024-0.073C1025.219,142.804,1024.657,140.41,1024.149,138.016z"/>
	<path opacity="0.45" enable-background="new    " d="M1027.794,138.614c14.057,0.181,17.141,17.34,28.623,22.165
		c0.707,0.326,2.086,0.998,2.775,1.324c1.487,4.607,1.578,9.65,3.591,14.075c5.26,6.276,12.643,10.339,20.134,13.386
		c13.06,7.763,28.405,2.884,42.081-0.181c5.659-1.941,10.901-5.315,17.014-5.895c0.58,0.254,1.777,0.762,2.376,1.016
		c-2.05,1.505-4.063,3.029-6.149,4.444c-11.464,6.639-24.904,8.072-37.855,8.688c-11.318-1.505-23.417-3.61-32.014-11.79
		c-7.292-5.442-15.345-11.119-17.993-20.351c-1.723-6.439-5.732-11.808-10.611-16.216
		C1035.939,145.543,1032.057,141.861,1027.794,138.614z"/>
	<path opacity="0.6" enable-background="new    " d="M1000.133,147.502c6.566-2.612,13.695-2.177,20.605-2.231
		c1.614,1.778,3.247,3.555,4.897,5.333c-0.689,1.505-1.36,3.011-2.031,4.535c1.614,2.013,3.247,4.027,4.897,6.04
		c-2.576-0.236-5.17-0.472-7.727-0.707C1015.442,153.778,1007.498,151.112,1000.133,147.502z"/>
	<path opacity="0.48" enable-background="new    " d="M814.885,147.539c0.726,3.247,0.961,6.566,0.689,9.885
		c-2.195,0.599-4.371,1.215-6.548,1.832c-0.145,2.249-0.272,4.48-0.435,6.729c-1.034,6.874-2.068,13.731-3.501,20.533
		c-1.959,3.174-3.737,6.457-5.514,9.74c-1.578,0.163-4.734,0.508-6.312,0.671c5.859-8.126,12.116-16.941,11.554-27.48
		c0.453-4.136,0.508-8.416,1.977-12.334C809.861,154.25,812.945,151.329,814.885,147.539z"/>
	<path opacity="0.67" enable-background="new    " d="M1039.766,149.28c4.879,4.408,8.888,9.777,10.611,16.216
		c2.648,9.232,10.702,14.91,17.993,20.351c-1.143-0.163-3.41-0.49-4.553-0.653l-0.744-0.181c-4.117-1.433-8.38-2.394-12.751-2.376
		c1.016-1.977,2.013-3.954,3.029-5.931c-3.845-0.435-7.727-0.617-11.482-1.542c-5.006-1.923-7.672-6.911-10.448-11.137
		c3.718,0.163,7.473,0.308,11.21,0.327c-1.542-2.158-3.083-4.317-4.607-6.457C1038.641,155.03,1039.203,152.146,1039.766,149.28z"/>
	<path opacity="0.11" enable-background="new    " d="M1049.488,149.479c7.437,2.158,15.907-2.63,22.292,2.92
		c0.907,3.337,2.83,6.221,4.97,8.906c1.016,0.417,3.047,1.252,4.045,1.669c-1.886,0.762-3.755,1.542-5.623,2.322
		c2.957,2.032,6.294,1.088,9.414-0.036c1.977,1.759,2.902,4.081,2.92,6.711c6.657,2.394,10.593,8.307,15.508,12.969
		c6.82,0.998,13.042-3.283,19.88-2.811c-6.439,2.848-12.57,6.766-19.626,7.926c-6.784-0.181-13.549-1.832-20.351-0.49
		c-7.491-3.047-14.874-7.11-20.134-13.386c-2.013-4.426-2.104-9.468-3.591-14.075c-0.689-0.326-2.068-0.998-2.775-1.324
		C1055.546,156.281,1052.844,152.49,1049.488,149.479z"/>
	<path opacity="0.81" enable-background="new    " d="M838.375,155.084c2.503-1.796,4.861,2.666,2.63,4.263
		C838.484,161.088,836.162,156.698,838.375,155.084z"/>
	<path opacity="0.26" enable-background="new    " d="M817.824,162.303c0.998,0.254,3.011,0.744,4.009,0.979
		c2.068,3.61,2.757,7.673,2.594,11.808C819.765,172.443,817.534,167.563,817.824,162.303z"/>
	<path opacity="0.21" enable-background="new    " d="M801.644,167.745c0.798,0.435,2.376,1.27,3.174,1.705
		c0.562,10.538-5.695,19.354-11.554,27.48c-2.884,1.143-5.804,2.231-8.706,3.265c3.319-7.219,12.516-10.484,14.946-18.429
		C800.357,177.122,800.683,172.388,801.644,167.745z"/>
	<path opacity="0.13" enable-background="new    " d="M1132.417,180.151c1.07-0.599,3.192-1.796,4.244-2.394
		c9.214,1.524,18.066,5.061,26.573,8.924c0.435-0.472,1.324-1.415,1.76-1.868c5.387,4.136,11.101,7.872,16.234,12.389
		c0.036,0.562,0.091,1.687,0.127,2.249c7.944-1.487,13.096,6.729,17.703,11.881c-2.122,8.235,5.242,14.601,3.845,22.782
		c2.213-1.07,4.462-2.122,6.729-3.138c0.599,2.848,0.853,5.75,0.943,8.652c2.213-0.363,4.39-0.726,6.657-1.052l-0.58,1.669
		c-1.179,3.464-2.83,6.729-4.625,9.904c-2.322,1.306-4.607,2.666-6.856,4.045c-4.77,1.324-9.414,2.957-14.112,4.462
		c-1.342-6.294-1.868-12.86,0.508-18.973c1.85,4.172,3.755,8.326,6.113,12.262c0.78-5.387-1.342-10.484-2.322-15.672
		c-1.288-5.895,3.791-11.754,0.889-17.485c-2.394-6.802-8.852-10.611-15.091-13.368c0.635-1.016,1.288-2.032,1.959-3.029
		c-4.498-1.524-9.015-3.011-13.513-4.48c-2.721-3.718-5.569-7.709-9.795-9.795c-4.027-1.524-8.416-1.614-12.606-2.322
		c-0.707-0.326-2.104-0.961-2.811-1.288c-0.599-0.254-1.796-0.762-2.376-1.016C1138.838,182.256,1135.646,181.113,1132.417,180.151z
		"/>
	<path opacity="0.34" enable-background="new    " d="M1122.894,182.129c3.065-1.052,6.294-1.651,9.523-1.977
		c3.229,0.961,6.421,2.104,9.595,3.337c-6.113,0.58-11.355,3.954-17.014,5.895c-13.676,3.065-29.021,7.945-42.081,0.181
		c6.802-1.342,13.568,0.308,20.351,0.49C1110.324,188.894,1116.455,184.976,1122.894,182.129z"/>
	<path opacity="0.73" enable-background="new    " d="M1063.817,185.194c1.143,0.163,3.41,0.49,4.553,0.653
		c8.598,8.18,20.696,10.284,32.014,11.79c12.951-0.617,26.391-2.05,37.855-8.688c6.747-3.065,17.195,3.41,12.987,11.046
		c-4.335-2.285-9.595-4.698-13.386-0.073c-1.306-0.58-2.594-1.179-3.864-1.759c0.091-1.651,0.236-3.301,0.363-4.934
		c-5.278,4.263-11.336,7.872-14.946,13.803c-1.179-1.379-2.34-2.757-3.483-4.136c-1.85,4.208-5.169,6.711-9.867,5.242
		c0.236-1.016,0.708-3.029,0.943-4.045c-5.895-0.091-11.935,0.453-17.685-1.106C1079.797,198.707,1069.803,194.154,1063.817,185.194
		z"/>
	<path opacity="0.63" enable-background="new    " d="M1138.24,188.949c2.086-1.415,4.099-2.938,6.149-4.444
		c0.707,0.326,2.104,0.961,2.811,1.288c3.464,2.104,6.911,4.263,10.411,6.312c0.109,1.415,0.218,2.848,0.345,4.281
		c1.905,1.542,3.827,3.102,5.768,4.662c-0.671,0.599-2.013,1.814-2.684,2.412c6.004,6.729,1.705,15.672,2.249,23.598
		c-3.356,2.322-7.745,2.068-11.554,2.993c0.254-0.472,0.78-1.397,1.034-1.868c2.14-2.902,3.229-6.258,3.41-9.849
		c0.218-0.653,0.635-1.959,0.834-2.612c-4.027-1.125-8.035-2.195-12.062-3.229c-0.381-2.485-0.78-4.952-1.143-7.4
		c-6.421,2.412-11.046,7.527-15.907,12.117c-0.617-0.943-1.886-2.848-2.503-3.809c1.796-6.475,6.403-10.865,12.443-13.477
		c3.791-4.625,9.051-2.213,13.386,0.073C1155.435,192.359,1144.987,185.883,1138.24,188.949z"/>
	<path opacity="0.44" enable-background="new    " d="M1147.2,185.793c4.19,0.707,8.579,0.798,12.606,2.322
		c4.226,2.086,7.074,6.076,9.795,9.795c0.998,2.485,1.923,5.006,2.811,7.546c-2.721,6.766-2.539,14.148-2.83,21.295
		c2.503-0.326,4.988-0.653,7.527-0.961c0.272,4.281,1.814,8.09,6.457,8.906c-0.018,1.778-0.018,3.573,0,5.387
		c-2.521-2.231-5.006-4.462-7.491-6.693c-2.521,2.304-5.042,4.607-7.437,7.02c0.236,0.798,0.725,2.431,0.961,3.247
		c0.635,2.068,1.379,4.136,2.122,6.203c-2.394,2.757-4.353,5.841-5.986,9.087c-0.671,0.417-2.05,1.252-2.721,1.669
		c0.925,0.979,1.868,1.977,2.848,2.975c-2.031,0.399-4.045,0.78-6.058,1.179c-1.197,1.632-2.394,3.265-3.573,4.897
		c-0.671-0.653-1.977-1.977-2.648-2.63c1.324-3.61,2.576-7.237,3.809-10.865c2.412,0.453,4.843,0.907,7.292,1.379
		c0-7.691,5.224-16.542-0.145-23.29c-0.889,1.578-1.796,3.138-2.757,4.643c-5.423,0.889-8.997-4.226-10.049-8.852
		c3.809-0.925,8.198-0.671,11.554-2.993c-0.544-7.926,3.755-16.869-2.249-23.598c0.671-0.599,2.013-1.814,2.684-2.412
		c-1.941-1.56-3.864-3.12-5.768-4.662c-0.127-1.433-0.236-2.866-0.345-4.281C1154.111,190.055,1150.664,187.897,1147.2,185.793z"/>
	<path opacity="0.24" enable-background="new    " d="M1169.601,197.909c4.498,1.469,9.015,2.957,13.513,4.48
		c-0.671,0.998-1.324,2.013-1.959,3.029c6.24,2.757,12.697,6.566,15.091,13.368c2.902,5.732-2.177,11.59-0.889,17.485
		c0.979,5.188,3.102,10.285,2.322,15.672c-2.358-3.936-4.263-8.09-6.113-12.262c-2.376,6.113-1.85,12.679-0.508,18.973
		c-1.814,0.363-3.609,0.689-5.387,0.979c-3.501-2.231-5.931-5.605-7.836-9.214c2.721-0.635,5.442-1.233,8.198-1.832
		c-3.464-3.519-6.82-7.128-10.049-10.865c0.091,3.41,0.145,6.802,0.199,10.212c-2.231-1.379-4.462-2.757-6.584-4.281
		c-0.236-0.816-0.725-2.449-0.961-3.247c2.394-2.412,4.915-4.716,7.437-7.02c2.485,2.231,4.97,4.462,7.491,6.693
		c-0.018-1.814-0.018-3.61,0-5.387c-4.643-0.816-6.185-4.625-6.457-8.906c-2.539,0.308-5.024,0.635-7.527,0.961
		c0.29-7.147,0.109-14.529,2.83-21.295C1171.523,202.915,1170.598,200.394,1169.601,197.909 M1182.425,208.937
		c1.886,3.428,4.281,6.584,7.074,9.341C1189.734,213.708,1186.977,209.826,1182.425,208.937z"/>
	<path opacity="0.42" enable-background="new    " d="M1127.901,217.208c4.861-4.589,9.486-9.704,15.907-12.117
		c0.363,2.449,0.762,4.916,1.143,7.4c4.027,1.034,8.035,2.104,12.062,3.229c-0.199,0.653-0.617,1.959-0.834,2.612
		c-3.011,1.542-6.076,2.993-9.124,4.426c-3.864-4.843-9.994-7.001-15.69-3.918C1130.494,218.442,1128.771,217.626,1127.901,217.208z
		"/>
	<path opacity="0.16" enable-background="new    " d="M1182.425,208.937c4.553,0.889,7.31,4.77,7.074,9.341
		C1186.705,215.521,1184.311,212.365,1182.425,208.937z"/>
	<path opacity="0.78" enable-background="new    " d="M1113.426,217.353c4.027-1.143,8.398-1.56,11.971-3.954
		c0.617,0.961,1.886,2.866,2.503,3.809c0.871,0.417,2.594,1.233,3.464,1.632c-8.743,3.954-14.474,12.153-23.108,16.216
		c-3.791,1.923-7.201,4.462-10.448,7.165c3.501,2.304,7.237,4.19,11.119,5.804c0.399,1.215,1.197,3.628,1.578,4.843
		c6.82,0.671,10.031-5.677,13.296-10.466c2.431-3.555,5.079-6.947,8.09-10.012c3.192,1.397,6.439,2.721,9.722,3.954
		c-7.709,5.405-13.894,13.15-16.959,22.093c-2.775,8.598-7.908,16.288-9.759,25.212l-0.671-0.054
		c-0.98-1.741-1.923-3.464-2.866-5.206c1.959-2.013,3.936-4.009,5.931-5.986c-1.251-1.016-2.467-2.013-3.682-3.011
		c1.651-2.122,3.319-4.244,5.006-6.348c-4.045-1.651-8.072-3.283-12.116-4.897c1.016,1.524,2.031,3.029,3.065,4.553
		c-1.596,0.744-3.174,1.487-4.752,2.231c0.163,1.796,0.327,3.591,0.508,5.387c-0.671,0.526-2.031,1.596-2.721,2.122
		c-4.263-5.423-8.997-10.448-13.495-15.672c4.081,0.435,8.053,1.433,11.935,2.703c1.161-2.086,2.431-4.154,3.174-6.439
		c-3.047-4.226-7.618-6.947-11.881-9.777c2.684-2.032,5.224-4.244,7.582-6.675c-0.961-0.635-2.902-1.923-3.882-2.558
		c0.653-1.088,1.306-2.177,1.977-3.247c-0.816-1.56-1.632-3.12-2.431-4.68c3.791-2.775,8.199-4.389,12.933-4.48
		c-1.505,2.158-2.902,4.353-4.281,6.566c5.188,0.345,10.411-1.36,14.075-5.151C1117.816,220.401,1115.095,219.149,1113.426,217.353z
		"/>
	<path opacity="0.56" enable-background="new    " d="M1131.365,218.841c5.696-3.084,11.826-0.925,15.69,3.918
		c3.047-1.433,6.113-2.884,9.124-4.426c-0.181,3.591-1.27,6.947-3.41,9.849c-0.254,0.472-0.78,1.397-1.034,1.868
		c1.052,4.625,4.625,9.74,10.049,8.852c0.961-1.505,1.868-3.065,2.757-4.643c5.369,6.748,0.145,15.599,0.145,23.29
		c-2.449-0.472-4.879-0.925-7.292-1.379c-1.233,3.628-2.485,7.255-3.809,10.865c0.671,0.653,1.977,1.977,2.648,2.63
		c0.707,0.671,2.122,1.995,2.83,2.666c-5.605-0.544-9.015-5.46-10.829-10.303c1.814-6.657,8.797-9.033,14.547-11.264
		c-0.707-3.102-1.252-6.221-1.687-9.341c-10.049,3.682-14.71,13.767-22.02,20.805c1.016,5.877,6.657,9.468,9.65,14.384
		c-2.43,0.054-4.825,0.127-7.201,0.181c-0.091,0.653-0.254,1.941-0.326,2.576c-8.307,3.464-17.322,5.097-26.301,4.281
		c1.85-8.924,6.983-16.615,9.759-25.212c3.065-8.942,9.25-16.687,16.959-22.093c-3.283-1.233-6.53-2.558-9.722-3.954
		c5.333-2.92,11.482-3.41,17.195-5.224c-6.584-2.195-13.785-2.376-20.515-0.78c-3.555,3.356-5.532,7.945-7.963,12.098
		c1.052,1.306,2.104,2.612,3.192,3.918c-3.265,4.789-6.475,11.137-13.296,10.466c-0.381-1.215-1.179-3.628-1.578-4.843
		c-3.882-1.614-7.618-3.501-11.119-5.804c3.247-2.703,6.657-5.242,10.448-7.165C1116.891,230.994,1122.622,222.795,1131.365,218.841
		 M1107.567,242.058c4.771,3.773,9.051-1.342,9.849-5.986C1113.97,237.814,1110.705,239.845,1107.567,242.058 M1126.032,261.666
		c1.251,0.49,3.755,1.451,5.006,1.941c-0.327,3.446-3.428,3.12-5.986,3.065c-1.904,2.666-3.773,5.369-5.605,8.072
		c2.63,2.249,6.076,2.177,9.359,2.304c-0.127,0.853-0.381,2.521-0.526,3.356c2.412-1.07,5.206-2.086,6.276-4.77
		c1.868-2.92-2.83-7.419,1.324-9.16c-5.605-1.379-1.125-6.221-2.757-9.323C1130.531,258.219,1127.774,259.398,1126.032,261.666z"/>
	<path opacity="0.53" enable-background="new    " d="M1108.51,221.616c1.56-1.505,3.192-2.92,4.916-4.263
		c1.669,1.796,4.389,3.047,4.879,5.677c-3.664,3.791-8.888,5.496-14.075,5.151C1105.608,225.969,1107.005,223.774,1108.51,221.616z"
		/>
	<path opacity="0.36" enable-background="new    " d="M1128.572,226.386c6.729-1.596,13.93-1.415,20.515,0.78
		c-5.714,1.814-11.862,2.304-17.195,5.224c-3.011,3.065-5.659,6.457-8.09,10.012c-1.088-1.306-2.14-2.612-3.192-3.918
		C1123.039,234.331,1125.016,229.742,1128.572,226.386z"/>
	<path opacity="0.33" enable-background="new    " d="M1107.567,242.058c3.138-2.213,6.403-4.244,9.849-5.986
		C1116.619,240.716,1112.338,245.831,1107.567,242.058z"/>
	<path opacity="0.15" enable-background="new    " d="M1176.185,247.935c-0.054-3.41-0.109-6.802-0.199-10.212
		c3.229,3.737,6.584,7.346,10.049,10.865c-2.757,0.599-5.478,1.197-8.198,1.832c1.905,3.61,4.335,6.983,7.836,9.214
		c0.472,0.363,1.433,1.052,1.923,1.397c-5.895,2.975-12.207,4.879-18.719,5.786c-0.381,0.562-1.143,1.705-1.524,2.285l-0.381,0.617
		c-1.397-0.018-4.208-0.091-5.605-0.127c0.018,0.871,0.054,2.594,0.073,3.464c-0.599-0.181-1.777-0.544-2.376-0.726
		c-0.707-0.671-2.122-1.995-2.83-2.666c1.179-1.632,2.376-3.265,3.573-4.897c2.013-0.399,4.027-0.78,6.058-1.179
		c-0.979-0.998-1.923-1.995-2.848-2.975c0.671-0.417,2.05-1.252,2.721-1.669c1.632-3.247,3.591-6.33,5.986-9.087
		c-0.744-2.068-1.487-4.136-2.122-6.203C1171.723,245.178,1173.954,246.556,1176.185,247.935z"/>
	<path opacity="0.78" enable-background="new    " d="M1139.074,262.228c7.31-7.038,11.971-17.123,22.02-20.805
		c0.435,3.12,0.979,6.24,1.687,9.341c-5.75,2.231-12.733,4.607-14.547,11.264c1.814,4.843,5.224,9.758,10.829,10.303
		c0.599,0.181,1.777,0.544,2.376,0.726c-0.018-0.871-0.054-2.594-0.073-3.464c1.397,0.036,4.208,0.109,5.605,0.127
		c-2.303,8.199-11.735,6.33-18.247,6.893C1145.731,271.696,1140.09,268.105,1139.074,262.228z"/>
	<path opacity="0.64" enable-background="new    " d="M1191.059,258.655c4.698-1.505,9.341-3.138,14.112-4.462
		c-6.385,6.385-15.309,8.616-23.036,12.824c-4.553,2.394-9.849,1.814-14.783,2.086c0.381-0.58,1.143-1.723,1.524-2.285
		c6.512-0.907,12.824-2.811,18.719-5.786c-0.49-0.345-1.451-1.034-1.923-1.397C1187.449,259.344,1189.245,259.017,1191.059,258.655z
		"/>
	<path opacity="0.24" enable-background="new    " d="M1126.032,261.666c1.741-2.267,4.498-3.446,7.092-4.516
		c1.633,3.102-2.848,7.945,2.757,9.323c-4.154,1.741,0.544,6.24-1.324,9.16c-1.07,2.685-3.863,3.7-6.276,4.77
		c0.145-0.834,0.399-2.503,0.526-3.356c-3.283-0.127-6.729-0.054-9.359-2.304c1.832-2.703,3.7-5.405,5.605-8.072
		c2.558,0.054,5.659,0.381,5.986-3.065C1129.787,263.117,1127.284,262.155,1126.032,261.666z"/>
	<path opacity="0.61" enable-background="new    " d="M1106.497,258.147c4.045,1.614,8.072,3.247,12.116,4.897
		c-1.687,2.104-3.356,4.226-5.006,6.348c1.215,0.998,2.431,1.995,3.682,3.011c-1.995,1.977-3.972,3.972-5.931,5.986
		c-3.392-1.233-6.602-3.011-8.761-5.949c0.689-0.526,2.05-1.596,2.721-2.122c-0.181-1.796-0.345-3.591-0.508-5.387
		c1.578-0.744,3.156-1.487,4.752-2.231C1108.529,261.176,1107.513,259.67,1106.497,258.147z"/>
	<path opacity="0.15" enable-background="new    " d="M1210.848,372.002c6.222-2.739,11.953-6.421,17.395-10.466
		c1.324,2.412,2.721,4.807,4.135,7.183c-3.229-0.435-6.439-0.78-9.668-1.052c0.689,5.442,1.034,11.173-1.977,16.053
		c-0.145-1.469-0.399-4.389-0.526-5.859c-1.233,1.306-2.449,2.63-3.646,3.954c-2.993-1.052-5.968-2.104-8.942-3.138
		C1208.671,376.446,1209.759,374.215,1210.848,372.002z"/>
	<path opacity="0.38" enable-background="new    " d="M1197.135,378.441c4.589-2.086,9.106-4.335,13.713-6.439
		c-1.088,2.213-2.177,4.444-3.229,6.675c2.975,1.034,5.949,2.086,8.942,3.138c1.197-1.324,2.412-2.648,3.646-3.954
		c0.127,1.469,0.381,4.389,0.526,5.859c-2.757,0.943-5.949,4.77-8.706,3.247C1207.964,382.776,1204.118,375.521,1197.135,378.441z"
		/>
	<path opacity="0.14" enable-background="new    " d="M1197.135,378.441c6.983-2.92,10.829,4.335,14.892,8.525
		c-4.027-0.816-7.781-2.431-11.246-4.571c-0.254,0.853-0.762,2.558-1.016,3.41c-1.651,0.345-3.319,0.671-4.934,1.034
		c-0.762,1.941-1.505,3.882-2.231,5.841c-2.231-1.324-4.263-2.92-6.076-4.734c-0.308,1.215-0.599,2.449-0.889,3.682
		c-0.635-0.018-1.923-0.073-2.558-0.109c-1.487,6.203-4.988,11.409-9.45,15.835c-0.218,2.938,1.27,5.695,1.723,8.579
		c-0.816,3.283-3.12,5.931-4.825,8.761c-2.086-0.091-4.154-0.181-6.185-0.254c1.651-3.428,3.283-6.874,4.879-10.339
		c-3.102-1.959-5.895-4.335-8.525-6.856c0.054,3.555,0.073,7.11,0.127,10.684c-4.771,3.718-9.904,6.965-15.218,9.813
		c-0.925-2.249-1.796-4.498-2.63-6.766c0.018-4.589,0.163-9.178,0.689-13.731c0.163-1.36,0.526-4.081,0.689-5.442
		c1.633,1.143,3.265,2.304,4.916,3.483c3.446-2.031,6.493-4.607,9.269-7.473c0.526,1.941,1.07,3.9,1.632,5.841
		c-0.054-3.011-0.073-6.022-0.091-9.033c-1.723,0.236-3.41,0.49-5.097,0.744c0.073-1.923,0.181-3.827,0.29-5.732
		c2.394,1.215,5.006,1.814,7.654,2.267c2.993,2.031,6.385,3.283,9.976,3.755c-0.417-3.229-0.816-6.475-1.215-9.704
		c5.042-0.617,9.94-2.068,14.62-4.045C1189.934,380.853,1193.58,379.783,1197.135,378.441 M1151.517,407.734
		c-1.633,2.195-1.233,3.501,1.197,3.918C1154.31,409.44,1153.911,408.134,1151.517,407.734z"/>
	<path opacity="0.28" enable-background="new    " d="M1144.388,390.775c13.858-3.301,27.643-7.654,41.918-8.87
		c-4.68,1.977-9.577,3.428-14.62,4.045c0.399,3.229,0.798,6.475,1.215,9.704c-3.591-0.472-6.983-1.723-9.976-3.755
		c-2.648-0.453-5.26-1.052-7.654-2.267c-0.109,1.905-0.218,3.809-0.29,5.732c1.687-0.254,3.374-0.508,5.097-0.744
		c0.018,3.011,0.036,6.022,0.091,9.033c-0.562-1.941-1.106-3.9-1.632-5.841c-2.775,2.866-5.823,5.442-9.269,7.473
		c-1.651-1.179-3.283-2.34-4.916-3.483c-0.163,1.36-0.526,4.081-0.689,5.442c-0.852-1.27-1.687-2.539-2.503-3.791
		c0.055,3.972,0.109,7.945-0.181,11.917c-2.249-0.163-4.426-0.453-6.639-0.381c-3.428,2.848-5.006,7.128-5.26,11.463
		c-1.832-0.653-3.646-1.306-5.46-1.941c-0.726,3.591-0.163,7.128,1.814,10.248c2.431,0.073,6.276-0.998,5.188,3.029
		c-4.245-0.435-8.416-1.306-12.552-2.213c0.181-3.972,0.472-7.963,0.834-11.917c2.158-0.29,4.335-0.562,6.512-0.834
		c-0.381-0.744-1.143-2.213-1.542-2.938c5.115-6.802,9.25-14.275,14.384-21.059c1.524-1.886,2.975-3.827,4.426-5.786
		C1143.101,392.48,1143.953,391.355,1144.388,390.775z"/>
	<path opacity="0.6" enable-background="new    " d="M1109.943,397.958c10.72-2.866,21.567-5.133,32.74-4.915
		c-1.451,1.959-2.902,3.9-4.426,5.786c-0.671,0.218-2.013,0.635-2.685,0.834c-0.798,0.689-1.578,1.415-2.303,2.158
		c-1.342-0.58-2.666-1.143-4.009-1.669c-0.889,2.412-1.741,4.825-2.576,7.255c-0.109-3.646-0.254-7.292-0.417-10.901
		c-3.392,3.428-6.475,7.165-9.251,11.119c-2.394-1.233-4.77-2.467-7.128-3.7c-0.181,2.684-0.363,5.351-0.544,8.053
		c1.886-1.306,3.501-3.301,5.895-3.664c-0.98,4.009-2.304,7.908-3.465,11.863c-1.088-0.617-3.283-1.868-4.371-2.503
		c0.671,5.913,2.539,11.572,4.915,17.014c-0.254,3.047-0.544,6.095-0.78,9.142c-1.832-1.306-3.646-2.612-5.442-3.9
		c0.617,1.905,1.233,3.827,1.868,5.75c-2.503-0.744-4.988-1.469-7.473-2.195c3.573,2.957,7.292,5.786,11.337,8.108
		c0.453,3.12,0.907,6.24,1.379,9.378c-1.433-1.288-2.83-2.576-4.226-3.845c0.599,3.174,1.215,6.367,1.85,9.559
		c-1.342,2.267-2.685,4.516-3.99,6.802c0.145,0.726,0.453,2.177,0.599,2.902c-2.993,3.265-5.478,6.929-7.945,10.575
		c-2.249,0.49-4.48,0.998-6.675,1.542l-1.125,0.254c-3.827-0.907-4.77,5.188-0.453,3.247c-0.145,0.453-0.435,1.342-0.58,1.796
		c-2.757,1.886-5.587,3.682-8.289,5.623l-0.599-1.687c1.415-1.778,2.975-3.519,3.773-5.677c-0.834-0.49-2.503-1.451-3.338-1.941
		c2.013-2.793,3.646-5.822,5.133-8.906c2.104,3.99,8.489,0.073,5.278-3.374c-0.326-0.526-1.016-1.56-1.36-2.068
		c0.726-0.834,2.195-2.503,2.92-3.337c0.562,1.923,1.161,3.863,1.759,5.804c2.032-1.197,4.099-2.376,5.931-3.9
		c-0.943-0.762-2.866-2.285-3.827-3.047c4.39-2.83,6.004-7.799,7.11-12.642c-1.923,0.49-3.827,0.998-5.732,1.524
		c-0.653-0.998-1.977-2.975-2.63-3.954c-1.07,1.868-2.122,3.737-3.156,5.605c-1.905-0.508-3.827-1.034-5.714-1.524
		c-1.179,1.723-2.358,3.464-3.519,5.206c1.487,1.197,2.975,2.412,4.48,3.646c0.29,1.179,0.871,3.519,1.161,4.68
		c-1.923,0.816-3.845,1.632-5.75,2.467c-1.433-0.762-2.848-1.524-4.245-2.267c1.016,6.149,1.469,13.259-2.63,18.465
		c-4.771-5.46-4.535-13.023-5.659-19.735c0.726,0.744,2.158,2.267,2.866,3.029c1.759-3.102-0.544-7.11-0.889-10.448
		c2.557,2.267,5.188,4.444,7.89,6.584c0.889-2.63-0.2-4.807-2.031-6.639c-0.236-1.088-0.689-3.247-0.907-4.317
		c-0.834,0.345-2.503,1.052-3.337,1.397c-2.83-3.337-5.641-6.675-8.471-9.994c0.943-1.215,1.905-2.431,2.884-3.628
		c-1.56-0.599-3.102-1.179-4.625-1.759c0.054-0.435,0.163-1.306,0.199-1.723c1.161-1.179,2.322-2.34,3.519-3.483
		c0.635,0.961,1.886,2.92,2.503,3.882c0.961-7.546,4.371-14.366,7.437-21.204c5.387-4.625,10.72-9.414,14.819-15.254
		c2.158-1.288,4.39-2.485,6.62-3.664c0.363,1.161,0.744,2.34,1.143,3.519c-1.995,1.687-3.99,3.374-5.949,5.079
		c3.9-0.399,7.818-0.78,11.717-1.215C1107.622,407.861,1108.638,402.873,1109.943,397.958 M1101.455,415.48
		c-0.453,2.376-0.871,4.77-1.288,7.147c-4.789,2.485-2.285,7.745-1.215,11.681C1103.704,429.755,1107.64,420.196,1101.455,415.48
		 M1081.321,435.65c0.78,1.07,1.596,2.158,2.412,3.247c-1.161,0.145-3.483,0.453-4.643,0.599c0.181,1.487,0.381,2.975,0.598,4.48
		c-0.961,1.524-1.904,3.047-2.848,4.589c7.292,3.229,15.164,5.079,23.181,4.226c-4.371-4.789-11.754-2.993-17.05-6.095
		c0.889-3.61,2.975-7.219,7.002-7.836c-0.635,1.233-1.941,3.682-2.594,4.897c1.016,2.757,4.571,2.957,6.875,4.063
		c-0.617-8.144-3.301-16.125-2.013-24.342c-1.578,0.762-3.12,1.524-4.661,2.304c0.453-2.612,0.961-5.188,1.396-7.799
		C1085.275,423.315,1083.117,429.464,1081.321,435.65 M1095.868,443.449c-0.816,2.539,0.054,3.446,2.612,2.757
		C1099.26,443.667,1098.407,442.742,1095.868,443.449 M1081.085,453.824c0.417,7.346,8.344,5.115,13.078,4.48
		C1091.297,453.861,1085.692,454.06,1081.085,453.824z"/>
	<path opacity="0.78" enable-background="new    " d="M1099.478,400.588c3.283-1.524,6.947-1.868,10.466-2.63
		c-1.306,4.915-2.322,9.904-2.793,14.964c-3.9,0.435-7.818,0.816-11.717,1.215c1.959-1.705,3.954-3.392,5.949-5.079
		c-0.399-1.179-0.78-2.358-1.143-3.519c-2.231,1.179-4.462,2.376-6.62,3.664C1095.487,406.302,1096.63,402.71,1099.478,400.588z"/>
	<path opacity="0.37" enable-background="new    " d="M1117.017,407.626c2.775-3.954,5.859-7.691,9.251-11.119
		c0.163,3.61,0.308,7.255,0.417,10.901c0.834-2.431,1.687-4.843,2.576-7.255c4.335,3.464,0.345,7.092-1.596,10.012
		c-3.047,3.99-7.183,7.419-12.479,7.273c-0.798,5.768-1.868,11.5-2.866,17.25c-2.376-5.442-4.244-11.101-4.915-17.014
		c1.088,0.635,3.283,1.886,4.371,2.503c1.161-3.954,2.485-7.854,3.465-11.863c-2.394,0.363-4.009,2.358-5.895,3.664
		c0.181-2.703,0.363-5.369,0.544-8.053C1112.247,405.159,1114.623,406.392,1117.017,407.626z"/>
	<path opacity="0.75" enable-background="new    " d="M1135.573,399.663c0.671-0.199,2.014-0.617,2.685-0.834
		c-5.133,6.784-9.269,14.257-14.384,21.059c0.399,0.726,1.161,2.195,1.542,2.938c-2.177,0.272-4.353,0.544-6.512,0.834
		c-0.363,3.954-0.653,7.945-0.834,11.917c-0.544,0.29-1.651,0.871-2.195,1.179c1.487,2.031,2.975,4.099,4.498,6.149
		c-2.104-0.399-4.19-0.798-6.258-1.179c1.705,4.117,4.752,7.346,8.362,9.885c-1.469,1.125-2.884,2.285-4.299,3.464
		c-2.14-1.143-4.263-2.304-6.348-3.483c-4.045-2.322-7.763-5.151-11.337-8.108c2.485,0.726,4.97,1.451,7.473,2.195
		c-0.635-1.923-1.252-3.845-1.868-5.75c1.796,1.288,3.61,2.594,5.442,3.9c0.236-3.047,0.526-6.095,0.78-9.142
		c0.998-5.75,2.068-11.482,2.866-17.25c5.296,0.145,9.432-3.283,12.479-7.273c1.941-2.92,5.931-6.548,1.596-10.012
		c1.342,0.526,2.667,1.088,4.009,1.669C1133.995,401.078,1134.775,400.352,1135.573,399.663z"/>
	<path opacity="0.61" enable-background="new    " d="M1141.16,403.454c0.816,1.252,1.651,2.521,2.503,3.791
		c-0.526,4.553-0.671,9.142-0.689,13.731c-0.163,2.739-0.435,5.442-0.635,8.162c1.524,0.091,3.083,0.181,4.662,0.29
		c-0.671,0.762-1.995,2.285-2.666,3.065c-0.526,0.726-1.578,2.195-2.104,2.92c-1.85,1.995-3.809,3.9-5.75,5.804
		c-2.34-0.272-4.68-0.544-7.001-0.798c1.125,2.431,2.249,4.861,3.392,7.292c2.05-0.308,4.099-0.617,6.167-0.907
		c-0.617,2.34-1.233,4.716-1.487,7.147c5.768,5.315,13.967,1.796,20.188-0.762c-4.716,6.947-13.967,6.24-21.295,5.514l-0.961-1.923
		c-0.272-0.508-0.798-1.487-1.052-1.977c-4.607-0.218-9.232-0.054-13.821-0.163c1.687,4.716-0.272,8.725-4.444,11.173
		c0.834-3.555,1.578-7.128,2.013-10.738c1.415-1.179,2.83-2.34,4.299-3.464c-3.609-2.539-6.657-5.768-8.362-9.885
		c2.068,0.381,4.154,0.78,6.258,1.179c-1.524-2.05-3.011-4.117-4.498-6.149c0.544-0.308,1.651-0.889,2.195-1.179
		c4.135,0.907,8.307,1.778,12.552,2.213c1.777-0.091,3.591-0.218,5.405-0.345c2.485-7.147,3.428-14.692,4.952-22.074
		C1141.269,411.398,1141.214,407.426,1141.16,403.454z"/>
	<path opacity="0.36" enable-background="new    " d="M1151.517,407.734c2.394,0.399,2.793,1.705,1.197,3.918
		C1150.283,411.235,1149.884,409.929,1151.517,407.734z"/>
	<path opacity="0.28" enable-background="new    " d="M1160.695,407.245c2.63,2.521,5.423,4.897,8.525,6.856
		c-1.596,3.464-3.229,6.911-4.879,10.339c2.031,0.073,4.099,0.163,6.185,0.254l-0.998,1.052c-3.882,5.478-10.158,7.799-16.579,8.507
		c3.211-2.975,6.693-5.659,10.52-7.781c-0.798-2.104-1.578-4.19-2.358-6.276c-4.843,3.083-9.378,6.657-13.205,10.919
		c-0.889,0.345-2.685,1.034-3.573,1.379c0.671-0.78,1.995-2.304,2.666-3.065c-1.578-0.109-3.138-0.2-4.662-0.29
		c0.199-2.721,0.472-5.423,0.635-8.162c0.834,2.267,1.705,4.516,2.63,6.766c5.315-2.848,10.448-6.095,15.218-9.813
		C1160.767,414.355,1160.749,410.8,1160.695,407.245z"/>
	<path opacity="0.21" enable-background="new    " d="M1134.34,414.99c2.213-0.073,4.39,0.218,6.639,0.381
		c-1.524,7.382-2.467,14.928-4.952,22.074c-1.814,0.127-3.628,0.254-5.405,0.345c1.088-4.027-2.757-2.957-5.188-3.029
		c-1.977-3.12-2.539-6.657-1.814-10.248c1.814,0.635,3.628,1.288,5.46,1.941C1129.333,422.118,1130.911,417.838,1134.34,414.99z"/>
	<path opacity="0.4" enable-background="new    " d="M1101.455,415.48c6.185,4.716,2.249,14.275-2.503,18.828
		c-1.07-3.936-3.573-9.196,1.215-11.681C1100.584,420.25,1101.001,417.856,1101.455,415.48z"/>
	<path opacity="0.35" enable-background="new    " d="M1081.321,435.65c1.796-6.185,3.954-12.334,7.654-17.667
		c-0.435,2.612-0.943,5.188-1.396,7.799c1.542-0.78,3.083-1.542,4.661-2.304c-1.288,8.217,1.397,16.198,2.013,24.342
		c-2.304-1.106-5.859-1.306-6.875-4.063c0.653-1.215,1.959-3.664,2.594-4.897c-4.027,0.617-6.113,4.226-7.002,7.836
		c5.297,3.102,12.679,1.306,17.05,6.095c-8.017,0.853-15.889-0.998-23.181-4.226c0.943-1.542,1.886-3.065,2.848-4.589
		c-0.218-1.505-0.417-2.993-0.598-4.48c1.161-0.145,3.483-0.453,4.643-0.599C1082.917,437.808,1082.101,436.72,1081.321,435.65z"/>
	<path opacity="0.14" enable-background="new    " d="M1147.907,431.115c3.827-4.263,8.362-7.836,13.205-10.919
		c0.78,2.086,1.56,4.172,2.358,6.276c-3.827,2.122-7.31,4.807-10.52,7.781c6.421-0.707,12.697-3.029,16.579-8.507
		c0.834,2.721,1.85,5.405,2.648,8.162c-6.766,4.371-14.402,9.831-13.713,18.991l-0.725,0.29c-6.221,2.558-14.42,6.076-20.188,0.762
		c0.254-2.431,0.871-4.807,1.487-7.147c1.052-3.809,2.086-7.6,3.192-11.391c0.526-0.726,1.578-2.195,2.104-2.92
		C1145.223,432.149,1147.018,431.46,1147.907,431.115z"/>
	<path opacity="0.83" enable-background="new    " d="M1068.28,432.729c2.376-3.972,6.802-5.859,10.52-8.271
		c-3.065,6.838-6.475,13.658-7.437,21.204c-0.617-0.961-1.868-2.92-2.503-3.882c-1.197,1.143-2.358,2.304-3.519,3.483
		C1065.922,441.018,1065.867,436.429,1068.28,432.729z"/>
	<path opacity="0.3" enable-background="new    " d="M1136.48,441.218c1.941-1.905,3.9-3.809,5.75-5.804
		c-1.107,3.791-2.14,7.582-3.192,11.391c-2.068,0.29-4.118,0.599-6.167,0.907c-1.143-2.431-2.267-4.861-3.392-7.292
		C1131.8,440.674,1134.14,440.946,1136.48,441.218z"/>
	<path opacity="0.36" enable-background="new    " d="M1095.868,443.449c2.539-0.707,3.392,0.218,2.612,2.757
		C1095.922,446.895,1095.052,445.988,1095.868,443.449z"/>
	<path opacity="0.78" enable-background="new    " d="M1065.142,446.986c1.524,0.58,3.065,1.161,4.625,1.759
		c-0.979,1.197-1.941,2.412-2.884,3.628c2.83,3.319,5.641,6.657,8.471,9.994c0.834-0.345,2.503-1.052,3.337-1.397
		c0.218,1.07,0.671,3.229,0.907,4.317c1.832,1.832,2.92,4.009,2.031,6.639c-2.703-2.14-5.333-4.317-7.89-6.584
		c0.345,3.337,2.648,7.346,0.889,10.448c-0.707-0.762-2.14-2.285-2.866-3.029c1.125,6.711,0.889,14.275,5.659,19.735
		c4.099-5.206,3.646-12.316,2.63-18.465c1.397,0.744,2.812,1.505,4.245,2.267c1.905-0.834,3.827-1.651,5.75-2.467
		c0.308,0.49,0.907,1.451,1.215,1.941c0.345,0.508,1.034,1.542,1.36,2.068c-2.449-0.816-4.643,1.125-5.278,3.374
		c-1.487,3.084-3.12,6.113-5.133,8.906c-2.358,2.05-2.503,5.315-0.435,7.618l0.599,1.687c0.417,5.006-1.614,9.704-3.047,14.384
		c0.671,4.462,2.104,8.761,3.7,12.987c-6.784-2.576-9.287-9.613-8.09-16.343c1.143,0.145,3.41,0.453,4.535,0.617
		c-0.345-4.535-0.834-9.051-1.487-13.549c-2.195,1.324-4.371,2.648-6.53,3.99c-5.097-5.786,0.054-13.15-2.394-19.644
		c-0.925-3.428-1.977-6.965-0.889-10.484c-0.272-0.381-0.78-1.125-1.052-1.487c1.651-3.029,2.358-6.421,2.902-9.795
		c-2.104-0.345-4.19-0.671-6.258-0.998C1064.253,455.058,1064.688,451.013,1065.142,446.986z"/>
	<path opacity="0.51" enable-background="new    " d="M1111.83,451.593c2.086,1.179,4.208,2.34,6.348,3.483
		c-0.435,3.61-1.179,7.183-2.013,10.738c4.172-2.449,6.131-6.457,4.444-11.173c4.589,0.109,9.214-0.054,13.821,0.163
		c0.254,0.49,0.78,1.469,1.052,1.977c-3.519,0.834-7.092,1.306-10.629,1.886c-2.358,2.848-4.317,6.004-6.856,8.688
		c-0.345,1.524-0.653,3.047-0.925,4.589c-3.247,1.433-6.494,2.848-9.631,4.444c-0.145-0.726-0.453-2.177-0.599-2.902
		c1.306-2.285,2.648-4.535,3.99-6.802c-0.635-3.192-1.251-6.385-1.85-9.559c1.397,1.27,2.793,2.558,4.226,3.845
		C1112.737,457.833,1112.283,454.713,1111.83,451.593z"/>
	<path opacity="0.19" enable-background="new    " d="M1081.085,453.824c4.607,0.236,10.212,0.036,13.078,4.48
		C1089.429,458.939,1081.502,461.17,1081.085,453.824z"/>
	<path opacity="0.26" enable-background="new    " d="M1093.637,461.823c1.034-1.868,2.086-3.737,3.156-5.605
		c0.653,0.979,1.977,2.957,2.63,3.954c1.904-0.526,3.809-1.034,5.732-1.524c-1.107,4.843-2.721,9.813-7.11,12.642
		c0.961,0.762,2.884,2.285,3.827,3.047c-1.832,1.524-3.9,2.703-5.931,3.9c-0.599-1.941-1.197-3.882-1.759-5.804
		c-0.725,0.834-2.195,2.503-2.92,3.337c-0.308-0.49-0.907-1.451-1.215-1.941c-0.29-1.161-0.871-3.501-1.161-4.68
		c-1.506-1.233-2.993-2.449-4.48-3.646c1.161-1.741,2.34-3.483,3.519-5.206C1089.81,460.789,1091.732,461.315,1093.637,461.823z"/>
	<path opacity="0.19" enable-background="new    " d="M1107.44,476.388c3.138-1.596,6.385-3.011,9.631-4.444
		c0.58,5.042-1.288,9.668-4.535,13.459c2.485,3.138,2.158,7.11,1.596,10.829c-1.288-1.07-2.539-2.14-3.773-3.21
		c-0.925,1.143-1.814,2.285-2.685,3.446c-2.14,0.544-4.281,1.125-6.385,1.705c2.757,3.229,2.05,7.219,0.852,10.937
		c-2.213-3.192-4.426-6.403-6.457-9.722c-2.376-3.156-2.576-7.128-2.866-10.883c2.195-0.544,4.426-1.052,6.675-1.542
		C1101.963,483.317,1104.448,479.653,1107.44,476.388z"/>
	<path opacity="0.41" enable-background="new    " d="M1087.343,481.213c0.635-2.249,2.83-4.19,5.278-3.374
		C1095.832,481.286,1089.447,485.204,1087.343,481.213z"/>
	<path enable-background="new    " d="M2137.722,843.021c-3.591-7.564-8.271-14.855-15.128-19.843
		c-6.747-5.46-13.386-12.098-22.038-14.148c-0.708-0.617-2.141-1.85-2.848-2.467c-8.489-2.449-16.506-6.276-25.013-8.634
		c-6.893-2.993-14.511-3.174-21.476-5.841c-10.267-1.614-20.769-0.381-30.944-2.648c-12.008,4.117-25.14,0.345-37.238,4.19
		c-6.403,2.684-13.604,1.197-20.025,3.628c-10.133,4.26-27.031,1.539-38.075,2.325c-14.453,1.03-28.923-0.447-43.354-1.149
		c-27.421-1.333-49.409,0.213-66.073,22.839c-1.941,9.033-3.537,18.211-2.449,27.48c-8.634,4.408-16.324,10.321-23.526,16.742
		c-5.278,3.718-11.482,9.287-18.392,6.385c-11.463-4.716-22.383,2.721-31.869,8.362c-7.292,2.884-13.658,7.709-21.149,10.049
		c-6.221,1.832-11.5,5.841-17.667,7.763c-7.927,2.177-15.091,6.421-23.126,8.217c-23.435,7.654-45.527,18.791-67.402,30.019
		c-17.667,10.266-34.137,22.492-49.754,35.642c-4.843,3.99-8.307,9.432-13.531,12.987c-10.157,7.401-18.175,17.123-27.353,25.575
		c-7.872,7.818-13.205,17.558-18.701,27.063c-1.56,3.7-0.889,7.854-1.125,11.772c-8.162-0.327-12.933-9.668-21.567-9.613
		c-16.778-6.494-32.069-16.415-48.52-23.761c-19.063-10.466-37.927-21.349-56.918-31.942
		c-23.598-12.407-45.582-27.679-69.452-39.578c-17.921-8.924-37.782-16.216-50.643-32.359c-3.936-5.986-10.575-9.124-15.581-13.985
		c-4.371-3.918-5.46-10.012-8.779-14.656c-3.174-5.26-8.398-9.015-10.792-14.765c-5.224-7.999-13.205-13.84-18.501-21.875
		c-0.073-0.961-0.181-2.884-0.254-3.845c-6.421-6.82-14.275-12.008-21.73-17.594c1.034-11.228-1.36-22.22-3.972-33.066
		c-1.723-2.83-2.902-5.931-3.591-9.142c-1.995-3.646-4.444-7.001-6.385-10.629c-4.063-9.704-13.241-15.617-19.426-23.816
		c-7.908-6.729-17.522-11.482-25.085-18.374c-2.612-0.435-5.061-1.179-5.605-4.117c-2.231-0.054-4.462-0.091-6.657-0.109
		c0.054-21.948,1.796-45.419-9.523-65.244c14.801-0.671,29.366,2.14,44.022,3.573c8.598-0.036,16.687,3.7,25.303,3.628
		c7.546-0.562,14.402,3.247,21.875,3.628c11.899,2.63,24.178,2.412,36.295,1.85c7.31-1.397,15.363-0.871,21.748-5.315
		c1.125-0.073,3.356-0.218,4.48-0.308c6.512-4.879,14.747-6.403,21.766-10.321c9.414-0.78,18.574-3.265,27.969-4.263
		c10.992-4.208,22.619-6.367,33.756-10.121c38.223-4.051,72.56-27.743,111.316-31.543c8.145-0.799,15.491-5.242,23.743-5.224
		c5.841-0.272,11.627-1.342,17.25-2.993c4.607,1.342,10.647,2.558,13.731-2.231c-0.272-3.755-0.036-7.527,0.744-11.21
		c-0.344-2.158-1.07-4.299-0.798-6.475c4.625-4.335,11.409-4.77,17.268-6.475c10.303-3.791,17.141-13.967,17.667-24.795
		c0.508-6.167,7.02-8.326,10.14-12.896c6.131-8.072,12.298-16.198,16.76-25.339c4.081-4.698,10.575-7.02,13.948-12.443
		c0.889-6.367,8.18-11.699,5.605-18.084c0-3.138,0.018-6.258,0.054-9.396c4.952-5.042,7.745-11.754,6.566-18.882
		c-2.43-1.977-4.843-3.972-7.219-5.949c0.381-0.544,1.161-1.632,1.56-2.177c1.76-0.363,3.555-0.762,5.351-1.197
		c2.013-7.709,4.498-15.907,1.723-23.761c-3.247-0.689-6.53-1.596-9.813-0.871c-3.192,0.417-5.441,3.283-8.688,3.392
		c-10.375,0.852-20.805-0.472-31.162,0.272c-3.41,0.109-6.439,1.832-8.942,3.99c-9.087,7.8-15.309,18.175-21.548,28.205
		c-1.016,0.109-3.011,0.308-4.009,0.399c-3.029,5.296-6.04,10.593-9.922,15.345c-2.539,4.498-6.675,11.064-1.633,15.436
		c-1.415,5.478-3.029,10.901-4.662,16.325c-1.106,4.988-2.467,9.904-3.99,14.783c-39.451,1.341-81.214,12.224-120.194,20.081
		c-40.923,8.248-81.587,17.88-121.645,29.655c-6.893,2.975-14.928-0.979-21.567,2.92c-4.226,2.648-9.396,1.578-14.075,1.814
		c-0.671-0.762-2.013-2.249-2.684-3.011c-10.339-1.669-20.877,0.218-31.162-1.215c-5.188-2.521-11.21-2.503-16.216-5.315
		c-4.97-0.762-10.031-0.871-15.001-1.578c-6.33-1.596-12.135-4.807-18.356-6.729c-6.893-1.088-13.912,1.415-20.75-0.49
		c-1.941-6.766-8.579-9.831-14.946-11.083l-0.181-0.925c-1.106-5.732-2.775-11.337-4.934-16.742
		c-6.784-2.576-9.287-9.613-8.09-16.343c-0.725-3.138-1.923-6.131-3.483-8.942c-5.097-5.786,0.054-13.15-2.394-19.644
		c-0.925-3.428-1.977-6.965-0.889-10.484c-0.272-0.381-0.78-1.125-1.052-1.487c1.651-3.029,2.358-6.421,2.902-9.795
		c-2.104-0.345-4.19-0.671-6.258-0.998c0.49-4.045,0.925-8.09,1.379-12.116c0.054-0.435,0.163-1.306,0.199-1.723
		c0.58-4.244,0.526-8.833,2.938-12.534c2.376-3.972,6.802-5.859,10.52-8.271c5.387-4.625,10.72-9.414,14.819-15.254
		c1.868-2.902,3.011-6.494,5.859-8.616c3.283-1.524,6.947-1.868,10.466-2.63c10.72-2.866,21.567-5.133,32.74-4.916
		c0.417-0.562,1.27-1.687,1.705-2.267c13.858-3.301,27.643-7.654,41.918-8.87c3.628-1.052,7.273-2.122,10.828-3.464
		c4.589-2.086,9.106-4.335,13.713-6.439c6.222-2.739,11.953-6.421,17.395-10.466c6.421-4.879,12.697-9.994,19.39-14.547
		c5.079-2.721,10.774-4.408,15.272-8.18c1.814-1.125,3.628-2.267,5.423-3.446c6.24-5.659,14.638-8.706,19.952-15.309
		c1.052-0.054,3.138-0.163,4.19-0.199c1.052-1.36,2.104-2.703,3.192-4.045c8.289-2.431,13.513-9.922,21.24-13.368
		c2.122-0.925,4.208-2.013,5.804-3.755c4.226-1.433,7.546-4.39,10.738-7.401c6.729-2.449,12.516-7.146,18.411-11.137
		c1.143-0.091,3.428-0.236,4.571-0.326c9.196-8.797,21.258-13.677,32.069-20.17c7.945-5.714,17.25-9.233,24.922-15.363
		c6.421-1.27,10.919-6.439,17.032-8.326c0.653-0.671,1.977-2.013,2.63-2.684c5.55-1.687,10.067-5.496,15.109-8.253
		c2.848-3.011,3.084-6.784-0.435-9.45c2.304-1.633,4.807-2.993,7.437-4.099c5.26-0.399,9.214-3.954,12.624-7.654
		c7.346-0.145,15.345,1.07,21.766-3.41c1.161-0.163,3.446-0.472,4.607-0.635c10.23-6.657,22.873-9.976,31.234-19.336
		c5.442-4.97,9.777-11.391,16.687-14.474c13.459-6.33,26.536-13.912,36.585-25.104c4.317-5.968,2.938-13.296,0.453-19.68
		c5.623-5.024,12.28-9.867,14.42-17.504c1.288-4.027-0.018-8.162-1.814-11.772c-3.319-0.635-6.312-2.177-9.178-3.864
		c2.05-3.374,4.462-6.965,4.335-11.101c0-4.281-3.011-7.655-4.916-11.228c-4.371,1.923-7.836,5.278-11.5,8.217
		c-1.614,2.739-3.374,5.46-5.986,7.346c-2.249,3.682-4.408,7.437-7.02,10.883c-3.12,6.82-11.028,9.65-13.168,16.959
		c-1.07,0.127-3.211,0.417-4.263,0.544c-0.018,0.689-0.018,2.068-0.018,2.757c-3.9,0.689-5.732,4.172-7.564,7.219
		c-10.059,5.002-16.182,10.651-27.972,14.694c-12.052,4.133-24.258,9.454-36.612,12.543c-11.145,3.818-29.011,14.242-40.98,13.739
		c-3.757,0.254-10.613,1.632-10.45-4.081c-4.589,0.635-11.101-1.687-13.785,3.338c-13.525,1.756-30.43,13.009-43.5,18.762
		c-18.381,8.091-36.763,16.181-55.144,24.271c-15.626,6.878-31.252,13.755-46.878,20.633c-8.818,3.881-24.945,15.54-34.2,16.252
		c-2.12,0.163-4.222,0.308-6.305,0.453c-1.179,3.464-2.83,6.729-4.625,9.904c-2.322,1.306-4.607,2.666-6.856,4.045
		c-6.385,6.385-15.309,8.616-23.036,12.824c-4.553,2.394-9.849,1.814-14.783,2.086l-0.381,0.617
		c-2.303,8.199-11.735,6.33-18.247,6.893c-2.43,0.054-4.825,0.127-7.201,0.181c-0.091,0.653-0.254,1.941-0.327,2.576
		c-8.307,3.464-17.322,5.097-26.301,4.281l-0.671-0.054c-3.954-0.453-8.126-0.199-11.826-1.796
		c-5.895-5.623-9.16-13.604-15.799-18.556c-1.886-2.068-6.439-4.027-4.408-7.364c3.229-7.473,4.752-15.49,6.457-23.398
		c1.27-0.834,2.539-1.687,3.809-2.521c-4.353-1.633-6.838,1.868-8.888,5.079c-7.183-2.231-14.13-5.097-20.896-8.362
		c5.568-1.161,12.643-1.669,14.565-8.108c2.159,0.816,4.353,1.651,6.566,2.467c1.505-1.632,3.029-3.265,4.589-4.897
		c-2.249-2.195-4.408-4.535-7.02-6.24c-4.008,0.979-6.856,4.553-10.847,5.714c-4.861,1.469-9.051,4.39-12.788,7.763
		c-1.687-5.024-3.12-10.139-4.19-15.327c-1.633-0.961-3.247-1.886-4.843-2.83c0.163-3.628,1.669-7.618-0.163-11.028
		c-4.771-2.449-9.994,7.165-13.803,1.179c-4.48-5.133-10.847-7.673-17.177-9.65c1.233-1.632,2.485-3.283,3.718-4.916
		c-5.786-3.646-11.899,4.244-18.048,0.49c-3.9-4.081-1.07-9.668,0.907-13.894c-4.68,0.49-9.505,1.143-14.075-0.272
		c-2.231-0.236-4.045-2.394-3.192-4.625c0.653-3.809,1.741-7.546,2.177-11.391c-3.084-0.29-6.076,0.635-9.106,0.871
		c-1.995-3.192-2.068-8.307-6.983-8.344c-2.558-0.871-5.079-1.814-7.546-2.848c2.576-1.143,5.151-2.249,7.763-3.355
		c-4.045-4.317-9.432-6.657-15.236-7.382c-2.612,3.773-6.203,6.566-10.575,7.963c-0.381,0.181-1.143,0.508-1.524,0.689
		c-2.703,1.923-5.423,3.827-8.507,5.079c-7.364,2.812-13.06,8.471-19.608,12.679c-1.052-3.736-2.104-7.473-3.156-11.191
		c-5.079,3.065-7.854,8.18-7.618,14.13c-3.555,0.199-7.092,0.417-10.629,0.635c0.145-2.122,0.308-4.226,0.49-6.348
		c-5.115,1.832-10.502,2.703-15.889,3.229c-0.762,5.188-4.444,8.307-9.595,8.634c-1.451,1.578-2.866,3.174-4.281,4.771
		c-2.648,0.091-5.315,0.181-7.945,0.272c-0.599-9.178,7.364-15.291,10.067-23.417c-0.852-4.516-3.047-8.797-5.895-12.37
		c-3.9-1.288-8.09-1.016-12.116-1.288c-0.907,4.916-1.27,9.922-2.267,14.837c-4.045,3.646-8.706-0.181-12.243-2.43
		c-1.27,3.446-2.267,6.965-3.065,10.557c-2.539-1.778-5.949-2.793-8.452-0.308c-0.979,5.859,3.356,10.883,3.555,16.597
		c-0.526,4.444-5.351,4.897-8.743,5.949c-1.886-4.535-3.737-9.069-5.623-13.586c-6.221,5.877-1.378,16.542-9.232,21.385
		c-1.959,3.174-3.737,6.457-5.514,9.74c-1.578,0.163-4.734,0.508-6.312,0.671c-2.884,1.143-5.804,2.231-8.706,3.265
		c-1.759,0.526-3.156,1.578-4.172,3.138c-0.998,0.181-3.011,0.544-4.009,0.726c0.036,0.744,0.073,2.249,0.109,3.011
		c-2.467,0.308-5.659-0.109-5.786,3.229c-2.92,2.031-5.913,4.135-7.836,7.201c-2.866,1.995-5.587,4.281-7.237,7.419
		c-5.804,1.759-9.704,7.527-10.593,13.35c-0.78,4.662-4.353,8.271-4.68,13.096c-1.886,1.868-3.646,3.845-5.296,5.913
		c-10.38,5.506-21.711,9.251-33,13.646c-4.214,1.641-8.674,3.469-11.275,7.169c-5.995,8.531,5.887,20.491,12.568,24.385
		c-0.199,2.068-0.398,4.136-0.58,6.222c-0.979,0.145-2.975,0.417-3.954,0.562c-1.034,5.296-2.213,10.847,0.109,15.998
		c-0.58,3.029-1.433,6.022-1.578,9.124c0.363,2.666,3.337,5.26,1.397,7.927c-1.433,3.301-4.208,6.312-3.827,10.121
		c-0.109,4.299,1.27,9.867-3.882,11.609c-3.7,5.169-5.188,11.464-6.403,17.594c0.417,5.315,3.646,9.849,6.747,13.985
		c0.907,0.236,2.721,0.671,3.646,0.907c1.106,2.503,3.591,3.174,6.058,3.773c5.423,3.156,11.736,4.208,17.631,6.203
		c7.31,0.599,14.747,0.091,21.802,2.539c10.738,3.483,2.612,17.068,7.872,24.287c0.272,2.938,0.49,5.895,0.798,8.852
		c2.975,3.827,0.599,11.191,6.276,12.57c0.435,2.449,0.29,5.097,1.596,7.328c6.022,12.08,14.221,23.979,13.749,38.091
		c5.456,27.878-0.32,59.231,1.881,88.174c1.401,18.419,8.733,39.79,3.96,57.132c-3.682,11.683-3.374,24.234-2.431,36.315
		c1.07,1.741,2.14,3.501,3.211,5.278c0.562,6.185,3.283,11.862,7.401,16.488c3.682,4.027,5.26,10.593,10.974,12.334
		c0.018,0.744,0.073,2.249,0.091,3.011c0.889,0,2.703,0,3.591,0.018c0,0.889,0,2.684,0,3.573c0.762,0.018,2.322,0.054,3.084,0.054
		c1.034,2.739,2.231,5.423,3.646,8.017c2.068,5.079,6.457,9.795,5.641,15.635c-2.34,11.337-1.433,22.981-1.342,34.481
		c2.14,10.538,2.285,21.458,5.859,31.688c2.811,7.872,3.102,16.705,8.362,23.562c0.109,1.759,0.218,3.555,0.345,5.351
		c0.998,1.778,1.995,3.555,3.029,5.333c3.337,6.33,5.151,13.259,6.874,20.17c0.979,4.045,3.882,7.473,4.19,11.717
		c1.487,11.065,2.122,23.38-3.102,33.574c-2.14,7.999-2.376,16.325-3.845,24.469c-1.614,10.865,3.192,21.077,3.791,31.742
		c1.433,2.449,2.703,4.988,3.99,7.546c2.666,1.524,4.208,4.571,7.582,4.825c0.998,2.213,3.174,3.084,5.351,3.882
		c2.666,1.995,5.823,2.993,9.142,3.319c1.814,1.342,3.664,2.848,6.058,2.92c10.339,1.741,20.587,4.553,31.18,3.882
		c-0.091,2.031-0.181,4.099-0.29,6.185c-1.125,2.05-1.886,4.244-2.249,6.566c-5.206,1.342-10.665,0.018-15.799,1.633
		c-6.421,1.632-12.497,4.752-17.05,9.613c-3.501,0.653-6.584,2.467-7.999,5.859c-0.726,0.218-2.159,0.671-2.866,0.907
		c-3.845,3.41-8.289,6.24-13.386,7.255c-2.14,1.669-4.262,3.338-6.348,5.043c-3.773,1.342-7.781,2.195-11.282,4.19
		c-9.523,6.62-19.771,12.679-31.271,14.946l0.907,2.431c-0.907,0.018-2.757,0.054-3.682,0.073
		c-4.589,4.027-9.378,8.344-15.653,9.377c-1.832,1.923-3.755,3.827-6.185,4.97c-5.859,1.324-10.284,5.732-14.728,9.468
		c-1.306,0.054-3.9,0.163-5.206,0.218c0.073,0.744,0.236,2.231,0.308,2.975c-4.154,0.653-7.999,2.485-11.627,4.553
		c-8.507,6.04-18.066,10.375-26.591,16.415c-0.073,1.07-0.254,3.247-0.345,4.335c-1.233,0.127-3.7,0.417-4.952,0.544
		c-3.12,1.796-6.421,3.229-9.813,4.408c-3.664,2.521-7.509,4.879-10.611,8.126c-6.24,1.143-11.046,5.442-16.27,8.688
		c-6.729,3.501-12.316,8.852-19.535,11.445c-9.541,6.893-19.735,12.806-29.112,19.952c-7.02,3.138-9.613,11.5-16.597,14.529
		c-5.981,11.033-14.743,20.474-23.819,29.182c-5.344,5.127-9.992,10.981-13.773,17.349c-2.351,4.941-6.446,8.795-10.449,12.526
		c-2.501,2.331-5.003,4.663-7.504,6.994c-4.83,4.502-8.107,11.372-11.382,15.175c-27.931,32.442-72.467,53.164-106.496,80.406
		c-26.373,21.113-54.704,39.65-81.476,60.218c-5.369,4.426-11.373,8.035-17.685,10.956c-7.618,3.519-13.586,9.686-21.022,13.477
		c-7.11,1.705-14.547-0.091-21.258-2.594c-8.616-2.884-16.488,2.83-23.362,7.255c-1.977,3.011-3.845,6.149-4.897,9.65
		c-2.449,6.366-8.525,9.486-14.583,11.681c-2.05-3.083-2.449-7.945-6.475-9.105c-4.643-1.651-9.214-3.845-14.13-4.426
		c-7.999,0.345-12.28,8.199-19.045,11.3c-3.374-0.199-6.639-1.397-10.031-1.125c-5.913,0.635-11.554-2.612-17.467-0.762
		c-2.648-2.739-5.097-5.677-6.929-9.015c-7.745-0.145-15.4-0.78-22.746-3.265c-4.916-1.56-15.254,2.576-15.527-4.97
		c-2.122-0.036-4.226-0.036-6.33-0.018c-12.227-12.857-19.094-30.082-31.527-42.642c-7.211-7.285-29.266-19.806-37.474-7.291
		c-1.795,2.738-3.972,5.24-6.927,6.8c-1.85,13.568-2.539,27.57,1.814,40.775c2.757,8.162,2.902,17.739,8.271,24.759
		c0.308,1.759,0.617,3.555,0.907,5.387c2.775,4.843,5.677,9.613,8.217,14.62c2.902,3.192,5.659,6.602,7.165,10.72
		c6.095,6.602,11.064,14.13,16.796,21.041c5.822,9.432,14.112,16.959,20.116,26.283c2.938,4.027,5.315,8.471,8.579,12.298
		c3.011,5.949,7.147,12.552,4.027,19.372c1.632,6.983,7.165,12.153,8.852,19.172c3.41,4.208,3.954,9.849,6.82,14.402
		c4.516,7.927,9.432,15.599,13.876,23.58c5.042,7.02,12.243,12.171,19.626,16.433c10.484,1.596,18.918-5.659,28.042-9.305
		c6.512-2.812,11.464-8.072,17.467-11.663c3.664-1.215,8.362,0.127,10.756-3.682c9.74-10.629,23.489-15.799,34.354-25.067
		c5.006-0.236,9.541-2.376,13.912-4.643c6.203-3.319,13.568-2.684,19.916-5.532c9.486-3.718,16.687-11.209,25.358-16.306
		c10.411-7.128,20.623-14.656,31.797-20.623c31.071-19.372,65.099-33.465,96.478-52.329c7.981-4.444,16.651-7.455,24.65-11.862
		c36.458-16.379,70.939-37.383,101.648-63.013c7.654-6.222,14.13-13.767,21.948-19.844c12.642-14.039,25.394-27.897,37.42-42.462
		c8.579-6.385,16.361-13.749,23.58-21.657c6.457-5.768,13.622-10.702,20.152-16.397c2.739-2.684,6.766-2.739,10.303-3.537
		c8.307-3.501,15.037-9.686,23.272-13.313c3.628-1.741,5.949-5.895,10.212-6.24c6.602-1.233,12.352-5.115,19.063-5.968
		c1.796-0.671,3.591-1.306,5.387-1.923c4.879-1.505,9.994-2.358,14.656-4.516c0.853-0.163,2.576-0.508,3.428-0.671
		c4.172-1.832,8.815-2.322,12.806-4.589c12.552-2.902,24.052-9.033,36.495-12.243c5.26-2.376,11.01-3.501,16.143-6.131
		c0.907-0.127,2.721-0.399,3.628-0.526c4.68-2.249,9.595-3.99,14.511-5.659c7.854-3.192,15.545-6.729,23.399-9.922
		c7.999-3.138,15.599-7.274,23.761-10.031c13.078-6.639,26.391-12.769,39.705-18.937c4.789-2.43,9.613-4.789,14.729-6.457
		c4.172-2.14,8.434-4.117,12.588-6.33c3.084-0.925,6.113-2.05,8.979-3.537c7.763-3.954,16.089-6.675,23.689-10.956
		c2.539-0.762,5.006-1.687,7.491-2.648c2.884-1.632,5.841-3.138,8.833-4.607c5.061-1.687,9.831-4.154,14.692-6.367
		c1.705-0.925,3.41-1.832,5.133-2.739c4.934-2.213,9.777-4.625,14.529-7.201c0.907-0.453,2.703-1.36,3.609-1.814
		c1.923-0.925,3.827-1.868,5.768-2.757c1.705-0.925,3.428-1.814,5.169-2.666c18.955-11.028,37.565-22.782,54.542-36.712
		c3.211-0.109,6.475-0.381,9.65,0.399c11.282,2.34,22.836,3.483,34.01,6.276c9.704,1.632,19.027,4.952,28.768,6.367
		c7.056,2.83,14.656,3.882,21.875,6.294c2.412,0.526,4.861,1.106,7.255,1.886c0.907,0.218,2.684,0.671,3.573,0.907
		c4.807,1.632,9.831,2.612,14.583,4.444c1.832,0.562,3.682,1.161,5.55,1.759c1.796,0.599,3.609,1.215,5.423,1.868
		c6.094,1.487,12.062,3.483,18.048,5.405c1.814,0.653,3.628,1.342,5.46,2.05c0.889,0.181,2.63,0.526,3.501,0.689
		c7.001,3.428,14.855,4.662,21.802,8.235c4.934,1.723,9.922,3.356,14.638,5.695c0.871,0.127,2.594,0.381,3.464,0.508
		c5.296,2.684,11.137,4.063,16.452,6.729c0.871,0.145,2.594,0.417,3.464,0.544c3.483,1.941,7.274,3.21,11.028,4.607
		c1.832,0.653,3.664,1.324,5.514,2.05c0.871,0.145,2.612,0.453,3.483,0.617c8.797,3.791,18.048,6.621,27.262,9.323
		c8.416,2.612,16.778,5.387,25.412,7.255c15.617,3.845,31.289,7.89,47.341,9.432c13.078,1.578,26.41,4.281,39.578,1.759
		c14.13-1.868,28.514-3.192,41.864-8.543c2.43-1.306,4.897-2.539,7.437-3.664c6.258-3.21,12.044-7.328,17.467-11.772
		c10.684-10.811,23.671-18.773,35.914-27.643c30.745-22.818,58.188-49.482,88.479-72.898c13.677-10.411,26.646-21.857,41.193-31.089
		c11.191-5.514,22.909-9.885,34.536-14.347c1.741-0.943,3.519-1.868,5.296-2.775c2.54-0.725,5.024-1.651,7.491-2.63
		c3.9-2.376,8.09-4.317,12.516-5.532c4.244-2.122,8.561-4.136,12.715-6.494c0.871-0.145,2.63-0.435,3.519-0.562
		c0.707-0.399,2.159-1.197,2.866-1.578c19.354-6.385,35.896-18.864,54.433-27.153c29.112-16.27,59.567-30.219,87.808-48.013
		c7.963-3.845,14.148-10.466,22.201-14.148c1.814-3.374,3.301-7.473,7.02-9.214c8.362-3.936,17.703-5.913,25.448-11.083
		c7.473-1.288,14.982-2.322,22.564-2.648c12.352-1.234,20.641-12.243,32.794-14.166c18.011-5.659,37.855,1.759,55.286-6.53
		c9.632-3.319,17.177-10.52,23.707-18.084C2141.676,859.835,2140.37,850.603,2137.722,843.021z M841.005,159.347
		c-2.521,1.741-4.843-2.648-2.63-4.262C840.878,153.288,843.236,157.75,841.005,159.347z"/>
	<path opacity="0.86" enable-background="new    " d="M1091.243,492.006c-4.317,1.941-3.374-4.154,0.453-3.247
		C1091.587,489.575,1091.352,491.189,1091.243,492.006z"/>
	<path opacity="0.26" enable-background="new    " d="M1091.696,488.759l1.125-0.254c0.29,3.755,0.49,7.727,2.866,10.883
		c-1.379,2.63-2.757,5.242-4.135,7.872c-4.281,1.778-8.344,4.027-12.225,6.548c1.433-4.68,3.464-9.378,3.047-14.384
		c2.703-1.941,5.532-3.737,8.289-5.623c0.145-0.453,0.435-1.342,0.58-1.796C1091.352,491.189,1091.587,489.575,1091.696,488.759z"/>
	<path opacity="0.38" enable-background="new    " d="M1081.775,497.737c-2.068-2.304-1.923-5.569,0.435-7.618
		c0.834,0.49,2.503,1.451,3.338,1.941C1084.749,494.219,1083.189,495.96,1081.775,497.737z"/>
	<path opacity="0.28" enable-background="new    " d="M1071.454,501.51c2.158-1.342,4.335-2.666,6.53-3.99
		c0.653,4.498,1.143,9.015,1.487,13.549c-1.125-0.163-3.392-0.472-4.535-0.617C1074.211,507.315,1073.014,504.322,1071.454,501.51z"
		/>
	<path opacity="0.1" enable-background="new    " d="M1091.551,507.26l1.995-0.834c-0.29,1.125-0.889,3.374-1.197,4.517
		c1.397,0.689,2.793,1.397,4.226,2.104c-0.236,1.524-0.435,3.047-0.635,4.571c0.798,1.07,1.596,2.159,2.431,3.247
		c-1.542,1.632-3.047,3.283-4.571,4.952c1.542,0.925,3.065,1.868,4.625,2.812c-2.521,2.993-4.281,6.475-4.462,10.448
		c-0.308,2.993-3.882,3.338-6.004,4.462c-1.106-5.732-2.775-11.337-4.934-16.742c-1.596-4.226-3.029-8.525-3.7-12.987
		C1083.207,511.287,1087.27,509.038,1091.551,507.26z"/>
</g>
</svg>
