<?xml version="1.0" encoding="utf-8"?>
<!DOCTYPE svg PUBLIC "-//W3C//DTD SVG 1.1//EN" "http://www.w3.org/Graphics/SVG/1.1/DTD/svg11.dtd">
<svg version="1.1" id="Layer_1" xmlns="http://www.w3.org/2000/svg" xmlns:xlink="http://www.w3.org/1999/xlink" x="0px" y="0px"
	 viewBox="0 0 2635.6218 1537.5449" enable-background="new 0 0 2635.6218 1537.5449" xml:space="preserve">
<g>
	<path d="M2596.1804,636.6423c-2.3423-7.9293-10.9368-11.9327-18.9641-10.8772c-11.1548,1.4667-22.3894,2.714-33.6228,3.0974
		c-12.4548,0.4249-24.9563-0.6337-37.4197-0.3171c-18.3213,0.4651-36.658,2.8634-54.9465,0.3871
		c-17.9578-2.4315-36.0793-1.3683-54.1345-4.3594c-15.0715-2.4967-30.1819-4.3416-44.9187-8.5848
		c-6.5674-1.8909-13.218-4.0659-19.9585-4.6544c-10.895-0.9514-21.8279,0.3643-32.7383,1.3708
		c-17.2629,1.5925-34.2368,6.125-51.8516,4.3438c-13.9258-1.4081-28.1335,0.381-41.771-4.4207
		c-6.3274-2.228-8.0923-4.8522-6.1716-11.1953c4.9326-16.2899,16.3074-26.5516,31.4324-32.8643
		c17.4226-7.2717,35.1174-13.8607,51.5261-23.3932c5.7344-3.3311,11.8264-5.9026,18.6296-6.822
		c9.6602-1.3055,19.3662-2.7427,28.8052-5.1106c14.7642-3.7043,29.5264-7.3654,43.7483-13.19
		c9.478-3.8818,19.4426-6.6505,28.7837-11.0339c18.0242-8.4586,36.7073-13.7808,56.863-14.7375
		c18.6958-0.8872,37.5176,1.8549,56.0933-1.9875c14.3301-2.9642,29.3445-4.4749,38.0601-18.8362
		c0.8792-1.4488,2.2383-2.6498,3.5208-3.8034c5.6182-5.0519,8.8928-11.2335,10.1089-18.749
		c0.8191-5.0614,2.2793-10.0125,5.4172-14.3436c2.5229-3.4834,1.1306-13.2005-2.3599-14.4354
		c-3.7559-1.3289-8.1624-4.2524-10.8691-4.0833c-8.9885,0.5616-17.7729-2.191-26.8489-0.4866
		c-5.5737,1.0465-10.9602,3.0356-16.8132,3.2108c-9.9514,0.2975-20.0305,0.6431-29.7788,2.4576
		c-16.9563,3.1563-34.1426,4.3259-51.1924,6.2592c-21.4539,2.4327-42.8318,5.6801-64.5383,6.5133
		c-24.8721,0.9551-49.7371,3.9052-74.5803,4.8824c-25.7744,1.0138-49.3552,7.5242-71.9585,19.0516
		c-18.5286,9.4498-38.1763,16.274-57.2434,24.4585c-12.0549,5.1743-24.4531,9.6194-36.8938,13.8089
		c-21.8042,7.3429-42.5,17.9546-65.3074,22.3069c-4.6533,0.8882-9.3962,1.1468-13.7136,3.452
		c-8.5779,4.5802-17.6613,7.8881-26.9852,10.6298c-20.6978,6.0856-39.8455,14.4994-52.0533,33.8395
		c-2.6014,4.1214-5.7068,8.8146-10.6884,10.0948c-12.0747,3.103-23.2627,8.2849-34.5533,13.3094
		c-9.062,4.033-18.0784,8.1298-26.8206,12.8523c-11.0948,5.9934-21.9767,12.6712-33.6675,17.2043
		c-17.7473,6.8815-32.6558,18.7377-49.8064,26.4753c-4.8204,2.1747-8.1726,6.1672-12.6844,8.6758
		c-8.0042,4.4504-15.9661,9.0124-23.6737,13.9521c-9.4999,6.0883-18.8965,12.3699-28.0248,18.9989
		c-15.3833,11.1713-32.1643,20.3719-46.2004,33.4962c-3.5785,3.3457-6.6134,7.7186-11.2263,9.7388
		c-9.8757,4.3251-13.762,13.038-16.2159,22.3409c-2.3044,8.7356-4.5907,17.3853-8.765,25.4299
		c-0.8571,1.6515-1.1318,3.5364-0.5389,5.0369c1.6781,4.2466,1.0288,8.4788-0.224,12.4335
		c-0.9935,3.1366,0.2301,8.4009-2.6429,8.9768c-2.4867,0.4983-2.9852-4.8387-4.5194-7.4586
		c-1.3062-2.2308-3.5165-3.9192-3.5739-6.8277c-0.1284-6.5179-3.7882-11.5455-7.1826-16.6265
		c-1.1742-1.7574-2.4335-3.326-3.0198-5.4567c-4.0392-14.6802-6.0098-29.561-5.0303-44.8126
		c0.5411-8.4236,2.2419-17.1263,0.8124-25.244c-2.4176-13.7297,0.1904-26.7548,2.7717-39.8266
		c2.2603-11.4465,5.7635-22.6497,8.769-33.9466c4.5873-17.2419,5.8087-34.7872,8.798-52.1249
		c3.254-18.8735,14.7238-38.6041,21.1067-56.7631c17.1223-48.7115,26.3013-99.8651,43.4735-148.0182
		c3.3646-9.4652,4.9585-19.295,7.2136-28.9555c2.0339-8.7126,4.0255-17.4552,5.9399-26.2006
		c1.8103-8.2712,6.8475-15.5779,7.1011-24.1665c0.274-9.2812,3.9688-17.4626,7.0859-25.9325
		c4.8486-13.1741,9.7583-27.2061,11.9751-41.167c2.2456-14.1427-6.5968-26.2005-16.9014-34.9646
		c-4.1199-3.5039-9.1528-6.1675-14.5481-6.5417c-6.2076-0.4306-12.3145,2.216-17.2228,6.0406
		c-6.9631,5.4256-13.2705,13.1879-18.7909,20.0334c-6.1317,7.6035-11.5664,15.748-16.6597,24.0748
		c-13.5045,22.0778-16.449,46.8363-26.4133,70.3951c-4.2711,10.0985-6.8417,21.1878-6.858,32.4887
		c-0.0027,1.8639-0.8621,3.2974-1.7224,4.7944c-5.9365,10.3269-11.3629,20.9673-15.1392,32.2318
		c-10.9564,32.6835-23.4274,64.8084-35.7894,96.9557c-11.7374,30.5233-26.6062,59.7695-37.9655,90.488
		c-5.1808,14.0099-11.3113,27.6712-16.3875,41.716c-2.2909,6.3393-5.462,11.7866-10.2032,16.3926
		c-3.0569,2.9699-5.4901,6.3492-7.822,9.9014c-3.1455,4.7917-7.2263,8.5383-13.5752,7.9891
		c-6.9379-0.6001-13.6313-2.3235-19.3652-6.3732c-10.5391-7.4434-18.1165-16.7278-21.5439-29.8187
		c-2.9629-11.3162-5.162-22.6971-6.6614-34.199c-1.9799-15.1884-2.1643-30.6591-4.871-45.6933
		c-3.8513-21.3953-6.2494-42.9649-8.1472-64.5172c-2.1678-24.6198-2.6982-49.3946-5.616-73.9786
		c-1.8101-15.2521-3.3763-30.5051-4.1887-45.8657c-0.4568-8.6309,0.9731-17.5613-1.2585-25.8428
		c-5.532-20.53-4.8934-41.4636-5.4395-62.3282c-0.3418-13.0593,0.4403-26.1625-1.231-39.1649
		c-2.5948-20.1877-15.6405-40.2514-34.9943-47.8251c-4.9777-1.9479-10.4485-3.1059-15.6812-2.0144
		c-6.8903,1.4371-12.5192,6.6436-16.1021,12.7022c-6.6226,11.1985-8.9502,24.9483-9.7998,37.7135
		c-2.3027,34.5963,0.1207,69.0659,0.4454,103.5667c0.3506,37.2415,2.1796,74.4719,5.1768,111.6433
		c1.8196,22.5687,2.8136,45.2154,4.8069,67.7824c2.6063,29.507,0.7212,59.1031,1.6952,88.6517
		c0.3508,10.6494-3.8785,21.2547-3.6068,32.1161c0.0917,3.6736-1.2146,5.2329-4.3553,6.7249
		c-5.8654,2.7863-11.1611,6.9606-17.2048,9.1422c-11.4681,4.1397-15.6669,13.1924-18.2828,23.7948
		c-0.6427,2.605-0.6664,5.8734-2.2827,7.6389c-6.7913,7.4169-7.2982,16.9575-8.7136,25.8667
		c-1.9343,12.1754-7.6696,22.8737-11.4434,34.3049c-1.2458,3.774-3.5034,7.5781-6.6802,10.4768
		c-1.4713,1.3428-20.8158,21.7877-24.0159,32.6801c-4.0967,13.9438-14.3083,24.2982-22.0941,36.0769
		c-4.3654,6.6043-9.9254,12.4382-10.8735,21.0718c-0.8357,7.6074,1.4066,14.5491,3.4583,21.3834
		c3.1881,10.619,4.3763,21.0337,0.8732,31.6155c-1.3268,4.0086-1.8746,8.1635-3.0798,12.1474
		c-5.2551,17.3677-1.0679,34.9459-0.7004,52.33c0.2502,11.8445,2.9913,23.8212,3.7787,35.795
		c1.2728,19.3478,4.7032,38.2996,9.8945,56.8868c4.3768,15.6714,11.752,30.137,19.9546,44.1873
		c6.2504,10.7067,12.0939,21.6509,18.125,32.4857c3.3319,5.986,7.116,11.7034,9.8114,18.0627
		c4.533,10.6945,4.3185,21.6439,2.1659,32.6946c-1.8975,9.7389,0.3792,19.6992-1.3341,29.3075
		c-5.427,30.437-13.2526,60.4077-23.8094,89.3699c-14.1431,38.8-22.0332,79.536-28.0203,120.2941
		c-3.0104,20.494-5.5261,41.0559-8.1064,61.6073c-0.8076,6.4316-6.1678,26.3961-6.6565,40.1018h794.5011
		c1.3002-12.3204-1.5236-28.8607-1.8341-38.7408c-1.1698-37.2286-3.1923-77.0898-10.5277-113.4609
		c-3.0276-13.5491-5.3384-27.2769-8.2849-40.8671c-6.2045-28.6173-15.4214-56.3373-24.7798-84.0146
		c-4.2848-12.672-8.9763-25.2061-13.2996-37.8654c-4.2896-12.5613-6.272-25.7003-12.2306-37.9498
		c-6.5437-13.4529-10.1437-28.2822-16.6542-41.91c-9.5991-20.0927-18.572-40.489-28.4001-60.4666
		c-6.4872-13.1869-12.7798-26.4199-15.7096-40.8435c-3.1863-15.6848-2.1575-30.3664,13.5724-39.8464
		c1.2844-0.774,2.2666-2.0421,3.4154-3.051c4.0468-3.5544,8.2478-6.941,13.5133-8.4756
		c15.3446-4.4724,30.1234-10.7515,45.7697-14.2598c12.4318-2.7875,23.4503-9.4521,35.7142-12.8776
		c13.3939-3.741,26.4886-8.5677,39.6699-13.0508c14.3625-4.8851,29.0869-8.3619,44.2375-8.2512
		c6.9001,0.0502,13.751,0.8694,20.3411-1.4114c2.6611-0.9209,5.2483-1.4583,7.8538-1.0414
		c11.3113,1.81,22.845,2.3245,33.8682,5.8518c7.405,2.3696,14.4619,5.6102,21.6091,8.4734
		c9.9319,3.9787,19.8567,9.0908,30.9419,9.866c0.9153,0.064,1.4607,0.4444,1.3428,1.3806c-0.4968,3.938,2.9053,4.7715,5.2188,5.9942
		c14.6694,7.7534,30.2026,13.184,46.6724,15.3272c18.9937,2.4717,38.2712,1.9691,57.2268,4.9437
		c10.4268,1.6362,20.8286-2.4633,31.4253,0.6184c3.5732,1.0391,9.1572-0.4239,11.804-4.465
		c5.4292-8.2893,10.6733-17.0189,9.3059-27.4163c-0.7739-5.8858-0.863-12.5198-5.0059-17.2792
		c-9.0488-10.3958-22.073-13.5883-34.5049-17.4421c-9.0481-2.8048-18.3442-4.9187-27.6416-6.7799
		c-8.2058-1.6424-16.0481-4.6451-24.6536-4.9702c-8.8855-0.3356-18.0195-1.4574-25.7041-6.7245
		c-6.769-4.6398-13.207-9.7609-19.8147-14.6382c-14.9456-11.0326-30.5491-21.219-47.0266-29.6111
		c-13.8193-7.0381-21.321-18.5477-27.9631-31.3061c-2.1165-4.0656-1.1519-7.6876,1.9949-11.551
		c5.0237-6.1677,9.9219-12.5624,13.2031-19.9785c2.4783-5.6008,7.1416-8.13,13.386-7.5488
		c16.1985,1.5077,32.4512,0.8409,48.677,1.2315c17.7346,0.427,35.1047-3.2334,52.4751-5.8044
		c23.2656-3.4436,46.3892-8.1373,68.9683-15.0881c6.9456-2.1382,14.1282-3.3088,21.522-2.7724
		c17.0269,1.2353,34.0874,2.0511,51.0918,3.5266c11.6863,1.014,23.4094,0.3537,35.0391,1.1754
		c19.0525,1.3461,38.0977,0.5806,57.1328,1.1426c15.8274,0.4673,27.6423-5.6803,35.821-19.2529
		c4.772-7.9185,8.8376-15.665,3.9419-25.1353c-1.5125-2.9254,0.4121-4.9688,3.2437-6.2706
		c10.7112-4.9241,19.6875-11.474,26.8423-21.4596C2599.4639,654.9462,2598.9663,646.0756,2596.1804,636.6423z M1716.2463,1409.9988
		c-0.7148,5.8572-3.0387,9.7267-6.9575,13.3715c-0.3101,0.2885-0.1158,1.1062-0.1788,1.6754
		c-0.4811,4.3478-4.2216,13.9724-5.1362,17.4974c-0.6472,2.4945-2.2764,13.4706-3.6456,14.9388
		c-3.9603,4.2469-13.7053-0.9314-18.6021-2.5043c-35.1985-11.3064-70.1356-23.4266-104.7739-36.348
		c-3.194-11.0834-4.4517-17.7902-4.4517-29.0435c-0.5594-28.189,6.3973-55.5782,10.5956-83.2726
		c1.8057-11.9098,5.0386-23.4395,7.5483-35.1531c3.2693-15.2581,4.8678-30.8665,7.7356-46.2214
		c1.1411-6.1107,0.6052-12.8285,5.9791-17.9569c1.5923-1.5198,0.7959-5.7678,0.7338-8.7582
		c-0.3002-14.4412,4.578-27.8734,8.3654-41.4426c2.3047-8.2571,3.9407-16.4374,3.4261-24.9358
		c-0.2242-3.7037,0.6858-6.7502,2.797-9.6331c9.0568-12.3666,17.1404-25.3311,23.7966-39.1531
		c1.7889-3.7147,4.4271-6.4623,7.6893-9.0127c3.3451-2.6151,5.3756-1.6729,7.8049,0.9309
		c5.2615,5.6392,8.3535,12.3004,9.3987,19.8606c2.4906,18.0193,4.8525,36.0566,7.2443,54.0896
		c0.4999,3.7679,3.1899,7.1404,2.1521,11.2251c-1.8212,6.7026-1.7786,13.2662-0.158,20.1451
		c1.2925,5.4874,4.3524,10.1094,5.792,15.4326c2.3224,8.5873,2.0597,17.421,2.8566,26.1627
		c0.8389,9.2015,3.869,18.0016,4.7285,27.3389c1.0283,11.1713,2.6664,22.3748,4.9347,33.4895
		c3.7031,18.1436,7.59,36.2155,12.6274,54.0254c5.5283,19.5446,10.1906,39.2227,10.8424,59.6432
		C1719.5469,1401.2722,1716.7783,1405.6405,1716.2463,1409.9988z"/>
	<path d="M331.139,1498.512c-0.0189-0.0922-0.0445-0.1936-0.0612-0.2831c-1.2736-6.8058-3.5486-13.5068-4.4691-20.3683
		c-1.5851-11.8156-2.953-23.6602-4.1031-35.5259c-2.5087-25.8831-6.002-53.2943-3.6941-79.259
		c1.3225-12.0801,3.986-24.0166,5.2198-36.1021c1.3794-13.5106,3.6674-26.8516,5.8449-40.2274
		c0.9872-6.0649,2.3511-12.1418,2.5629-18.2473c1.0581-30.5033,2.898-60.9805,1.8214-91.5475
		c-1.3303-37.769-2.0397-75.5598-3.0395-113.3407c-0.0583-2.2018,0.4978-3.8782,2.079-5.6565
		c5.3399-6.0059,10.7388-12.0208,13.2013-19.994c0.7463-2.4165,2.5276-4.3069,4.6647-5.7311
		c20.9061-13.9306,40.6749-29.3638,59.6177-45.8248c12.734-11.0657,24.6925-23.035,37.5859-33.9025
		c11.4394-9.6418,17.6028-22.0976,21.4773-35.9323c3.4638-12.368,7.7079-24.4467,13.0627-36.0549
		c4.3615-9.455,7.6787-19.6818,15.0593-27.4114c9.3407-9.7828,19.5615-18.7095,28.1638-29.2238
		c3.4408-4.2057,8.4048-6.2385,13.575-6.9077c5.7498-0.7443,11.4253-2.3492,16.5828-4.2846
		c22.1808-8.3233,43.8508-17.965,65.3827-27.871c9.7448-4.4833,19.1829-9.7517,29.7098-12.238
		c26.0259-6.1471,50.9753-15.4354,75.6231-25.6139c14.5137-5.9935,28.8127-12.6711,44.0301-16.6416
		c22.7668-5.9402,45.709-11.2092,68.5796-16.7506c9.0875-2.2019,10.88-0.9512,11.23,8.4904
		c0.4664,12.5828-3.1085,24.6567-5.1362,36.9113c-2.431,14.692-5.3224,29.35-7.4031,44.0524
		c-1.7562,12.4091-3.7728,24.8854-4.5013,37.4634c-0.3995,6.8992-1.8591,13.9048-1.0944,20.6649
		c1.1752,10.3887-0.7752,20.3901-3.1048,30.0815c-2.7648,11.5029-7.3799,22.6295-11.9112,33.6232
		c-6.4962,15.7607-14.7817,30.8652-20.2624,46.9454c-10.0229,29.4073-17.2955,59.6876-23.5842,90.093
		c-5.6648,27.3884-11.5821,54.7195-17.6937,82.0026c-6.343,28.316-15.8248,55.8871-20.57,84.5955
		c-1.7018,10.2957-2.6571,20.7332-4.5002,30.9902c-7.3566,40.9397-14.5627,81.9065-20.6785,123.0498
		c-5.7465,38.6591-11.487,77.3188-17.2441,115.9763h308.5926c-0.1066-3.4446-0.6365-6.9741-0.6522-10.0242
		c-0.0576-11.1589-0.6133-22.3081-2.2878-33.3408c-2.193-14.449-2.0898-29.5845-4.8549-43.9937
		c-1.6674-8.6888-4.1194-17.2823-5.0609-26.0972c-2.1426-20.0596-1.5008-40.1328-3.0085-60.1686
		c-1.8586-24.6985-3.9807-49.3518-3.1179-74.1718c0.9107-26.1918,3.7631-52.2673,3.6597-78.5392
		c-0.0778-19.7439,1.5377-39.5001,2.5978-59.2402c0.5954-11.0883,1.5988-22.121,1.3231-33.2799
		c-0.2977-12.0402-0.9112-24.2659,1.2301-36.1342c5.0078-27.7571,6.9627-55.9423,12.1785-83.641
		c1.8674-9.9166,3.0772-20.1547,9.0788-28.8892c3.9061-5.6847,9.7821-9.1353,14.6569-13.7119
		c14.1106-13.2483,26.4779-28.1353,41.2404-40.8931c18.2662-15.7855,33.5745-34.7264,48.7648-53.5973
		c11.2238-13.9434,20.043-30.0292,35.2177-40.569c0.7413-0.5149,1.2721-1.4528,1.6873-2.2986
		c3.5299-7.1918,8.9069-13.0664,14.4664-18.5481c7.8525-7.7424,16.2871-14.7758,25.2543-21.4396
		c13.4304-9.9805,25.0313-22.3538,39.769-30.9028c15.361-8.9108,29.8367-19.4017,46.7734-25.3828
		c2.2924-0.8096,3.8162-2.4449,5.5024-4.0338c5.3718-5.0603,8.2886-11.936,12.9757-17.4081
		c3.1296-3.6536,4.2808-6.9747,2.9893-11.4809c-1.5323-5.3457-3.2661-10.6909-4.131-16.1599
		c-2.4578-15.5396-6.3357-30.7347-10.8433-45.7562c-3.4241-11.4108-6.0261-12.5996-17.811-12.9885
		c-18.4354-0.6085-36.373,2.2891-54.0496,6.9955c-8.5299,2.2711-17.7615,3.3405-23.8556,11.1722
		c-1.3954,1.7929-3.9751,2.1136-6.2787,2.6031c-5.8813,1.2497-11.8381,0.7829-17.7493,1.1691
		c-21.6487,1.4144-43.0646,4.5553-63.9899,10.5023c-3.7126,1.0552-5.7305-0.2239-8.0018-3.4691
		c-6.6617-9.5176-11.9352-19.968-19.6046-28.8168c-2.9812-3.4399-7.5254-4.853-10.3312-8.0249
		c-12.208-13.8008-27.6316-23.4586-42.5459-33.7409c-4.3568-3.0037-5.7866-5.6324-2.9562-10.3056
		c1.27-2.0971,2.2941-4.5012,2.7519-6.8959c0.7422-3.8832,2.9076-5.6864,6.5093-7.1623
		c11.0787-4.5396,23.9452-6.5851,31.3115-17.1581c7.2013-10.3363,16.8145-12.7441,28.3374-12.1619
		c7.9113,0.3997,16.3462-1.8896,22.7878,4.9145c5.8561,6.1856,13.2489,8.0635,21.4104,8.3487
		c4.6024,0.1609,9.1842,0.8615,13.78,1.2654c10.917,0.9595,11.8737,1.758,13.1766,12.6679
		c2.3693,19.8431,9.9036,37.2657,23.7939,51.804c1.8521,1.9385,3.3082,3.9689,3.722,6.9164
		c1.4922,10.6226,1.6257,10.6469,12.3278,11.2017c2.4817,0.1285,5.002-0.3807,7.4735-0.1923
		c7.2131,0.5502,11.5577-5.8121,17.8113-7.2587c11.0909-2.5661,21.3816-7.4576,32.208-10.6403
		c14.5587-4.2796,22.2781-13.8588,26.5555-27.9673c3.1235-10.303,5.371-20.808,8.4863-31.0969
		c3.8352-12.6657,6.5588-25.769,12.0802-37.7773c3.2478-7.0638,5.1174-13.7818,4.099-21.3839
		c-0.6445-4.8117-1.6748-9.5904-4.877-13.3211c-5.0358-5.8668-9.3302-12.2239-12.9784-18.9704
		c-9.9414-18.3851-17.0558-38.1177-26.7343-56.6544c-2.0532-3.9323-5.2512-8.3091-5.7521-11.81
		c-1.1913-8.3278-4.0203-15.9658-6.5698-23.7422c-6.8766-20.9749-13.6749-42.0101-26.001-60.667
		c-2.7279-4.1289-6.2217-6.7702-10.9885-8.6576c-8.3833-3.3194-16.3147-0.4708-24.415,0.3471
		c-1.9633,0.1982-3.8578,0.6683-5.4564-0.7667c-4.4229-3.9696-9.0157-7.7868-13.1067-12.0786
		c-4.5815-4.8068-7.8103-11.4358-13.1677-14.8675c-14.2692-9.1398-30.0188-8.4945-45.739-3.6598
		c-9.8202,3.0204-17.9105,9.2695-26.7338,14.1989c-12.4808,6.9731-24.6619,14.554-37.5416,20.8043
		c-7.546,3.6619-13.2545,10.1346-21.0983,13.2985c-5.3333,2.1512-10.6725,4.3678-15.381,7.7442
		c-14.4984,10.3967-30.1151,18.9474-46.1252,26.6174c-16.6945,7.9983-31.4593,19.0184-47.0646,28.6704
		c-18.7205,11.5788-37.4781,23.0909-56.5551,34.0481c-12.1104,6.9558-24.6603,13.2341-35.2142,22.46
		c-6.6407,5.8054-12.5556,12.6227-13.5609,22.0205c-1.1475,10.7283-1.0833,21.5278,0.926,32.1258
		c1.9603,10.3392,0.813,20.0981-2.7816,29.8855c-10.1044,27.5118-15.652,56.1313-20.0164,85.0048
		c-0.5405,3.5759-0.8026,7.3551-0.274,10.9033c2.4354,16.3506,3.0742,32.8226,3.7864,49.2924
		c0.2391,5.5305-1.6597,7.2549-7.272,6.9536c-3.8417-0.2061-7.6525-0.1704-11.5049,0.0813
		c-18.9828,1.2402-37.6915,4.4735-56.2617,8.2776c-11.4697,2.3496-23.0446,3.8881-34.568,5.7163
		c-12.7382,2.0208-24.8405,6.6155-37.4582,8.6706c-20.0427,3.2646-40.1913,5.7717-59.9317,10.7739
		c-25.4866,6.4581-50.5497,13.9985-73.7926,26.6389c-2.7348,1.4872-5.6066,2.5352-8.8242,1.82
		c-18.7499-4.1675-37.6924-3.6987-56.6656-2.2968c-5.2321,0.3866-10.9137-0.576-13.5099-4.5951
		c-2.7781-4.3004-6.4068-8.1128-8.5674-12.7584c-3.6561-7.8611-6.4678-16.6201-11.0193-23.4464
		c-5.6015-8.4008-10.4471-17.2979-15.4908-25.9009c-9.6297-16.4247-17.5627-33.8663-25.8052-51.0751
		c-5.609-11.7104-9.7093-24.053-13.9109-36.3428c-9.2465-27.0466-14.879-55.0243-20.5844-82.9037
		c-2.8178-13.7687-5.7812-27.3244-10.9132-40.3678c-2.8378-7.2127-4.9398-14.2759-3.517-22.2999
		c2.5867-14.5876,3.0015-29.5199,2.1407-44.1568c-1.4489-24.6375-1.1294-49.3221-3.0596-73.9482
		c-1.4095-17.9844-2.604-35.9034-6.8661-53.4972c-0.5388-2.2242-0.4877-4.5425,0.1641-6.736
		c2.6645-8.9681,3.1151-18.126,3.0754-27.3753c-0.0518-12.0877-1.4554-24.1375-1.7228-36.159
		c-0.396-17.7968,1.5671-35.6061,4.4427-53.2371c2.7566-16.9013,1.3078-32.7349-11.1737-45.959
		c-1.403-1.4864-2.0681-3.642-3.2705-5.3499c-3.8944-5.532-6.9187-12.2287-15.3594-11.9536
		c-1.1264,0.0366-2.5035-0.5332-3.3499-0.0676c-11.4491,6.2949-24.8691,10.0015-32.0058,22.2138
		c-3.3528,5.7371-6.3809,11.9889-7.9083,18.3999c-3.1125,13.0635-5.3239,26.3091-6.4838,39.7924
		c-1.1777,13.6886-0.7682,27.2688,1.0552,40.6911c3.4095,25.0986,1.1185,49.6808-3.5769,74.3568
		c-3.2955,17.3189-6.4411,34.7062-7.5254,52.388c-0.9758,15.9126,1.2975,31.768,0.3863,47.6666
		c-0.7785,13.5839-1.1289,27.1981-2.1843,40.7589c-1.457,18.72-3.6849,37.3812-5.0655,56.1058
		c-2.0949,28.4101,5.8625,55.8548,8.8462,83.7814c0.4919,4.6042-0.1413,7.4611-4.07,9.4382
		c-11.3866,5.7308-22.0037,12.8878-33.7413,17.9775c-14.4024,6.2452-28.2743,13.15-34.6044,29.1119
		c-1.1169,2.8163-2.9482,5.4042-4.7438,7.8847c-3.4684,4.7914-6.3841,10.2178-12.2829,12.6154
		c-12.6329,5.1346-24.6238,11.526-36.477,18.2256c-4.8212,2.725-10.5396,4.2079-14.7336,7.6257
		c-8.9013,7.2538-16.7075,15.7215-22.8164,25.5893c-8.064,13.0261-14.5027,26.6032-15.4623,42.2646
		c-0.9327,15.2211,0.2664,30.3168,2.1269,45.3909c2.9359,23.7869,2.3595,47.3842-2.455,70.9648
		c-2.4337,11.9194-4.8193,24.0726-0.1621,36.2336c8.0786,21.0949,15.4813,42.4136,21.9735,64.0755
		c4.5434,15.1594,6.5757,30.7413,9.8777,46.0991c3.456,16.0736,4.7007,32.3621,5.537,48.5555
		c1.2489,24.1806,0.676,48.4703,0.4044,72.7082c-0.1542,13.7612-0.6416,27.5573-2.8828,41.1979
		c-2.3333,14.2021-4.4204,28.4659-4.6614,42.8531c-0.1527,9.1141,1.6066,18.26,1.4599,27.3749
		c-0.2927,18.2026-0.6586,36.451-2.2675,54.5677c-1.3355,15.0372-2.6289,24.5121-8.9476,38.2197
		c-5.6165,12.1846-14.5121,22.5994-19.685,34.9983c-5.0635,12.1367-2.814,24.6523-3.4227,37.2965
		c-0.7113,14.7737-3.8784,29.7233-5.3681,44.4709c-3.1542,31.2238-4.7434,62.5739-7.1538,93.8577
		c-0.5846,7.5872-1.2139,15.1713-1.9279,22.749c-0.249,2.6431-0.9964,5.3295-1.5446,7.9491H331.139z"/>
</g>
</svg>
