<?xml version="1.0" encoding="utf-8"?>

<!DOCTYPE svg PUBLIC "-//W3C//DTD SVG 1.1//EN" "http://www.w3.org/Graphics/SVG/1.1/DTD/svg11.dtd">
<svg version="1.1" id="Layer_1" xmlns="http://www.w3.org/2000/svg" xmlns:xlink="http://www.w3.org/1999/xlink" x="0px" y="0px"
	 viewBox="287.76 188.2885 1671.24 1592.8829" enable-background="new 287.76 188.2885 1671.24 1592.8829" xml:space="preserve">
<path d="M1506.42,649.43c137.88-141.31,275.64-282.72,413.58-423.97v81.95c-184.2,188.66-368.16,377.56-552.37,566.21
	c-2.84,2.86-5.89,5.64-7.71,9.31c-5.39,10.75-11.3201,21.51-19.8101,30.18c-11.02,11.79-25.64,19.07-38.49,28.52
	c-11.5599,11.1-22.36,22.98-33.7,34.3c-199.14,204.19-398.3,408.36-597.4301,612.56c-50.61,51.8201-101.1,103.75-151.76,155.51
	h-79.98c62.4-63.6801,124.52-127.65,186.83-191.4301c4.23-4.4199,8.67-8.6499,12.65-13.2899c-5.32-2.9501-10.56-6.29-14.56-10.9401
	c-7.34-8.24-11.53-19.27-11.23-30.3199c-0.04-5.75,2.08-11.26,1.89-17.01c-1.27-44.72-2.07-89.46-3.31-134.1801
	c-41.32-1.9399-82.65-3.95-123.98-5.71c-5.32-0.36-10.66-0.78-16-0.42c-22.21,106.87-44.73,213.6901-67.03,320.54
	c-0.58,2.8201-1.47,5.6-1.63,8.51c0.64,1.77,2.33,2.91,3.52,4.33c12.15,12.3501,15.38,32.27,8.18,47.9701
	c-0.1995,0.4745-0.4083,0.9438-0.6262,1.4082C407.4946,1736.1589,394.4283,1744,380.399,1744h-16.9759
	c-9.6328,0-19.032-3.4781-26.031-10.0967c-8.6404-8.1707-9.4141-16.9224-10.6321-25.1333
	c10.48-250.25,20.4566-500.52,30.9066-750.77c0.0833-4.8333-0.0833-8.4167-0.0966-13.62c22.85-25.45,45.22-51.32,67.96-76.87
	c2.95-2.75,2.64-7,3.33-10.64c5.34-34.35,32.05-64.14,65.55-73.36c2.91-0.92,6.36-1.15,8.4-3.72
	c27.45-31.21,54.93-62.39,82.44-93.55c2.3-2.8,5.65-5.29,5.82-9.22c1.72-14.25,2.58-28.7,6.39-42.6
	c5.0099-17.03,13.8-32.56,21.52-48.44c5.58-11.56,13.19-21.93,20.74-32.24c7.65-11.98,12.38-25.5,18.98-38.05
	c5.72-11.67,9.62-24.2,12.37-36.89c2-7.16,4.67-14.13,7.84-20.86c2.79-6.08,4.71-12.51,7.3-18.68c2.86-6.46,4.91-13.3,8.73-19.3
	c12.02-24.27,31.32-43.9,51.45-61.6c6.52-6.31,14.33-10.99,21.67-16.25c7.69-5.45,15.73-10.35,23.76-15.28
	c5.96-3.67,12.54-6.17,18.84-9.2c12.01-5.62,24.71-9.62,36.66-15.38c9.96-4.72,19-11.1,28.87-16.01
	c17.3-8.32,30.97-22.55,48.46-30.55c8.0699-3.61,16.17-7.16,24.18-10.94c15.41-7.5,33.16-8.23,49.91-6.12
	c10.02,1.45,20.15,0.73,30.23,1.23c4.04,0.33,8.13-1.79,12.0601-0.23c-2.53,0.4-5.0701,0.65-7.61,0.87
	c4.1699,0.01,8.36-0.16,12.5299,0.22c6.67,0.7,13.4601,0,20.01,1.77c8.62,0.61,16.9,3.23,24.8101,6.63
	c10.5499,3.95,19,11.62,28.14,17.94c4.74,3.19,8.58,7.45,13.01,11.02c6.9199,5.72,14.7,10.26,22.63,14.41
	c23.9399,13.12,49.38,23.81,76.0599,29.88c7.88,2.02,15.5701,4.78,23.02,8.05c10.22,4.53,19.3,11.12,28.4301,17.47
	c7.2,5.02,13.7599,10.9,19.86,17.2c5.0499,5.27,10.98,9.73,15.2699,15.7c7.4501,9.88,15,19.68,22.4501,29.56
	c5.14,8,11.58,15.03,17.95,22.06c5.5901,5.43,10.38,11.62,16.17,16.85c6.26,6.18,13.47,11.28,20.61,16.37
	c8.01,4.79,15.01,10.99,22.59,16.39c5.4301,3.82,10.24,8.51,14.23,13.82c5.9301,7.71,11.9701,15.34,17.88,23.08
	c6.3201,8.72,12.12,17.82,18.5701,26.46c4.1899,5.53,5.98,12.34,8.45,18.71c4.42,13.58,7.98,27.54,8.7201,41.86
	c0.11,4.06,1.1399,8.06,0.86,12.14c-0.75,11.22,0.2,22.5699-1.91,33.69c-1.16,8.93-3.9301,17.53-5.76,26.3199
	C1487.88,668.96,1496.89,658.92,1506.42,649.43 M585.09,804.38c-1.91,0.7,0.02,3.97,1.62,3.27
	C587.2,806.48,586.37,804.6,585.09,804.38 M608.17,844.06c3.79,13.25,5.37,27.21,3.39,40.92c-2.64,19-11.29,37.15-24.61,50.98
	c-20.58,22.04-52.47,32.77-82.17,27.5099c-15.67-2.43-30.36-9.42-42.86-19.06c-4.48,4.95-9.36,9.66-13.06,15.23
	c27.25,5.28,54.52,10.46,81.75,15.77c3.03,0.63,6.18-0.24,9.18,0.7c36.07,9.78,72.09,19.77,108.21,29.4
	c17.2-15.98,34.28-32.07,51.46-48.06c5.94-5.89,12.5-11.14,18.12-17.34c-4.62-5.9-9.93-11.2-14.79-16.88
	c-10.84-11.89-24.78-20.21-38.22-28.77c-9.12-5.75-17.67-12.33-26.47-18.55C626.55,866.92,617,855.66,608.17,844.06 M674.8,1080.78
	c-2.3833,2.3866-3.9667,4.0533-5.79,5.78c-47.01-5.6901-93.96-11.89-140.97-17.5c-6.35,29.34-12.29,58.7799-18.57,88.1399
	c-4.33,22.2001-9.65,44.2301-13.57,66.5c67.21,8.1901,134.34,17.01,201.55,25.2001c0.29,8.0399-7.45,101.52-8.01,101.7
	c-2.54,36.14-4.37,72.3201-6.83,108.47c-0.05,1.7001-0.4,3.87,1.39,4.88c5.35,4.17,9.38,9.65,12.83,15.4301
	c69.71-71.14,139.09-142.61,208.72-213.84c51.43-52.91,103.15-105.55,154.46-158.5801c-10.25,1.8-20.54,3.7101-31.01,3.39
	c-9.04-0.15-18.06-0.9299-27.08-1.45c-12.39-1.02-24.39-4.5801-36.06-8.7101c-10.05-3.5699-20.67-5.2899-30.52-9.4299
	c-17.28-6.9301-33.53-16.16-50.63-23.52c-10.44-4.8-22.14-4.92-33.11-7.8199c-9.89-2.5801-19.95-5.0701-28.98-10.01
	c-8.62-4.8-17.05-10.02-24.64-16.3401c-12.61-10.5399-23.9-22.5399-34.95-34.6699C733.5,1025.74,704.22,1053.33,674.8,1080.78z"/>
</svg>
