<?xml version="1.0" encoding="utf-8"?>

<!DOCTYPE svg PUBLIC "-//W3C//DTD SVG 1.1//EN" "http://www.w3.org/Graphics/SVG/1.1/DTD/svg11.dtd">
<svg version="1.1" id="Layer_1" xmlns="http://www.w3.org/2000/svg" xmlns:xlink="http://www.w3.org/1999/xlink" x="0px" y="0px"
	 viewBox="0 0 2665.87 1664.739" enable-background="new 0 0 2665.87 1664.739" xml:space="preserve">
<g>
	<path d="M272.43,1449.899c18.145-28.163,60.181-49.714,65.964-52.059c16.999-6.895,32.712-3.682,46.874,6.541
		c9.282,6.7,20.015,10.043,29.781,15.494c4.006,2.236,13.176-0.544,19.339,7.686c2.339,3.124,5.184,3.321,8.264,2.129
		c14.481-5.602,29.769-8.496,44.329-14.138c39.473-15.295,33.568-3.614,109.259-27.151
		c232.716-72.367,130.494-65.695,376.275-57.758c156.524,5.056,241.279-37.762,364.327-59.383
		c107.13-18.825,179.938-23.381,193.643-51.576c12.276-25.253,32.535-43.031,54.746-58.993
		c63.295-45.485,70.293-30.672,83.249-50.11c7.111-10.667,18.279-12.284,27.982-4.367c3.636,2.966,6.129,7.976,12.108,6.816
		c1.704-0.331,3.068,10.405,15.969,0.545c6.369-4.867,22.152,1.336,36.537-5.34c44.48-20.643,48.453,23.739,156.38-80.132
		c1.463-1.408,1.13-17.871,5.559-23.128c39.06-46.36,56.654-193.475,55.707-198.298c-1.192-6.068,5.725-6.587-4.855-34.555
		c-24.82-65.615,6.626-147.124,37.908-210.061c24.968-50.235,50.258-38.036,44.228-64.628c-2.029-8.948,0.055-20.443-9.47-35.262
		c-9.05-14.079-24.588,3.924-71.41-6.24c-30.481-6.616-54.397-25.512-63.439-35.357c-25.422-27.682-28.555-54.337-29.035-55.337
		c-9.884-20.564-1.712-42.306-3.835-67.32c-0.849-10.005-3.957-9.396-11.128-18.683c-8.292-10.738-13.912,0.827-18.39-0.143
		c-6.432-1.394-8.97,2.969-11.32,7.494c-7.273,14.01-11.99,28.64-11.54,44.72c0.828,29.544-2.629,19.637,4.623,79.084
		c2.086,17.1,6.628,48.365,13.071,63.693c8.12,19.321-0.809,15.768,13.975,50c8.11,18.776,0.462,8.38,18.939,46.439
		c13.38,27.561,20.641,49.649,36.308,68.964c7.5,9.246,0.896,10.619,7.832,17.314c1.347,1.3,2.863,3.224,1.567,4.927
		c-3.342,4.392-0.862,8.338,0.473,12.327c4.695,14.036,14.619,51.414,20.413,61.022c3.469,5.754,2.355,5.826-2.795,10.753
		c-3.305,3.162-3.598,1.618-5.094-0.531c-9.787-14.061-7.262-19.747-12.272-21.531c-4.536,0.945-0.304,17.274-5.512,32.184
		c-2.348,6.719,7.457,26.397,10.523,31.173c-4.246,5.682-18.345-10.97-22.791-19.274c-22.28-41.615,1.697-8.082-31.675-41.491
		c-5.273,7.708,9.565,38.113,3.984,71.667c-2.9,17.439-6.94,35.571-17.794,50.61c-4.704,6.519-4.271,15.581-11.241,21.146
		c-3-8.018,2.502-15.839,0.305-25.272c-5.022,7.15-8.705,13.49-11.784,22.335c-1.785-23.615,10.627-29.353,5.099-37.277
		c-5.899-8.456-0.92-19.686-5.13-23.242c-2.759,0.391-2.405,3.741-4.034,5.227c-2.027,1.849-4.781-0.349-7.132,0.978
		c-0.17,5.457,2.429,11.575-0.438,15.745c-2.997,4.361-5.387,18.649-4.923,23.962c0.903,10.34-1.446,20.507-2.609,30.596
		c-0.582,5.05-1.1,13.77-10.186,14.817c-3.086-4.297,1.434-10.654-3.164-15.476c-3.262,5.399-7.062,10.078-12.768,13.962
		c-2.606-5.489-6.916-10.121-5.326-17.26c0.928-4.169,1.288-8.708-2.13-12.386c-2.663-2.866-0.091-6.746-1.729-9.844
		c-2.997-1.671-3.873,2.692-7.037,2.168c-3.723-5.264,5.578-17.609-0.61-21.49c-2.889-1.812-4.047,2.193-6.047,2.247
		c-13.226-13.958,6.033-18.373,1.685-50.921c-1.135-8.496-7.163-8-9.11-31.794c-0.217-2.649,1.505-6.389-4.396-5.272
		c-2.047,0.388-2.779-4.521-2.137-6.832c1.994-7.175,0.772-14.159-0.067-21.247c-0.355-3,0.805-6.275-2.563-8.415
		c-1.062-0.675-1.217-2.054-0.719-3.362c2.957-7.758-21.675-94.876-17.422-127.952c8.346-64.905,3.448-52.192,9.365-128.395
		c3.986-51.339-1.956-49.682,2.73-67.724c7.058-27.173,5.163-57.857,10.731-85.738c-2.227,0.596-4.453,1.193-6.68,1.789
		c0.629-0.169,10.894-13.539,12.419-15.024c9.91-9.654,20.577-18.528,30.845-27.82c6.036-5.463,29.961-11.031,32.649-15.394
		c1.994-3.236-1.377-5-2.241-7.466c-2.234-6.375,7.477-10.614-8.392-19.3c-3.413-1.868-6.531-3.656-7.401-8.191
		c5.683,0.9,11.322,1.174,16.862,0.636c1.304-4.572-0.705-8.037-4.185-12.225c9.731,1.552,3.389,6.924,15.932,22.828
		c3.055,3.874,1.586,9.094,3.923,13.661c14.733-5.513,20.196-18.662,23.233-31.225c6.644-27.481,23.422-49.287,37.38-72.649
		c6.521-10.914,16.323-19.318,26.752-27.066c16.106-11.966,24.981-30.052,42.048-39.944c27.529-15.957,63.093-23.642,94.761-18.195
		c8.641,1.486,11.511-18.384,36.14-13.123c6.652,1.421,13.142,2.091,18.49,6.671c-0.847,1.266-1.879,1.806-2.554,1.312
		c-6.732-4.93-12.109,1.164-18.087,2.161c-3.965,0.661-0.875,5.152-1.263,6.178c-2.867,7.595-2.774,7.415,2.258,11.466
		c12.687,10.212,34.831,4.424,65.919,34.893c24.687,24.195,27.547,20.336,28.748,32.521c1.277,12.963,11.29,20.231,19.297,28.743
		c1.53,1.626,3.973,1.559,6.157,1.84c42.961,5.523,44.905,2.077,55.542,9.705c27.589,19.785-24.782,35.905,17.956,45.854
		c22.084,5.142,1.34,22.763,16.982,23.412c3.235,0.134,14.145,7.477,9.404,15.947c-3.673,6.562-2.776,13.155,3.573,17.395
		c18.095,12.084,16.585,38.92-2.47,53.493c-21.093,16.131-29.729,18.852-48.576,39.256c-16.002,17.323,0.596,27.425-4.451,60.356
		c-0.702,4.583-0.451,9.343-0.343,14.015c2.335,100.783-57.327,114.637,48.489,309.13c15.106,27.766,16.74,55.623,26.669,84.632
		c10.522,30.753-3.596,67.69-13.855,96.656c-7.08,19.991-5.334,26.443,0.451,47.119c10.635,38.007,15.808,79.408,24.284,118.747
		c15.619,72.493,25.59,83.657,6.105,215.37c-10.282,69.501-18.104,127.879-13.911,225.2c0.157,3.652,2.156,4.973,5.388,4.93
		c9.67-0.127,19.135,2.711,28.859,1.885c15.131-1.286,15.716,7.946,36.991,11.424c2.565,0.419,87.188,13.828,97.873,12.911
		c7.713-0.661,12.437,4.744,12.546,8.521c0.519,17.955-33.799,5.94-42.779,13.359c104.368,16.336,108.474,4.723,114.507,15.505
		c3.586,6.411,13.174,1.058,14.339,11.246c0.443,3.875-6.388,10.231-11.332,10.985c-1.838,0.28-3.734,0.233-5.603,0.237
		c-16.01,0.037-6.717,3.981-19.862,3.557c-17.107-0.551-34.266,1.302-51.341-1.496c-4.841-0.793-9.974-0.764-14.504,2.189
		c-6.246,4.072-80.904,0.166-92.082-1.899c-6.045-1.117-12.443-0.615-18.667-0.422c-28.052,0.869-55.978-3.03-84.048-2.077
		c-7.065,0.24-14.098-2.037-21.329-1.922c-17.528,0.278-9.031-38.432-34.215-35.473c-8.689,1.021-17.206-2.551-26-1.95
		c-5.372,0.367-7.505-8.052-7.378-9.434c1.541-16.737-14.258-32.57-13.659-44.876c2.033-41.855-28.502-117.395-15.44-274.743
		c0.083-1,4.888-50.359,4.176-58.552c-4.253-48.936,0.843-51.515-5.489-53.477c-3.735-1.157-8.031,4.739-9.743,7.503
		c-17.285,27.889-38.373,52.987-57.88,79.251c-45.556,61.337-8.573,18.958-77.653,101.626
		c-10.443,12.497-23.82,21.516-38.452,29.086c-3.673,1.901-77.08,42.036-77.08,42.036c-3.616,1.985-6.722,4.329-7.08,9.12
		c-0.387,5.171-3.764,7.832-8.779,7.828c-12.46-0.009,0.978,19.516-21.77,20.671c-8.342,0.423-16.64-2.494-23.918,6.76
		c-3.22,4.095-7.288,5.721-12.229,2.32c-3.587-2.47-6.608-0.337-9.335,1.772c-28.325,21.899-88.434,49.755-128.493,40.067
		c-28.722-6.946-45.714,12.465-116.106,26.238c-13.603,2.662-56.162,14.312-145.585,20.754
		c-226.973,16.35-170.823-9.537-348.313-6.011c-24.172,0.48-82.653-5.96-83.654-5.997c-3.236-0.12-11.467-4.834-15.957-4.989
		c-9.064-0.312-17.884-2.901-26.668-3.494c-126.293-8.528-30.536-3.299-219.944,24.061
		c-73.876,10.672-183.542,10.558-260.067,28.273c-15.95,3.692-113.649,19.971-114.657,20.178
		c-80.799,16.659,63.222,4.481-311.56,8.652c-36.405,0.405-33.565-21.795-25.301-32.165c20.617-25.87,138.349-55.703,169.167-72.55
		C247.442,1485.081,259.526,1469.928,272.43,1449.899z"/>
</g>
</svg>
