<?xml version="1.0" encoding="utf-8"?>

<!DOCTYPE svg PUBLIC "-//W3C//DTD SVG 1.1//EN" "http://www.w3.org/Graphics/SVG/1.1/DTD/svg11.dtd">
<svg version="1.1" id="Layer_1" xmlns="http://www.w3.org/2000/svg" xmlns:xlink="http://www.w3.org/1999/xlink" x="0px" y="0px"
	 viewBox="0 0 1091.247 1828.734" enable-background="new 0 0 1091.247 1828.734" xml:space="preserve">
<path d="M106.136,115.76c13.215-7.618,32.474,16.385,38.658,28.091c1.081,2.047,1.697,5.042,3.131,6.81
	c0.577,0.711,1.459,0.858,2.039,1.701c0.672,0.976,0.775,2.349,1.19,3.441c4.263,8.67,16.552,14.282,35.358,29.593
	c20.581,15.174,106.637,117.059,156.493,149.814c45.124,30.909,42.182,36.983,97.811,76.322
	c15.421,10.905,28.078,22.895,41.039,30.5c15.895,11.571,60.338,26.512,73.259,37.793c25.256,22.051,7.769,38.209,29.147,119.522
	c0.645,2.453,0.156,5.384,0.208,7.896c0.053,2.55,0.667,4.528,1.227,6.909c3.179,13.52-0.711,48.082-0.529,60.593
	c0.101,6.932,1.541,14.02,1.224,20.921c-2.331,77.223,11.668,138.358,1.863,149.651c5.558,3.335,2.794,1.935,10.266,1.343
	c16.624-1.317,21.833,1.419,32.989,1.9c1,0.398,28.651,6.107,44.459,15.79c13.539,8.636,46.114,14.672,62.113,16.317
	c-1.592,0.053-3.184,0.106-4.775,0.159c11.811,0.332,24.377,5.013,42.097,12.708c1,0.238,16.257,5.443,18.879,7.229
	c19.625,13.473,15.878,11.728,25.022,21.656c10.507,20.744,85.591,80.382,91.789,93.681c2.546,5.463,3.023,10.802,8.216,19.329
	c1.514,2.486,3.597,4.951,3.975,7.641l0.387-0.083c1.354,6.003,2.918,12.138,2.175,18.334c-0.359,4.586,1.476,8.171,1.371,14.01
	c-0.054,14.06,0.284,13.994-0.497,14.994l0.501-0.281c-0.283,19.943-24.822,81.833,12.731,121.5
	c9.032,9.54,41.843,8.114,52.141,8.578c13.79,11.526,14.267,18.421,10.635,30.3c-1.147,1.626,0.857,3.151,0.435,4.913
	c0.207,0.039,0.136,0.334-0.092,0.395c0.075,2.074,0.457,4.214-0.373,6.21c1.692,0.114,3.401-0.013,5.102,0.154
	c0.593,0.448,1.103,1.015,1.657,1.547c0.215,0.813,0.448,1.639,0.721,2.461c-0.303,0.984-0.707,1.938-1.195,2.856
	c-1.042,0.457-2.061,0.953-3.063,1.472c1.393,1.178,3.23,1.586,5.032,1.595c2.96,4.389-2.325,8.25-1.745,11.188
	c1.609,8.596,5.428,2.211,13.794,18.04c-1.955,9.329-9.235,9.258-13.772,17.771c-6.028,7.793-8.819,8.332-11.268,14.137
	c-0.664,1.213,0.65,2.171,1.103,3.213c-0.659-0.136-1.253-0.453-1.745-0.857c-0.439,0.927-0.699,1.929-0.826,2.962
	c1.727,2.448,1.349,5.541,1.494,8.372c0.769,1.129,0.356,2.544,0.343,3.828c-0.202-0.004-0.606-0.009-0.809-0.013
	c-0.722,5.408-10.238,18.247-11.971,25.229c3.371,3.677,5.681,25.496,9.013,36.176c0.958,3.832,2.87,7.383,3.467,11.325
	c1.846,3.221,1.586,7.08,2.751,10.516c5.594,6.408,12.194,58.323,11.663,87.038c-2.807,18.087-2.088,55.994-7.26,88.652
	c-2.831,11.678-8.447,56.75-9.033,64.623c-0.13,1.749-0.661,3.733-2.409,3.532c0.995,3.652,7.529,8.836-6.39,11.257
	c-0.039,0.259-0.114,0.778-0.149,1.037c-1.736,0.624-3.599,0.637-5.344,0.088c-6.878,3.035-4.649-0.503-13.746,5.924
	c-5.902,4.067-25.216,7.385-26.218,7.752c-10.99,0.839-8.611-1.494-12.858,1.586c-1.529,7.782-10.049,6.443-21.841,6.702
	c-4.902-0.107-6.557,3.646-30.085,1.274c-0.646-0.672-1.349-1.274-2.044-1.85c-0.404,0.369-0.787,0.765-1.164,1.178
	c-1.674-0.857-3.52-1.2-5.287-1.767c-0.567,0.532-1.125,1.072-1.666,1.644c-1.002-0.049-13.51-0.719-16.466-1.468
	c0.11-0.598,0.233-1.178,0.36-1.74c-4.117-1.166-5.078-0.35-6.042-1.868c-1.362-0.286-2.856-0.536-4.065,0.321
	c-1.85,0.018-3.599-0.576-5.335-1.112c-0.024-2.715,1.933-3.513-1.56-5.7c-24.306,8.587-11.937,4.331-22.478,5.076
	c-2.738,0.167-5.234-1.222-7.95-1.257c-0.22,0.62-0.444,1.248-0.655,1.903c-6.314-0.736-9.26-5.42-38.997,0.932
	c-0.33-0.659-0.51-1.375-0.989-1.898c-3.417-0.038-23.728,7.986-47.224,6.715c-3.065-1.005-16.174-2.601-20.826-4.548
	c-2.473-0.708-11.832-5.162-16.567-5.59c-1.001-0.137-17.782-2.566-19.028-3.538c0.927-0.198,1.912-0.237,2.865-0.338
	c-0.299-0.035-0.896-0.11-1.2-0.149c-0.048-0.303-0.145-0.914-0.193-1.222c2.224-0.193,4.43,0.457,6.653,0.018
	c2.878,0.672,5.498-1.068,8.358-1.085c0.105-0.602,0.22-1.187,0.334-1.753c-4.79-0.541-9.584,0.378-14.374,0.299
	c-0.189-0.127-0.567-0.378-0.756-0.505c2.158-0.571,4.377-0.826,6.579-1.16c-8.132,0.612-6.256,0.087-7.919,1.63
	c-1.257-0.132-2.5-0.347-3.722-0.615c0.075-0.202,0.224-0.615,0.299-0.822c15.557-3.851,13.36,0.652,23.405-1.521
	c0.136-0.136,0.409-0.409,0.545-0.549c1.6-0.58,3.3-1.015,5.023-0.765c1.789-2.786,5.396-1.688,8.104-2.364
	c0.141-1.74-0.633-3.397-0.835-5.098c0.224-0.176,0.668-0.532,0.888-0.708c-0.365-0.246-0.725-0.47-1.068-0.668
	c0.229-0.439,0.466-0.861,0.716-1.261c0.374-1.859-0.505-3.744,0.163-5.533c4.4-14.32,13.848-15.012,15.478-16.642
	c2.228-1.116,4.522-2.083,6.847-2.984c0.009-0.273,0.031-0.822,0.04-1.094c0.158-0.101,0.475-0.303,0.633-0.404
	c-1.244,0.022-2.483,0.105-3.718,0.145c0.659-1.415,1.92-2.505,3.56-2.404c2.105-1.406,4.496-2.281,6.807-3.283
	c0.949-0.839,1.828-1.749,2.58-2.76c0.251-0.026,0.747-0.075,0.993-0.097c0.352-0.896,0.932-1.67,1.907-1.903
	c-0.026-0.176-0.079-0.527-0.105-0.703c-0.312-0.615-0.536-1.274-0.716-1.898c-0.4-0.215-0.787-0.413-1.16-0.589
	c-1.129,0.479-2.347,0.444-3.48,0.053c0.018-0.264,0.053-0.787,0.07-1.05c-0.91-0.822-1.582-1.832-2.21-2.848
	c-0.294,0.092-0.883,0.277-1.178,0.365c-0.414-0.736-5.803-7.775-6.728-8.618c-0.022-0.479-0.031-0.932-0.022-1.362
	c0.98-2.171,0.299-4.623,0.119-6.886c-0.453-1.727,0.813-3.204,1.283-4.772l-0.703,0.009c0.004,0.215,0.022,0.642,0.026,0.853
	c-0.369,0.031-1.107,0.088-1.477,0.114c0.154-0.958,0.316-1.898,0.479-2.83c2.305-0.423,3.658-5.832,6.236-9.756
	c-0.277-0.013-0.835-0.04-1.112-0.053c-0.378-0.976-1.323-1.015-2.193-0.804c-0.457-0.58-0.857-1.187-1.191-1.806
	c1.551,0.127,3.116,0.105,4.667-0.114c0.404-0.905,0.958-1.723,1.547-2.5c0.395,0,1.182,0,1.578-0.004
	c0.026,0.29,0.083,0.866,0.11,1.156c3.952-4.722,2.979-4.151,5.045-4.575c1.238,1.309,3.87-2.125,4.772-3.889
	c1.03-1.994,2.025-1.012,1.481-4.434c1.463-2.021,2.153-4.443,2.993-6.746c-1.062,0.025-1.576-0.072-4.764,1.208
	c-0.308,0.387-0.694,0.703-1.09,1.011c-0.466-1.099-1.358-1.854-2.514-2.079c-0.198-0.374-0.387-0.734-0.563-1.072
	c1.362,0.018,2.729-0.154,4.043-0.545c-0.101,0.193-0.303,0.584-0.404,0.778c0.615-0.637,1.551-0.949,2.136-0.039
	c1.116-0.541,2.074-1.354,3.076-2.074c0.923-1.191,1.085-2.777,1.103-4.228c0.312-0.514,0.628-1.02,0.962-1.494
	c-0.132-2.404-1.595-4.408-3.256-6.012c-0.444-0.474-1.433-0.602-1.252-1.402c0.314-6.856-1.071-1.95-0.721-8.965
	c-0.224-0.119-0.668-0.356-0.892-0.475c0.101-1.116-0.044-2.197-0.527-3.182c0.035-0.545,0.088-1.068,0.154-1.569
	c-0.549-0.141-1.085-0.259-1.608-0.36c0.471-7.812,0.372,0.3-0.861-14.471c-0.308-3.063,1.103-5.919,1.147-8.952
	c0.787-2.105,0.119-4.258,0.281-6.394c-0.409,0.826-1.059,1.459-2.061,1.362c0.066-1.156,0.58-2.149,1.419-2.922
	c-0.321,0.075-0.962,0.215-1.288,0.29c0.229-2.057,0.444-4.179-0.119-6.183c0.132-0.624,0.281-1.226,0.444-1.806
	c2.043-0.571,2.289-3.054,3.296-4.619c-0.511-1.849,2.502-7.334,2.593-8.991c0.031-1.195,0.378-2.325,0.857-3.393
	c-0.36-0.062-1.085-0.176-1.446-0.237c1.506-10.7-0.597-11.715,2.47-15.609l-0.193-0.488c0.215,0.053,0.646,0.158,0.866,0.211
	c0.022-1.419,1.419-1.648,2.426-2.158c0.286-2.057,1.428-3.889,1.393-5.994c0.501-1.252,0.712-2.584,0.787-3.911
	c0.198,0.062,0.593,0.18,0.787,0.237c0.018-0.554,0.048-1.09,0.097-1.608c2.857-2.522,2.144-11.405,3.406-14.049
	c1.673-10.496,3.081-20.074,2.224-21.885c0.075-1.921,0.189-3.907,1.063-5.651c-0.268-0.035-0.804-0.101-1.072-0.136
	c2.391-9.889,0.24-15.076,1.516-23.533c0.07-3.423,1.116-6.715,1.217-10.129c-0.149-0.057-0.444-0.167-0.593-0.224
	c0.857-3.357,2.294-6.552,2.76-9.998c0.936-2.013,1.784-4.069,2.479-6.179c-0.026-0.272-0.079-0.813-0.105-1.085
	c0.259-0.053,0.782-0.154,1.041-0.207c0.472-2.831,2.6-7.885,5.036-9.914c1.367-1.187,1.824-3.037,2.672-4.57
	c4.208-4.962,1.495-4.173,5.159-7.765c0.022-0.25,0.066-0.747,0.092-0.998c1.912-2.158,2.501-5.063,2.773-7.844
	c0.268-0.053,0.804-0.154,1.072-0.202c-0.338-0.062-1.019-0.18-1.358-0.237c-0.035-0.628-0.053-1.239-0.062-1.832
	c-0.25,0.031-0.747,0.097-0.993,0.127c0.602-1.846,2.175-3.226,2.43-5.194c1.657-1.107,2.013-3.34,2.896-5.023
	c-0.062-0.629-0.615-1.398-0.031-1.903c0.94-1.015,1.978-2.052,2.188-3.485c0.457-2.747,2.32-5.146,1.898-8.016
	c0.611,0.167,1.213,0.338,1.841,0.545c-0.026-0.202-0.079-0.598-0.105-0.795c0.167-0.004,0.492-0.018,0.655-0.022
	c1.623-3.032,2.565-3.671,1.956-7.291c1.745-1.613,2.988-3.665,4.794-5.234c-0.316-0.65-0.598-1.292-0.932-1.898
	c0.343-1.397,0.338-3.212,1.793-3.955c0.026-1.063-0.079-2.153,0.373-3.129c0.022-0.224,0.075-0.672,0.097-0.896
	c0.541-0.352,1.09-0.681,1.652-1.002c-0.835-1.274,0.417-2.369,0.791-3.538c-0.255-0.123-0.773-0.369-1.033-0.492
	c-3.255-6.704,0.686-10.326-1.27-13.329c-24.652-44.166-19.428-49.599-23.26-60.631c-5.395-28.312-14.429-28.385-17.692-31.961
	c-14.281-14.954-24.128-24.163-25.879-44.741c-0.343-11.058-14.968-21.425-27.514-41.981c-1.077-1.696-1.657-3.678-2.909-5.256
	c-0.905-0.233-0.976,0.738-1.208,1.327c-4.61,15.767-4.315,8.126-4.891,21.749c-0.122,3.37,0.481,22.345-0.457,28.094
	c0,0-3.836,40.52-3.836,40.522c-2.784,21.044-10.736,34.585-10.736,45.184c-0.092,0.211-0.281,0.633-0.374,0.844
	c-0.031,0.558-0.119,1.112-0.268,1.67c-0.58,0.422-1.248,0.703-1.863,1.059c-10.653-13.238,18.171-61.107,12.476-100.964
	c-0.163,0.202-0.488,0.606-0.655,0.808c-1.688,8.803-7.737,27.86-9.444,36.409c-7.939,35.789-9.226,18.499-9.998,47.742
	c-0.387,0.097-1.16,0.295-1.547,0.391c-0.519-0.497-1.02-0.971-1.521-1.446c-0.031-0.686-0.048-1.345-0.079-1.995
	c-0.664-1.938,0.255-4.043,0.018-6.051c-2.189-14.24,1.678-29.197,8.789-41.515c0.035-0.207,0.105-0.62,0.141-0.826
	c1.718-3.667,2.809-7.064,3.815-8.838c0.035-0.207,0.101-0.628,0.132-0.835c5.089-9.841,5.215-25.85,7.835-41.994
	c0.143-1.001,1.673-9.573-0.541-9.554c-1.424,2.026-2.184,4.417-3.27,6.623c-5.112,10.323-5.318,12.851-14.581,11.584
	c-1.011-0.114-2.263-1.38-2.979-0.149c-9.915,15.825-41.24-6.609-10.709-25.699c16.332-11.619,13.501-6.844,16.506-12.067
	c3.292-6.833,8.771-12.357,14.757-16.884c-0.229-0.782-1.046-1.05-1.63-1.459c-24.123-14.716-35.376-57.276-74.811-59.871
	c-15.669-1.031-20.288,8.029-26.944,12.915c-13.598,13.091-6.901,8.378-11.584,13.496c-1.613,1.894-3.74,3.313-5.111,5.418
	c-3.781,5.702-1.293,3.985-9.492,7.119c-1.081,2.21-2.962,3.836-4.443,5.757c-21.593,26.759-58.078,30.292-63.94,26.855
	c-0.747-0.268-1.644-1.116-2.395-0.492c-9.561,6.527-18.314,6.067-29.637,4.658c-4.197-0.435-8.424-0.11-12.621-0.492
	c-16.767-2.633-22.85-5.83-44.864,0.611c-32.59,10.952-190.923,111.888-200.518,121.974c-2.462,2.438-10.57,14.54-12.067,17.521
	c-3.07,5.485,1.742,16.739,3.63,22.663c12.179,29.537,17.998,89.54,18.321,90.54c0.797,47.501-4.467,36.608-5.688,100.861
	c-0.061-2.363-0.122-4.726-0.182-7.089c0,36.108-2.396,86.363-2.396,86.363c-0.402,8.464,1.539,9.157,1.446,17.297l-0.659,0.022
	c0.25,0.022,0.756,0.066,1.006,0.088c-0.443,1.328-0.609,1.443-0.98,2.443c3.335-0.009,17.449,11.952,18.449,12.538
	c8.765,5.136,11.201,6.999,17.338,13.13c3.318,3.314,7.261,3.761,5.385,9.717c-14.055,44.626-35.524,42.486-44.464,65.945
	c-2.273,4.109-18.362,42.962-21.929,57.828c2.17,18.589-21.857,5.428-36.245,2.701c-4.63-0.878-0.515,1.347-11.361-2.091
	c-3.388-1.384-7.185-1.767-10.261-3.858c1.233-3.179,0.193-1.647,8.121-5.792c6.781-3.979,7.161-0.861,12.656-8.952
	c0.65-0.725-0.101-1.529-0.343-2.228c4.146-5.049-2.274-4.305-0.576-15.126c0.482-8.402-6.286-21.614-7.557-36.973
	c-4.459-53.899,0.337-45.377-2.045-85.124c-4.361-65.519,2.538-31.834-11.043-100.916c-35.411-170.083-7.937-137.864-33.68-213.152
	c-18.576-58.114-1.822-75.254,14.045-91.727c37.34-48.198,119.514-114.456,156.59-143.947
	c70.321-51.583,73.055-45.797,107.903-64.415c50.772-26.833,35.523-13.014,42.218-28.16c0.958-2.896,3.067-5.194,4.276-7.954
	c0.626-3.204-0.577-24.28,8.626-58.14c3.231-12.919,9.604-30.096,14.568-59.344c19.005-112.177,29.923-136.938,32.471-214.286
	c-2.987-3.169-66.197-27.741-102.037-66.511c-31.909-41.209-34.902-55.543-107.037-128.417
	c-1.012-0.949-36.512-37.909-48.028-35.156c-0.729-0.185-1.481-0.268-2.215-0.07c-1.323,0.343-2.646-0.04-3.968-0.123
	c-3.432,0.18-6.57,2.637-10.077,1.775c-4.087,0.224-8.191,0.602-12.291,0.233c-2.994-0.521-2.302,2.633-9.562-0.949
	c-1.358-0.62-1.995-2.035-2.755-3.217c-3.646-0.537-15.983-25.368-4.9-62.657c0.303-2.017-1.178-3.586-2.026-5.251
	c-1.011-2.86-3.164-12.615-7.216-21.876c-1.226-2.61-0.567-5.647-1.727-8.279c-0.918-2.672-2.461-5.172-2.602-8.06
	c-0.097-2.048-1.648-3.568-3.305-4.562c-1.437-2.976-12.868-15.745-14.955-18.47c-5.369-6.312-10.212-22.379-9.901-27.918
	c-0.199-2.925,0.96-3.255-1.912-5.568c-1.147-3.621,1.408-3.538-4.177-7c-5.378-3.334-12.78-17.096-8.786-25.906
	C99.631,117.699,102.524,117.825,106.136,115.76 M663.538,1090.172c-2.496,6.705-1.344,14.342-0.149,17.609
	c1.797,0.359,1.719-4.877,5.695-16.633c0.378-1.437,1.222-2.782,1.086-4.307C667.95,1087.939,665.783,1089.13,663.538,1090.172
	 M674.322,1091.358c-1.02,2.171-2.101,4.315-3.006,6.539l-0.202,0.07c-0.25,0.787-0.554,1.564-0.927,2.312
	c-0.088,0.532-0.154,1.081-0.198,1.644c1.237-0.669,4.523-8.319,4.953-9.321l0.272,0.013c0.308-0.993,0.637-1.973,0.905-2.958
	C675.183,1089.811,674.709,1090.585,674.322,1091.358 M652.09,1096.504c-5.727,3.906-9.663,6.443-12.226,11.021
	c-1.532,5.866,0.021,9.922,6.078,10.753c0.791-0.128,1.604-0.053,2.404,0.088c0.672-0.158,1.367-0.22,2.065-0.202
	c0.756-0.272,1.525-0.483,2.325-0.637c0.145-0.154,0.435-0.462,0.58-0.615c0.778-0.084,1.538-0.281,2.079-0.905
	c0.18-0.048,0.545-0.15,0.725-0.202c0.598-0.615,1.261-1.16,2.083-1.446c0.189-2.451-4.104-9.999-1.709-20.039
	C654.784,1094.465,653.448,1095.581,652.09,1096.504 M946.638,1573.675c-0.824,2.775-2.249,23.178-3.56,23.612
	c0.119,3.74-1.011,7.361-1.279,11.079c-0.018,3.19-2.356,6.003-1.591,9.277c0.554,1.916-1.23,3.366-1.274,5.216
	c0,2.123-1.376,3.907-1.503,6.021c-1.433,15.849-12.602,44.126-3.639,47.434c2.219,0.94,4.509-0.501,6.803-0.075
	c5.992,0.923,15.433-4.137,15.552-10.507c0.422-0.431,0.861-0.844,1.318-1.23c1.609-2.49,0.394-22.965,0.809-24.948
	c-1.191-2.21-0.097-4.83-1.085-7.018c1.155-0.806-1.68-12.299-2.096-13.667c-0.832-3.218-1.271-13.314-1.929-14.968
	c0.162-4.128-3.343-26.387-4.205-30.221c-0.457-0.242-0.896-0.461-1.318-0.664C947.292,1573.218,946.958,1573.438,946.638,1573.675
	 M717.279,1609.543c-1.49,1.305-1.767,3.362-2,5.221c0.264,0.598-0.048,1.191-0.255,1.771c-0.725,1.608-0.145,3.45-0.738,5.115
	c-0.461,1.147,0.013,2.342,0.259,3.503c0.36,0.606,0.699,1.23,1.05,1.885c1.037-0.167,2.074-0.391,3.103-0.637
	c-0.097,0.962-0.33,1.912-0.646,2.848c-0.615-0.343-1.235-0.708-1.824-1.015c-0.183,2.649,0.579,2.341,4.109,5.836
	c0.316-0.11,0.659-0.18,0.993-0.259l-1.195,0.009c0.259-0.734,0.554-1.433,0.839-2.131c0.563,0.018,1.138,0.061,1.727,0.119
	c0.075,0.184,0.224,0.549,0.299,0.729c0.272-0.057,0.813-0.176,1.085-0.237c0.066-0.91,0.141-1.828,0.25-2.703
	c2.654-1.89,0.466-5.533,1.665-8.038c-0.048-0.65-0.092-1.279-0.132-1.885c0.062-0.088,0.189-0.264,0.255-0.347
	c-0.404-1.121-0.202-2.298-0.123-3.423c-0.611,0.022-1.208,0.031-1.784,0.171c-0.879,0.677-1.204,1.753-1.494,2.786
	c-0.211,0-0.633,0-0.844,0c-0.303-0.268-0.593-0.514-0.874-0.738c-0.092-0.87-0.224-1.74-0.316-2.58l-0.664,0.163
	c0.053-0.233,0.163-0.699,0.215-0.932c-0.277-0.026-0.839-0.079-1.121-0.105c-0.712-1.705-0.826-3.533-0.765-5.339
	C717.982,1609.363,717.621,1609.433,717.279,1609.543z"/>
</svg>
