<?xml version="1.0" encoding="utf-8"?>

<!DOCTYPE svg PUBLIC "-//W3C//DTD SVG 1.1//EN" "http://www.w3.org/Graphics/SVG/1.1/DTD/svg11.dtd">
<svg version="1.1" id="Layer_1" xmlns="http://www.w3.org/2000/svg" xmlns:xlink="http://www.w3.org/1999/xlink" x="0px" y="0px"
	 viewBox="0 0 1611.065 1645.872" enable-background="new 0 0 1611.065 1645.872" xml:space="preserve">
<g>
	<path d="M523.293,1496.155c-5.168,1.993-8.938-1.464-13.268-2.254c-8.317-1.517,5.135-15.867,16.363-16.304
		c1.152-0.045,2.098-0.391,2.922-1.552c5.461-7.698,10.828-2.257,13.089-6.063c1.616-2.72,4.643-3.252,7.497-2.124
		c11.02,4.356,22.138-10.657,32.971-6.73c0.906,0.329,44.475-6.592,45.426-6.75c6.958-1.157,13.084-5.466,20.336-5.71
		c0.231-0.008,0.637-0.073,0.662-0.182c1.273-5.429,7.535-4.727,10.163-8.199c6.834-9.027,12.819-0.383,43.624-7.306
		c6.733-1.513,12.379-5.723,18.976-7.623c1.57-0.452,2.63-2.047,2.499-3.95c-1.421-20.673,8.811-21.89-0.405-67.483
		c-11.111-54.968-17.878-65.137-18.976-86.809c-0.762-15.043-11.622-39.411-10.617-60.155c0.067-1.38-0.217-2.876-0.719-4.169
		c-4.805-12.37-5.609-25.742-9.366-38.281c-16.744-55.896-24.02-55.027-35.109-91.079c-1.787-5.81-9.808-54.127-25.9-88.12
		c-6.294-13.295-14.784-25.27-22.531-37.656c-15.3-24.459-29.497-49.526-42.869-75.053c-22.333-42.633-41.946-42.718-73.435-76.797
		c-4.43-4.794-4.624-4.718-9.99-1.215c-3.542,2.312-7.396,4.316-9.917,7.876c-15.174,21.426-32.578,12.926-39.806,25.813
		c-4.563,8.137-8.369,16.9-16.447,22.493c-0.778,5.173-4.895,8.384-7.284,12.591c-3.34,5.88-6.246,12.012-10.819,17.064
		c-5.073,5.603-5.745,16.85-13.424,21.967c-0.964,0.643-2.194,1.579-2.396,2.566c-1.842,8.99-10.963,12.52-14.845,19.979
		c-1.479,2.842-4.681,2.259-24.659,7.147c-9.096,2.225-15.714-1.862-20.457-8.833c-2.417-3.553-3.893-4.932-8.33-3.317
		c-3.429,1.248-7.435,1.243-10.938,2.709c-2.047,0.857-3.645,0.561-5.211-0.862c-6.156-5.596-22.137-16.928-35.421-13.456
		c-4.827,1.262-11.521-2.832-13.882-7.386c-1.188-2.292-1.135-5.092-3.121-7.12c-2.163-0.377-3.212,1.434-4.704,2.421
		c-4.947,3.274-9.992,6.161-16.323,5.709c-5.678-0.405-13.193-6.104-14.804-11.551c-4.323-14.613,0.399-28.774-10.555-53.961
		c-7.145-16.428-34.987-7.968-62.376-30.283c-2.359-1.922-3.905-4.065-3.715-7.257c0.356-5.968,0.855-1.908-15.899-17.306
		c-1.834,3.064-0.47,5.262-0.066,7.311c-6.083,3.031-9.067-9.713-15.296-0.059c-4.45,6.898-10.065-4.825-16.175,1.219
		c-0.887,0.878-1.053-1.02-1.603-1.582c-1.418-1.449-3.122-2.126-5.129-2.058c-6.119,0.206-11.005-3.091-16.435-5.176
		c-10.024-3.849-13.591-13.855-21.233-19.835c-2.706-2.118-1.113-6.26-2.047-9.459c-1.96-6.707-3.771-13.704-1.555-20.776
		c1.729-5.517-6.364-4.686-3.532-15.288c1.718-6.433-7.667-10.449-1.977-30.849c0.365-1.309,0.049-2.839-0.091-4.253
		c-4.545-45.748,17.599-55.603,22.177-82.158c1.396-8.098,6.016-2.136,4.276-22.349c-0.561-6.519,0.214-12.763,0.788-19.128
		c0.562-6.228,3.658-10.771,8.981-13.701c18.675-10.281,8.356-25.479,37.47-39.94c16.547-8.219,22.11-21.359,38.493-21.023
		c18.976,0.39,8.606-17.037,26.669-14.942c19.109,2.216,9.055-12.611,26.948-19.557c6.924-2.688,14.791-3.448,20.653-9.066
		c6.356-6.091,17.418,9.679,31.196,7.962c6.062-0.755,10.963,1.774,29.001,21.021c7.281,7.769,32.447,4.261,56.392,18.327
		c1.01,0.593,48.729,24.706,53.19,27.58c4.82,3.106,10.201,0.996,15.291,1.519c2.373,0.244,2.735-2.943,3.486-4.868
		c24.251-62.201,18.92-20.479,68.328-115.038c4.363-8.35,6.812-11.568,25.079-33.048c51.157-60.155,78.687-45.435,97.226-77.594
		c3.788-6.571,9.201-10.588,16.268-12.893c4.899-1.598,9.246-4.511,14.344-5.857c2.522-0.666,5.148-2.854,6.655-5.08
		c33.48-49.439,27.187-8.69,97.51-68.726c87.978-75.108,45.789-60.996,150.326-117.061c1.932-1.036,29.605-19.017,69.986-29.791
		c16.982-4.531,19.205-7.281,23.258-5.231c2.224,1.125,5.859-2.749,8.663-2.478c9.332,0.901,17.069-4.305,25.617-6.215
		c7.324-1.637,15.043-1.804,22.604-2.002c31.037-0.811,25.912-6.588,57.157-6.518c65.947,0.148,58.703,2.767,80.326,7.475
		c54.349,11.833,103.844,46.256,139.417,105.898c7.052,11.824,3.711,20.538,9.952,34.014c12.554,27.106,6.855,47.4,8.296,54.077
		c2.439,11.307,2.742,19.245-2.249,29.791c-6.477,13.686,1.956,25.646-6.72,42.299c-6.14,11.784-4.54,17.736-10.828,56.987
		c-1.456,9.087-4.173,17.986-4.09,27.3c0.026,2.905-0.588,5.655-1.626,8.345c-0.512,1.327-1.47,2.792-1.265,4.036
		c1.992,12.089-4.842,22.403-6.676,33.727c-0.632,3.902-7.525,37.497-15.041,68.111c-14.727,59.994-20.64,68.424-8.533,64.793
		c4.066-1.219,8.344-1.678,12.275-3.534c2.753-1.3,6.27-3.18,8.76-2.453c10.501,3.066,17.705-3.776,25.282-8.207
		c40.734-23.825,30.208-31.945,73.385-55.05c4.82-2.579,10.63-2.649,15.897-3.315c16.946-2.141,19.27-13.219,39.129-7.725
		c55.579,15.374,30.02,64.343,118.172,136.545c6.737,5.517-0.754,4.15,5.788,9.735c5.656,4.83,8.132,11.47,11.678,17.63
		c3.864,6.711,7.397,13.08,6.723,21.113c-0.102,1.215,0.784,2.812,1.699,3.765c4.982,5.182,5.231,12.022,6.459,18.433
		c1.868,9.753-7.712,6.964-6.697,12.709c1.993,11.284-10.646,10.144-8.851,19.047c1.979,9.817,0.384,11.911-8.096,17.103
		c-5.908,3.617-11.692,5.238-18.709,5.295c-6.923,0.056-13.6,3.948-20.653,2.247c-1.473,3.428,1.061,4.439,2.359,5.798
		c12.156,12.732,17.715,28.023,16.505,45.382c-1.591,22.807-30.98,25.585-31.115,9.327c-0.163-19.657-24.356-38.314-39.948-48.055
		c-13.13-8.203-13.177-13.779-41.463-32.349c-13.55-8.896-6.728-7.39-29.015-20.345c-2.024-1.177-3.52-0.851-4.982,0.847
		c-11.415,13.252-25.911,23.434-37.123,36.841c-54.56,65.245-62.663,97.449-128.037,144.057
		c-53.631,38.237-44.014,42.888-87.551,58.597c-20.708,7.472-37.028,11.673-64.513,1.774c-1.58-0.569-3.221-2.086-5.259-1.245
		c-0.988,1.408-0.48,2.634,0.224,3.951c4.894,9.155,8.863,18.954,14.787,27.381c13.424,19.096,23.77,40.197,38.515,58.396
		c8.077,9.969,11.531,22.165,16.085,33.817c21.852,55.904,23.051,79.53,28.377,116.712c1.655,11.559,12.181,62.807,15.795,94.654
		c1.255,11.055,3.552,22.011,5.757,32.936c2.425,12.012,2.417,24.295,4.266,36.318c9.018,58.635,2.698,58.152,8.235,141.582
		c0.957,14.421-2.344,13.332-2.257,21.813c0.111,10.763-1.592,20.933-6.417,30.819c-2.154,4.415-1.183,10.25-2.342,15.277
		c-5.443,23.608-8.396,32.479-32.07,42.687c-23.195,10.002-25.972,14.797-35.542,11.824c-4.103-1.275-4.837-0.326-3.316,3.715
		c0.723,1.92,0.14,2.363-1.34,3.12c-8.252,4.221-10.775,4.49-24.753,4.121c-7.048-0.186-10.004-5.343-6.919-11.695
		c0.576-1.187,1.703-2.522,1.68-3.466c-0.432-17.625-11.346-2.036-56.05,3.964c-10.365,1.391-78.584,20.936-75.152,3.416
		c2.427-12.391,10.889-1.567,11.034-10.51c0.044-2.693-0.698-2.072-25.107,0.107c-43.495,3.88-52.79,7.379-55.695-0.323
		c-1.058-2.806-2.564-5.25,1.16-7.924c2.756-1.979,1.369-4.63-2.265-4.926c-9.044-0.738-8.528,2.73-17.152-5.404
		c-5.315-5.013,1.879-10.663,9.412-11.386c15.026-1.442,2.547-5.435,23.858-7.44c14.678-1.381,11.298,3.185,29.493-2.182
		c17.195-5.072,20.424-2.747,20.647-9.333c0.123-3.618,3.027-7.536,7.591-6.933c3.677,0.486,5.496-2.309,8.266-3.271
		c8.463-2.941,16.885-6.233,24.263-11.611c1.481-1.08,3.434-2.16,5.162-2.15c11.388,0.068,20.683-6.164,30.836-9.815
		c17.451-6.275,14.527-12.449,21.232-10.331c10.409,3.286,21.294,3.409,31.944,5.068c3.722,0.58,7.597-0.229,9.862-2.59
		c4.745-4.948,10.582-8.684,14.882-14.091c11.147-14.017-0.981-60.607-7.589-78.196c-12.524-33.339-6.166-61.672-22.25-105.585
		c-24.203-66.081-25.407-83.22-41.996-157.488c-10.296-46.094-2.008-48.302-22.905-86.365
		c-7.375-13.434-36.144-27.702-61.813-48.186c-6.846-5.463-33.304-32.785-57.657-66.928c-62.466-87.576-54.906-96.572-64.981-90.07
		c-23.67,15.275-50.737,21.153-77.629,27.122c-25.133,5.579-35.238,2.072-30.969,9.877c14.451,26.417,21.964,63.556,32.321,74.401
		c7.386,7.735,11.888,16.498,12.729,27.662c1.324,17.58,12.477,59.46,12.617,81.753c0.015,2.33,0.573,4.735,1.296,6.971
		c3.919,12.124,1.719,24.983,4.465,37.188c3.189,14.175,1.752,28.842,5.071,42.968c0.213,0.904,0.391,1.916,0.207,2.799
		c-2.591,12.396,0.25,24.568,1.558,36.785c0.504,4.711-0.628,9.247-0.178,14.067c8.576,91.805,2.363,97.942,7.65,141.81
		c2.317,19.229,0.253,38.423,1.226,57.607c0.229,4.523-0.555,9.276-1.801,13.287c-3.603,11.598,1.776,22.255,2.001,33.367
		c0.136,6.729,7.234,6.112,4.591,11.683c-2.383,5.023-4.399,10.772-10.058,12.908c-26.113,9.856-61.316,24.311-68.488,2.176
		c-2.674-8.253-11.451-1.91-20.205-5.463c-0.418-0.17-1.077-0.336-1.37-0.135c-7.403,5.086-17.184,2.922-24.517,7.998
		c-2.937,2.033-6.418,2.396-9.461,2.565c-10.514,0.583-20.151,4.495-30.143,7.004c-5.958,1.496-10.029-0.082-15.025,2.718
		c-3.724,2.087-17.456,2.633-16.974-5.063c0.526-8.401,5.533-4.186,10.862-9.133c0.543-0.505,0.653-1.783,0.518-2.637
		c-0.436-2.762-2.389,0.05-88.167,6.477C525.364,1506.727,523.204,1505.736,523.293,1496.155z M921.056,655.734
		c1.354,0.267,54.912-0.057,104.596-17.58c3.945-1.391,5.723-3.377,6.599-7.225c16.152-70.96,23.802-165.448,23.179-166.882
		c-8.555-0.209-41.329,62.928-90.818,129.171C920.151,652.729,921.135,652.285,921.056,655.734z M999.82,846.351
		c0.75-15.12-0.57-30.016,1.505-44.827c1.177-8.403-5.226-4.053-19.46,2.806c-6.572,3.166-5.644,2.506,8.777,28.055
		C993.359,837.2,995.352,842.487,999.82,846.351z"/>
</g>
</svg>
