<?xml version="1.0" encoding="utf-8"?>

<!DOCTYPE svg PUBLIC "-//W3C//DTD SVG 1.1//EN" "http://www.w3.org/Graphics/SVG/1.1/DTD/svg11.dtd">
<svg version="1.1" id="Layer_1" xmlns="http://www.w3.org/2000/svg" xmlns:xlink="http://www.w3.org/1999/xlink" x="0px" y="0px"
	 viewBox="0 0 1600.345 1750.711" style="enable-background:new 0 0 1600.345 1750.711;" xml:space="preserve">
<g>
	<path d="M785.798,1564.431c5.404,7.462,18.486,7.067,31.378,39.975c3.418,8.725,0.469,19.754,2.623,30.713
		c0.863,4.392-0.764,9.355-4.221,12.044c-6.313,4.91-10.061,12.644-17.875,15.818c-2.487,1.011-3.692,3.565-5.415,5.469
		c-6.492,7.174-18.934,9.099-26.998,4.157c-6.124-3.753-5.388-9.823-9.669-18.967c-2.813-6.007-9.166-0.187-9.917,0.943
		c-3.046,4.587-7.731,6.42-12.761,7.917c-9.601,2.857-19.5-3.55-19.888-13.59c-1.439-37.264,15.472-29.2-39.598-38.538
		c-8.612-1.46-1.869,4.546-28.591-4.852c-40.093-14.1-44.094-21.479-56.738-22.886c-8.545-0.952-16.688-3.683-24.842-6.085
		c-33.532-9.879-272.154-53.927-276.702-54.387c-11.707-1.184-22.283-6.891-33.899-7.882c-17.21-1.468-33.026-8.14-49.432-12.584
		c-7.012-1.899-13.041-5.779-19.121-9.935c-33.749-23.069-120.703-60.446-114.978-129.552c2.913-35.169,7.129-75.098,76.06-93.958
		c145.391-39.781,199.485-36.155,312.252-49.389c6.767-0.794,6.752-0.941,5.62-7.758c-13.316-80.184-30.718-30.157-62.475-262.122
		c-4.108-30.005-8.705-59.929-21.126-87.928c-28.818-64.961,12.11-128.12,13.992-138.816c2.106-11.972,8.438-11.332,14.064-26.409
		c2.601-6.97,6.329-13.496,8.667-20.605c1.921-5.842,20.35-11.912,27.408-19.659c11.974-13.144,25.908-23.724,41.675-31.85
		c6.513-3.356,9.561-9.922,14.372-14.829c30.331-30.938,23.051-20.816,43.274-38.415c8.662-7.537,17.327-15.483,27.127-20.966
		c13.298-7.44,21.08-20.381,33.047-28.843c51.153-36.169,133.148-354.467,290.95-442.44c13.79-7.688,30.27,1.385,42.038,11.914
		c65.009,58.163,130.861,130.738,192.778,248.27c19.266,36.572,28.035,60.785,35.616,65.904
		c5.636,3.806,14.172,23.547,15.278,34.117c1.409,13.453,4.69,26.449,9.345,39.137c7.665,20.892,5.622,35.219,22.87,69.858
		c2.907,5.838,5.067,11.861,6.414,18.21l0.164-0.133c-2.046,1.575-2.049,4.11-2.86,6.244c-5.213,13.724-10.003,3.77-12.943,14.823
		c-6.978,26.234-10.638,23.515-13.741,35.815c-1.843,7.303-4.324,14.378-7.344,21.254c-3.203,7.293-5.164,8.328-13.257,7.693
		c-6.272-0.492-9.018-3.269-11.768,0.134c-13,16.081-2.737,20.418-10.408,28.927c-2.487,2.759-3.352-0.224,45.129,67.478
		c5.322,7.432,8.719,15.864,12.197,24.224c9.642,23.177,12.722,18.076,22.21,51.059c12.52,43.525,33.255,83.818,52.727,124.352
		c147.188,306.385,93.867,168.912,204.799,395.136c29.751,60.671,35.68,100.509,40.068,118.665
		c6.215,25.71,16.261,55.017-3.786,84.496c-5.687,8.364-13.171,15.312-22.261,20.154c-39.938,21.271-48.348,19.879-65.59,22.254
		c-209.329,28.83-487.132-20.119-495.52-39.199c-3.656-8.315-10.679-12.274-18.279-15.719
		c-30.016-13.606-74.696-40.519-120.652-52.993c-29.778-8.083-30.419-3.313-37.521,3.236
		C732.613,1508.574,771.761,1545.047,785.798,1564.431z M997.735,930.624c3.994,12.8-3.917,24.285-4.181,36.753
		c-0.016,0.777-4.421,3.808-3.195,6.581c1.087,2.457-0.697,3.29-1.758,5c-9.002,14.5-2.829,1.468-2.135,41.452
		c0.446,25.718,27.67,66.592,16.671,96.254c-3.426,9.24,5.639,21.526,1.12,46.064c-2.013,10.934,6.767,18.857,18.761,33.13
		c15.446,18.38,17.031,19.54,49.854,41.176c11.929,7.863,22.374,18.194,36.698,22.247c2.686,0.76,6.655,2.493,6.269,5.867
		c-0.802,7.019,7.889,5.671,8.701,9.139c1.217,5.201,4.963,6.184,16.925,12.292c7.602,3.881-2.806,5.961,3.942,8.55
		c5.786,2.219,10.25,6.891,16.371,8.566c7.844,2.147,7.532,8.577,3.705,6.104c-6.557-4.235-14.197-6.161-20.978-9.895
		c-2.654-1.461-4.974-3.94-7.323,0.66c-1.861,3.643-5.479-6.595-12.18-2.932c-0.726,0.397-2.07,0.106-2.944-0.283
		c-7.359-3.274-15.637-4.529-22.047-9.871c-2.085-1.738-4.641-3.813-6.692-1.369c-1.822,2.169,1.44,4.06,2.663,5.742
		c2.671,3.675,4.176,8.422,8.871,10.414c48.654,20.646,33.259,16.311,53.492,24.145c38.333,14.844,20.934,10.402,50.148,22.399
		c8.591,3.528,17.711,5.426,26.276,9.208c7.027,3.103,14.806,4.526,22.293,6.538c1.364,0.367,3.258,0.738,4.187-0.836
		c0.743-1.259-0.459-2.401-1.102-3.492c-36.143-61.387-28.108-86.893-74.842-280.594c-4.27-17.699-21.454-118.852-40.282-131.175
		c-31.94-20.906-105.27-1.522-82.823-82.336c2.297-8.269,7.137-15.659,8.775-23.976c2.225-11.296,8.792-20.783,11.789-31.708
		c2.105-7.671,2.932-15.559,4.728-23.272c0.377-1.619-0.372-3.567-0.837-5.301c-1.148-4.278-1.32-8.501-1.141-12.989
		c0.476-11.919-2.213-23.581-4.285-35.26c-0.368-2.073-1.652-2.968-3.975-2.254c-4.659,1.432-32.622,14.07-52.168,7.744
		c-9.246-2.992-5.921,4.049-14.593,0.862c-12.373-4.546-24.917-2.991-37.428-0.572c-2.891,0.559-3.914,2.244-2.42,5.048
		c7.622,14.308,8.757,15.164,2.612,21.049c-2.688,2.575-6.4,3.114-9.246,5.483c-7.562,6.295-5.61-1.964,22.775,51.626
		c7.417,14.003,1.337,19.38,4.712,25.753c2.337,4.414,8.136,25.927,7.545,45.931C998.687,906.36,999.551,918.456,997.735,930.624z
		 M786.291,1084.962c1.931-0.258,4.543,0.827,5.448-1.717c0.784-2.203-1.683-2.859-2.89-4.056
		c-12.041-11.942-5.677-15.253-5.762-22.839c-0.695-62.229,84.373-170.395,126.215-273.221c4.937-12.132-7.852-9.878-5.298-12.636
		c4.703-5.078,0.079-10.469,0.599-15.698c0.292-2.939-0.915-6.192-4.664-7.221c-1.321-0.363-2.012-1.485-2.572-2.714
		c-7.109-15.594-8.122,8.249-45.536,14.081c-20.129,3.138-36.727-13.639-33.612-33.764c1.203-7.772,4.196-14.87,7.323-21.972
		c5.025-11.411-8.98-0.359-9.996-12.969c-0.5-6.198-2.997-11.961-3.423-18.224c-0.212-3.121-2.548-6.131-4.07-9.116
		c-0.709-1.391-1.844-2.761-3.647-2.171c-3.934,1.288-1.852,11.362,0.825,14.763c4.194,5.328,4.091,8.446,0.015,13.902
		c-6.151,8.237,0.408,1.969-15.234,41.244c-9.094,22.833-20.056,44.845-30.395,67.13c-14.467,31.183-8.634,26.47-10.863,35.298
		c-1.486,5.885-5.642,10.775-6.897,16.797c-1.757,8.43,2.183,16.322,2.461,24.634c0.834,24.91-5.276,83.305-5.677,86.047
		c-1.093,7.466-4.204,14.243-5.609,21.695c-1.959,10.394,1.276,20.958,2.776,31.428c1.914,13.354-2.941,28.902-0.239,41.572
		c1.947,9.131,14.36,12.343,22.155,16.129c11.606,5.636,4.355,10.747,16.28,13.058
		C776.924,1084.989,785.513,1085.066,786.291,1084.962z M924.037,341.682c2.871,0.361,4.787-1.799,6.589-4.056
		c11.042-13.829,16.993-10.887,8.269-17.04c-10.359-7.305-20.977-14.271-29.71-23.641c-2.812-3.017-4.326-2.898-6.768,0.408
		c-14.903,20.17-15.843,20.728-12.992,25.219c6.867,10.815,2.842,13.08,11.05,10.082
		C915.754,327.075,911.398,341.495,924.037,341.682z M1010.825,383.111c1.793-3.08-1.029-4.68-2.622-6.499
		c-11.076-12.646-23.376-23.963-37.16-33.608c-1.956-1.368-4.197-4.571-6.504-2.617c-2.323,1.968-0.383,5.297,0.472,7.941
		c0.322,0.995,9.99,16.875,13.245,21.723C989.281,386.478,1008.263,387.512,1010.825,383.111z"/>
	<path d="M1218.401,565.632c0,0,0.117-0.121,0.141-0.127C1218.564,565.499,1218.401,565.632,1218.401,565.632z"/>
</g>
</svg>
