<?xml version="1.0" encoding="utf-8"?>

<!DOCTYPE svg PUBLIC "-//W3C//DTD SVG 1.1//EN" "http://www.w3.org/Graphics/SVG/1.1/DTD/svg11.dtd">
<svg version="1.1" id="Layer_1" xmlns="http://www.w3.org/2000/svg" xmlns:xlink="http://www.w3.org/1999/xlink" x="0px" y="0px"
	 viewBox="0 0 1223.32 3252.083" style="enable-background:new 0 0 1223.32 3252.083;" xml:space="preserve">
<path d="M1154.507,784.18c-0.41-0.29-1.22-0.87-1.62-1.16c-0.71-3.69-2.56-7-3.33-10.65c-0.85-3.18-1.2-6.51-2.62-9.5
	c-2.31-4.86-3.15-10.27-3.48-15.59c-0.11-1.85-1.4-3.3-1.98-4.98c-0.87-4.91-2.02-9.81-3.7-14.49c-3.63-6.02-4.13-13.21-6.13-19.81
	c-1.45-3.41-2.35-7.04-2.17-10.77c-0.9-0.74-1.8-1.47-2.67-2.18c-3.768-17.367-4.457-10.247-4.06-19.54
	c-17.249-73.521-5.597-66.671-29.97-128.41c-2.25-5.98-5.55-11.5-7.39-17.63c-4.161-7.013-14.339-37.16-14.83-38.16
	c-10.281-22.062-3.928-31.409-39.199-82.587c-18.405-26.706-63.157-110.8-65.021-157.403c-1.625-16.245,4.827-26.993-7.68-72.01
	c-1.275-12.469,7.743-18.154,5.48-38.52c-0.702-5.115,1.327-24.46,1.33-25.46c0.228-14.694-0.982-5.114,4.25-22.89
	c4.048-17.165,10.709-24.129,6.65-29.27c-1.6,1.24-3.69,1.02-5.46,1.72c-9.447,8.172-5.889,3.268-11.94,12.86
	c-3.09,5.17-7.64,9.3-10.45,14.65c-7.313,11.633-20.485,57.497-20.71,58.5c-0.35,0.34-1.06,1.04-1.41,1.38
	c-0.89,3.85-2.12,7.6-2.88,11.47c-1.38,7.2,0.73,14.85-2.25,21.771c-3.171,9.109,0.361,19.128-2.85,28.132
	c-4.938,13.844-6.643,22.207-6.007,37.407c1.154,27.59-35.094,39.831-22.074,58.465c6.666,9.537,20.329,2.428,26.611,10.165
	c7.333,9.032,47.577,162.787,48.64,167.75c2.1,7.83,2.22,15.98,3.72,23.91c2.313,14.714,15.374,54.172,17.14,57.18
	c0.67,4.4,2.88,8.32,3.93,12.62c0.05-0.59,0.11-1.16,0.18-1.73c3.299,17.43,17.861,51.542,16.34,67.84
	c-2.105,16.537-8.758,20.927-13.48,68.27c-2.89,10.538-0.388,29.933-2.83,35.05c-6.441,39.118,6.271,87.512,5.18,96.46
	c0.46-0.81,0.85-1.65,1.35-2.42c-1.148,25.508,2.282,1.844-3.3,41.82c-13.29,16.62-33.98,24.55-48.38,39.96
	c-6.88,7.48-13.07,15.59-20.07,22.95c-4.085-4.306-17.008-28.878-19.36-44.49c-0.573-2.867,2.092-17.566,3.21-19.69
	c3.28-1.44,7.28-1.41,10.05-4.02c6.63-5.54,7.51-14.65,11.02-22.05c4.81-10.2,8.86-20.78,11.38-31.79
	c2.42-10.17,8.28-20.16,6.07-30.93c-3.161-18.924-16.294-8.29-18.8-7.11c-0.07-3,0.93-5.86,1.19-8.81
	c-0.123-2.56-4.143-27.401-4.21-35.18c-0.26-3.69,0.63-7.34,0.49-11.02c-3.758-37.381-2.479-20.279-1.47-30.84
	c0.5-3.38-0.66-6.73-0.23-10.1c0.22-3.34,3.49-5.13,5.1-7.79c-2.09-4.02-3.1-8.85-6.66-11.91c-2.18-1.55-4.34-3.15-6.06-5.21
	c-0.42-3-2.64-5.09-4.36-7.39c2.06-1.42,4.42-2.78,5.09-5.4c-2.01-0.31-4-0.59-5.99-0.87c0.29-2.22,0.36-4.46,0-6.66
	c-0.84-0.16-2.53-0.47-3.37-0.62c1.51-2,3.74-3.16,5.97-4.17c-0.15-1.48-0.3-2.94-0.46-4.39c-1.47,0.01-2.93,0.02-4.36,0.05
	c-0.78-1.27-1.56-2.51-2.35-3.74c-0.06-0.78-0.19-2.34-0.26-3.12c-2.86-0.02-3.8,2.24-4.3,4.67c-1.85-0.27-3.68-0.52-5.5-0.74
	c-0.801-7.055-1.216-2.144-6.21-7.82c0.07-2.64,0.18-5.27,0.29-7.89c-1.36,0.54-2.69,1.16-4.06,1.59
	c-3.187-3.784-13.029-11.387-17.27-12.53c-0.15-1.81-0.27-3.62-0.37-5.41c-0.71-0.03-2.14-0.08-2.85-0.11
	c0.24-3.65,0.78-7.29,0.61-10.96c-3.25,2.16-5.19,6.32-9.58,6.6c-1.27-0.87-2.78-0.74-4.18-0.46c-2.68,3.67-7.95,3.94-11.98,5.25
	c0.08-0.93,0.25-2.78,0.33-3.71c-5.57-0.49-10.68-2.94-15.77-5.07c-0.47,1.18-0.93,2.36-1.38,3.55c-2.72,0.04-5.8,0.55-7.77-1.78
	c-0.92,0.59-1.82,1.2-2.71,1.83c-0.65-0.8-1.29-1.59-1.93-2.38c-1.94,1.06-3.26,2.78-3.87,4.89c-10.54,0.234-2.224,1.266-18.19,3.4
	c-0.83-0.71-1.7-1.37-2.6-1.96c-3.35,0.31-6.66,0.93-10.02,0.97c0.11-1.37,0.24-2.72,0.39-4.06c-0.75-1.37-1.49-2.73-2.25-4.08
	c-2.58,4.99-5.78,9.7-10.48,12.92c-0.22-1.46-1.77-1.28-2.84-1.58c-7.985,7.94-1.39,4.615-9.19,11.16c0.76,0.69,1.52,1.39,2.3,2.1
	c-0.74,0.21-2.23,0.61-2.97,0.81c-0.29,1.45-0.56,2.92-0.82,4.39c-1.56-0.06-3.12-0.12-4.66-0.15c-0.52,1.08-1.03,2.16-1.53,3.25
	c-0.54,0.1-1.61,0.3-2.15,0.4c-1.73,1.82-4.04,2.7-6.5,2.92c-0.03,1.26-0.05,2.52-0.06,3.8c-2.16-0.07-4.3-0.15-6.43-0.31
	c-0.97-1.7-2.27-3.13-4.22-3.62c0.15,3.02,1.59,6.78-1.97,8.48c-0.52-1.6-1.01-3.18-1.5-4.76c-0.43,0.05-1.28,0.15-1.7,0.2
	c-0.66,1.75-1.3,3.52-1.92,5.3c1.34,2.29,1.53,4.96,1.8,7.55c-0.55,0.09-1.65,0.26-2.2,0.35c0.41,0.16,1.21,0.48,1.62,0.64
	l-1.89,0.09c0.06,0.47,0.18,1.41,0.24,1.87c-1.85-0.02-3.7-0.03-5.53,0c-16.819,13.465-13.214,6.621-15.86,14.52
	c-1.27,4.72-4.33,8.73-5.49,13.51c-1.5,4.12-2.13,8.67-4.8,12.27c-0.01,1.79-0.71,3.81,0.18,5.48c3.38,4.57,3.74,10.81,2.39,16.17
	c-1.665,5.238-6.394,39.666-6.56,40.67c-0.37,7.68,0.53,15.36,0.45,23.05c1.37,8.61-0.23,17.29,0.17,25.95
	c-0.27,3.79,0.79,7.83-0.97,11.39c-1.84,3.97-0.81,8.47-0.35,12.64c1.721,9.72-1.062,24.473,5.03,27.88
	c2.02,0.07,5.17,0.29,5.15,3.02c-0.35,6.73,1.13,13.36,1.12,20.09c-1.188,26.672,7.151,65.407,25.83,87.87
	c3.62,2.35,5.36,6.72,9.27,8.69c3.72,2,2.01,7,2.17,10.41c-6.708,8.275,0.796,17.571-64.581,36.48
	c-37.285,10.784-23.855-5.471-96.096,30.283c0.936-0.994,1.872-1.988,2.808-2.981c-10.679,11.337-42.957-4.424-72.981,84.198
	c-3.19,8.46-7.94,16.43-9.33,25.49c-0.39,0.46-1.15,1.37-1.54,1.83c-0.086,3.485-5.612,22.018-5.9,23.02
	c-0.35,3.36-0.89,6.73-2.04,9.94c0.057,30.803-18.078,89.779-18.55,93.16c-2.77,7.38-7.58,13.75-10.49,21.08
	c-2.351,5.234-5.603,21.131-6.91,23.87c-0.506,3.711-0.066,3.586-2.05,9.96c-0.38,11.16-0.54,22.37,0.02,33.54
	c0.81,2.49,1.39,5.06,1.95,7.65c1.85,3.04,1.51,6.7,2.55,10.01c2.45,6.5,2.11,13.48,2.86,20.25c9.905,55.09,9.654,48.742,8.98,99.2
	c-0.66,1.41-0.8,2.98-0.89,4.55l-0.95-0.01c0.04,3.93-0.39,8.04,1.46,11.69c14.343,28.3-7.039,61.564,5.291,91.482
	c4.249,10.309,11.304,19.241,15.89,29.406c2.995,6.639,12.466,32.48,2.027,36.573c-6.54,2.564-16.985-8.685-22.21-11.479
	c-13.359-7.142-26.786-14.162-40.178-21.242c-205.738-90.888-75.171-36.999-202.703-81.247c-10.884-3.776-25.897-3.211-37.461-4.285
	c-64.75-6.018-97.154,16.372-111.879,78.355c-5.543,23.331-2.041,45.39,5.98,67.549c17.2,34.651,43.119,42.285,53.75,50.605
	c9.542,7.468,23.003,28.048,66.343,56.42c64.663,42.332,54.669,28.277,99.53,42.709c148.827,47.882,219.179,116.012,247.048,131.441
	c6.722,9.099,13.444,18.197,20.166,27.296c-0.819-1.85-1.637-3.699-2.456-5.549c6.563,8.181,13.126,16.363,19.689,24.544
	c-0.501,0.389-1.002,0.777-1.503,1.166c-0.304,0.236,11.642,6.063,13.74,5.979c4.817-0.192,16.383-9.111,28.986-10.795
	c3.79-0.41,7.25-2.13,10.85-3.27c4.27-1.68,9.03-1.84,13.1-4.06c6.34-2.47,11.35-7.77,18.35-8.55c0.2,0.69,0.59,2.06,0.79,2.74
	c-1.9,4.57-4.74,8.76-5.86,13.64c0.585,0.727,16.329,16.949,16.34,16.96c6.99,3.23,11.91,9.68,19.06,12.76
	c2.79,4.51,5.6,9.04,9.711,12.491c8.155,15.091,9.92-12.933,14.682,85.788c1.994,41.331-3.419,81.584-4.578,122.728
	c-2.439,86.619,15.701,112.708,12.705,150.652c-1.156,17.192,4.269,49.631,3.7,66.07c-0.46,7.75,1.92,15.229,2.69,22.889
	c0.748,7.436,1.443,23.456,6.755,29.271c5.949,6.512,9.234,7.327,4.567,21.856c-7.598,23.656-7.36,48.976-8.921,73.502
	c-8.714,136.944,22.217,199.1,5.078,288.511c-0.83,4.33-3.11,8.44-2.46,12.99c-0.19-1.07-0.38-2.07-0.56-3.05
	c-1.245,10.182-1.265,2.894-8.08,25.98c-0.857,6.701-8.283,23.378-10.11,26.781c-10.68,19.892-10.559,38.58-11.25,60.189
	c-0.2,6.26-3.12,11.87-4.36,17.91c-0.1-0.63-0.19-1.21-0.28-1.74c-0.21,8.23-9.14,11.7-11.91,18.76
	c-12.485,32.026-9.135,46.522-19.314,60.738c-5.278,0.613-10.555,1.225-15.833,1.838c-5.821,0.676-10.683,8.287-6.197,13.381
	c13.928,15.816,33.464,15.79,53.423,10.627c13.273-19.343,58.25-36.226,88.088-28.7c6.694-2.229,13.341-4.564,19.867-7.136
	c24.857-9.794,24.529-29.802,16.966-38.531c-6.275-7.243-11.909-15.639-8.88-26.338c1.3-6.64-1.54-13.23-0.14-19.83
	c1.24-6.97,0-14.04,0.81-21.01c1.324-4.583,11.432-76.584,17.766-97.215c16.741-54.522,67.402-152.061,64.474-224.705
	c-0.029-2.92,8.313-50.153,8.05-66.06c13.978-75.305-52.767-83.687-9.942-291.927c58.911-286.456,56.482-222.953,68.612-304.462
	c3.01-2.1,7.16-1.73,9.92-4.21c3.12-1.06,6.93-2.04,8.46-5.28c2.01-4.43,5.56-8.15,6.35-13.09c1.12-4.07-1.15-7.94-1.32-11.96
	c-2.119-9.799,6.627-19.562,11.83-43.37c2.62-5.38,2.43-11.53,4.77-16.99c1.5-3.91,1.66-8.11,2.48-12.16
	c7.579-14.25,3.013-17.064,5.16-21.97c6.742-17.25,4.353-17.626,7.25-20.25c0.91-4.92-0.55-11.17,3.27-14.98
	c-0.45-5.04,1.06-9.86,1.33-14.82c1.79-0.54,1.59-2.31,1.68-3.78c-1.44-1.16-2.35-2.95-3.96-3.81c-3.03-0.31-6.12-0.1-9.07-0.95
	c0.42-0.88,0.86-1.73,1.32-2.55c1.41-0.85,2.68-1.89,3.92-2.94c-0.42-1.44-0.86-2.86-1.29-4.25c-9.258-0.615-6.759-3.993-14.8,0.07
	c-0.83-19.663,5.023-41.374,6.136-61.389c7.747-139.36-12.992-222.828,0.924-257.801c0.366-1,31.879-82.093,38.68-118.66
	c8.244-47.813,15.836-32.032,27.42-101.47c3.16-18.5,1.54-38.03,9.21-55.59c3.15-9.01,7.58-17.51,10.71-26.53
	c21.868-56.134,9.821-117.629,12.56-139.36c1.37-10.44,6.65-19.74,10.62-29.33c40.988-84.021,22.113-132.83,25.42-143.42
	c0.65-1.93,0.42-3.89-0.36-5.72c0.14-0.45,0.41-1.35,0.55-1.8C1143.953,891.797,1166.292,833.425,1154.507,784.18z M594.987,1638.21
	c1.31,2.21,1.26,4.87,0.56,7.3c-1.15,3.97-0.96,8.15-1.56,12.22c-1.09,0.22-2.17,0.45-3.24,0.71c-0.12-3.32-0.22-6.75-1.63-9.79
	c-0.06-1.42-0.11-2.81-0.16-4.18c-0.87-1.68-1.11-3.56-1.1-5.39c2.38-3.39-0.27-7.89,1.75-11.51c0.16-2.65,0.37-5.32-0.33-7.89
	c-1.09-4.38,0.07-8.98-1.4-13.28c-1.14-3.3-1.28-6.8-1.08-10.24c-1.02-1.27-1.93-2.6-2.31-4.17l-0.46-0.1
	c0.31-4.85-1.79-9.37-2.82-14c0.44-1.31,1.71-3.55-1.15-2.15c-0.2-2.47,0.24-5.03-0.64-7.36c-4.46-6.56-3.89-14.94-6.7-22.17
	c0.895-6.894,2.309-63.817,4.24-70.55c19.288-61.292,14.194-56.206,19.08-73.29c3.11-0.47,4.28,2.83,5.06,5.21
	c0.282,1.76,3.506,32.829,3.34,35.79c-0.286,5.444,3.962,30.112,4.24,34.54C614.055,1520.315,606.197,1563.058,594.987,1638.21z"/>
</svg>
