<?xml version="1.0" encoding="utf-8"?>

<!DOCTYPE svg PUBLIC "-//W3C//DTD SVG 1.1//EN" "http://www.w3.org/Graphics/SVG/1.1/DTD/svg11.dtd">
<svg version="1.1" id="Layer_1" xmlns="http://www.w3.org/2000/svg" xmlns:xlink="http://www.w3.org/1999/xlink" x="0px" y="0px"
	 viewBox="0 0 1901.003 1669.306" enable-background="new 0 0 1901.003 1669.306" xml:space="preserve">
<g>
	<path d="M1825.348,1633.382c-22.034,6.624-39.107-14.612-61.301-18.376c-12.639-2.144-21.588-58.244-22.411-65.671
		c-3.143-28.376-19.957-52.31-24.517-80.109c-0.364-2.221-3.308-5.558-5.301-5.746c-39.833-3.751-58.618-35.162-82.297-60.916
		c-39.507-42.969-60.961-96.102-79.906-149.078c-13.252-37.057-40.534-63.354-57.501-96.883
		c-65.765-129.96-36.757-64.695-81.912-129.694c-93.123-134.051,3.369-110.118-81.515-189.618
		c-26.008-24.358-72.49,50.844-82.527,75.762c-21.612,53.658-54.472,99.887-92.777,141.464
		c-225.842,245.134-181.451,309.623-300.859,432.831c-34.047,35.13-63.73,18.797-91.748,10.355
		c-11.399-3.434-24.298-11.591-33.939-0.132c-12.001,14.264-26.096,28.34-17.682,51.402c7.102,19.463,7.139,36.642-24.76,31.401
		c-77.476-12.728-120.019,0.217-227.877-8.136c-19.042-1.474-11.938-15.436-0.331-15.112c30.232,0.842,51.329-19.473,75.485-32.206
		c3.344-1.763,109.811-58.969,114.821-66.652c25.747-39.484,56.793-75.531,76.691-118.81c9.813-21.345,23.222-40.666,37.542-58.972
		c55.32-70.719,5.969-77.79,10.893-289.431c0.517-22.232,2.402-44.431,3.016-66.663c0.648-23.453-20.792-75.045-22.605-75.591
		c-26.513-7.972-19.359-32.249-23.908-50.406c-41.036-163.805-24.248-166.156-20.442-307.933
		c1.152-42.916-69.083-16.171-85.252-6.412c-50.572,30.525-134.74,2.785-171.748-38.198c-72.357-80.13,23.1-199.372,121.103-166.988
		c27.136,8.967,105.141,46.117,109.31,27.716c2.959-13.061-13.53-5.684-86.802-37.876c-29.7-13.049-62.767-11.973-92.462-24.463
		c-50.366-21.185-101.894-39.381-155.131-51.577c-56.627-12.972-107.59-41.832-162.39-57.536
		c-43.874-12.572-72.4-40.549-104.571-66.94C48.12,42.25,36.595,41.8,40.054,35.45c1.856-3.407,59.703,3.962,96.003,24.934
		c72.974,42.16,56.453,23.45,94.719,30.428c62.834,11.457,123.525,30.796,185.113,46.838
		c81.059,21.114,127.393-0.364,285.566,50.863c135.873,44.005,455.547,61.679,542.382,209.262
		c3.755,6.381,8.528,11.502,16.269,13.204c113.329,24.919,268.377,224.068,306.348,411.006c0.805,3.964,11.082,75.206,20.017,85.88
		c50.757,60.638,55.015,193.615,117.643,285.604c18.725,27.504,26.064,60.955,35.922,92.576
		c39.335,126.177,59.472,119.63,42.238,137.816c-18.72,19.754-18.502,44.219,0.241,65.086c18.185,20.245,24.568,73.502,65.758,98.24
		c16.732,10.048,14.484,22.479,10.142,36.936C1854.859,1635.965,1848.844,1633.382,1825.348,1633.382z M835.465,1219.507
		c0.06,4.074-2.644,9.581,2.635,11.92c11.139,4.934,83.6-83.724,103.361-184.854c0.78-3.991,1.68-7.801,5.265-9.969
		c27.72-16.759,30.563-78.379,59.459-122.875c26.124-40.228,71.584-138.249,51.564-179.757c-9.07-18.806-11.243-37.983-9.797-58.187
		c0.389-5.43,1.661-11.85-5.176-14.301c-21.136-7.577-41.013-17.572-65.52-13.719c-31.338,4.926-63.45,12.309-94.751-3.19
		c-6.077-3.009-19.308-3.625-15.692,8.522c11.551,38.802-40.207,62.434-16.96,115.191c10.01,22.716-17.02,26.206-14.049,44.494
		C881.62,1094.806,832.493,1016.129,835.465,1219.507z"/>
</g>
</svg>
