<?xml version="1.0" encoding="utf-8"?>

<!DOCTYPE svg PUBLIC "-//W3C//DTD SVG 1.1//EN" "http://www.w3.org/Graphics/SVG/1.1/DTD/svg11.dtd">
<svg version="1.1" id="Layer_1" xmlns="http://www.w3.org/2000/svg" xmlns:xlink="http://www.w3.org/1999/xlink" x="0px" y="0px"
	 viewBox="0 0 1950.672 1668.29" enable-background="new 0 0 1950.672 1668.29" xml:space="preserve">
<g>
	<path d="M856.302,736.616c-0.979-2.046-2.31-4.129-1.957-6.419c1.358-8.821-2.152-16.608-4.748-24.644
		c-2.557-7.927-2.92-17.92-5.114-26.328c-15.848-60.746-11.18-50.609-4.999-105.721c0.416-3.709-2.657-6.103-4.093-9.119
		c-4.601-9.662-9.003-19.424-13.812-28.981c-3.734-7.421-8.721-14.146-12.295-21.696c-3.215-6.79-6.382-13.692-10.474-19.954
		c-11.432-17.493-12.76-25.748-29.862-29.147c-77.842-15.473-42.801-6.923-133.602-36.188c-26.913-8.674-42.599-1.777-70.225-14.006
		c-4.664-2.065-9.63-1.708-14.258-4.18c-5.692-3.04-12.75-3.504-19.041-5.793c-18.632-6.78-40.017-4.292-58.989-10.273
		c-1-0.315-33.65-11.813-49.919-14.861c-9.302-1.743-18.835-2.633-27.947-5.334c-24.721-7.328-125.662-53.773-156.498-59.863
		c-4.525-0.894-9.444-4.465-13.519-5.019c-10.503-1.428-16.512,9.872-53.541-9.725c-20.712-10.962-35.952-4.626-54.586-13.956
		c-0.6-0.3-1.307-0.828-1.859-0.717c-10.284,2.053-17.426-4.971-25.192-9.302c-22.064-12.304-45.092-11.61-49.362-23.486
		c-4.759-13.235,22.515-7.949,31.91-4.275c8.86,3.464,18.211,4.74,27.375,6.859c1.586,0.367,3.14-0.189,4.618-0.832
		c10.106-4.393,20.212-2.718,30.207,0.28c4.502,1.351,11.975-3.367,17.829-1.929c13.321,3.272,26.999,4.624,40.443,7.16
		c48.924,9.232,22.007-3.618,74.571,10.726c48.081,13.12,143.321,22.777,153.562,24.671c42.676,7.894,51.61,3.434,71.393,9.303
		c49.59,14.712,48.423,26.708,95.938,33.511c14.397,2.061,28.347,6.086,42.486,9.309c58.46,13.324,42.134,12.558,63.825,9.732
		c49.37-6.432,38.453-1.074,80.304-1.149c20.707-0.037,32.391,4.607,60.906,7.99c9.675,1.148,18.76,3.916,27.665,7.469
		c1.943,0.775,3.935,0.715,5.827,1.51c3.009,1.264,4.719,0.024,5.006-3.293c1.208-13.939,53.063-9.696,49.83-42.446
		c-0.871-8.818-11.935-6.122-40.512-9.055c-7.368-0.756-20.732,6.996-36.122-9.983c-8.278-9.133,4.099-20.421-4.263-25.068
		c-14.117-7.846,0.563-18.066-7.486-27.742c-9.485-11.403,9.524-15.548-1.611-18.746c-10.963-3.148-17.425-10.601-8.776-19.658
		c10.41-10.901,17.738-12.961,21.226-23.644c2.299-7.042-10.524-7.777-6.789-20.114c1.977-6.529,3.971-12.96,7.604-18.789
		c4.121-6.612,0.253-13.177-0.45-19.689c-0.364-3.37-11.778-2.394-9.433-5.62c4.156-5.718-1.104-9.194-2.819-13.096
		c-9.521-21.664,11.174-29.711,21.449-44.227c7.806-11.027,17.878-19.714,32.153-21.715c7.322-1.026,3.093-7.349,20.005-5.086
		c6.825,0.913,28.133-1.148,38.422,2.945c1.802,0.717,3.493-0.552,4.862-1.834c4.52-4.233,10.44-6.163,15.495-9.487
		c9.558-6.286,8.275,10.6,18.101-1.747c6.104,8.485,13.408,14.531,23.261,18.043c11.309,4.031,19.086,14.196,24.116,12.182
		c13.552-5.426,16.283,12.892,26.086,13.343c5.795,0.267-0.433,8.573,9.691,25.499c3.068,5.13-0.823,3.365,4.115,37.026
		c0.383,2.612-0.951,4.844-1.379,7.274c-1.225,6.952-1.326,13.816-0.466,20.875c1.819,14.93-1.919,14.275-4.582,40.579
		c-0.554,5.479-2.127,9.595-5.622,13.847c-6.048,7.357-7.804,16.921-10.915,25.682c-7.653,21.552-3.928,27.32-8.796,31.353
		c-8.768,7.265-1.211,29.147,11.047,40.933c14.763,14.195,14.672,14.188,29.887,16.107c13.965,1.761,7.611,19.733,24.554,12.531
		c22.348-9.5,77.042-10.878,100.701-5.574c14.352,3.217,29.027,5.855,44.018,6.285c10.27,0.294,19.693,5.513,29.438,8.763
		c17.721,5.91,79.087-1.515,116.862-1.127c10.042,0.103,9.517-1.936,55.893-11.292c55.583-11.213,102.976,3.159,252.78-12.833
		c9.175-0.979,18.571-0.605,27.818-0.038c22.478,1.381,44.702-2.233,67.068-2.984c14.375-0.483,19.732,5.497,50.911,8.141
		c36.844,3.124,35.001-4.159,50.821-2.425c2.884,0.316,5.735,0.363,7.309,3.772c2.35,5.088,0.37,10.541-5.508,12.354
		c-118.044,36.413-66.099,6.226-135.925,28.089c-36.074,11.295-40.974-7.456-57.031-3.14c-10.715,2.88-47.667,16.969-63.561,18.909
		c-16.944,2.068-30.556,5.072-78.168,20.402c-43.648,14.054-51.772,5.672-76.711,14.126c-15.108,5.121-32.679,3.297-48.423,4.122
		c-30.88,1.619-62.831,7.609-93.683,6.645c-5.834-0.142-11.751,1.211-17.635,0.689c-12.516-1.109-24.255,3.113-36.3,5.106
		c-87.08,14.412-106.13-10.731-130.746,23.954c-18.443,25.987-22.456,31.663-12.652,81.776c2.294,11.726,2.241,12.449,2.004,49.95
		c-0.268,42.405,8.681,39.72-2.214,76.315c-4.609,15.481,5.184,21.861,4.733,56.892c-0.161,12.503-3.657,25.702,1.678,28.558
		c9.243,4.948,10.212,14.052,7.566,21.667c-3.035,8.733,1.217,14.673,4.416,20.767c7.651,14.577,13.676,40.56,13.972,41.565
		c1.083,3.675,0.565,7.159-0.186,10.728c-0.37,1.757-1.459,4.554-0.755,5.153c4.484,3.81,4.999,10.441,10.002,13.695
		c2.334,1.518,4.292,3.307,5.732,5.678c0.821,1.352,1.352,3.152,2.547,3.962c10.278,6.966,13.622,19.636,23.037,27.443
		c8.236,6.83,12.595,16.977,19.116,25.347c10.244,13.148,21.018,25.84,31.756,38.554c41.204,48.785,52.964,69.198,87.093,109.79
		c31.029,36.906,33.474,71.103,79.161,98.551c30.361,18.241,39.155,41.094,90.704,74.257
		c51.329,33.022,82.901,73.428,103.877,96.881c34.312,38.363,51.885,45.603,79.061,77.026c6.677,7.721,13.692,14.991,21.937,21.023
		c7.254,5.307,10.66,13.931,17.218,19.857c7.686,6.945,8.768,6.166,10.383,16.135c2.66,16.429,25.232,6.478,45.319,37.129
		c2.425,3.701,6.11,6.577,9.223,9.825c8.409,8.771,15.493,18.803,24.153,27.204c18.892,18.328,28.232,16.956,39.213,27.281
		c5.898,5.545,22.498,11.334,21.609,25.618c-0.824,13.25-26.307,10.105-32.749,11.018c-59.718,8.461-58.613-2.016-65.656-12.117
		c-8.187-11.742-22.167-15.99-28.146-27.561c-18.839-36.46,0.198,2.522-40.024-53.326c-10.16-14.106-9.437,10.043-33.283-13.326
		c-8.531-8.36-16.733-17.028-26.851-23.568c-1.692-1.094-3.351-2.367-4.69-3.858c-7.312-8.142-16.396-14.088-24.909-20.791
		c-11.677-9.194-22.702-19.218-33.995-28.898c-12.918-11.073-24.984-16.581-35.786-28.459
		c-12.254-13.473-17.903-10.71-59.293-45.234c-5.546-4.626-10.2-10.463-16.349-14.101c-14.104-8.345-24.246-21.141-36.707-31.288
		c-25.356-20.648-52.852-24.894-86.043-48.774c-25.208-18.136-41.729-41.568-83.62-75.354
		c-11.609-9.362-22.146-20.026-33.927-29.238c-15.517-12.135-32.092-22.792-47.911-34.497
		c-94.712-70.074-92.03-76.989-183.289-91.026c-88.283-13.579-158.494-4.112-190.052,7.255
		c-123.39,44.445-157.994,27.405-277.293,69.762c-17.014,6.041-18.77,12.872-22.159,23.749
		c-15.468,49.643-0.834,28.085-26.879,99.883c-24.618,67.868-29.248,22.934-73.125,202.612
		c-2.636,10.796-11.983,27.761-8.475,38.287c0.136,0.408,0.141,0.945-0.002,1.347c-3.382,9.498-3.415,19.98-8.527,28.978
		c-0.654,1.151-1.406,2.528-1.344,3.761c0.731,14.546-2.324,29.201,2.158,43.683c2.323,7.506,3.562,18.334,3.462,26.212
		c-0.099,7.755-5.031,9.642-11.577,9.752c-20.476,0.342-41.119,1.673-61.516-0.451c-19.861-2.069-37.774-9.502-58.431-9.988
		c-67.858-1.596-77.364,19.504-95.298,10.946c-5.298-2.528-22.426,7.374-34.447-7.722c-6.037-7.581,6.178-15.755,15.29-12.694
		c12.445,4.181,11.231-3.921,19.619-5.618c6.36-1.286,11.199-5.319,16.642-8.404c49.045-27.791,94.694-30.002,115.623-62.248
		c12.408-19.117,5.468-23.092,8.38-29.552c14.868-32.977,20.559-96.306,30.803-113.717c2.683-4.56,2.481-9.996,3.455-14.89
		c2.112-10.618,5.818-20.763,8.029-31.355c5.297-25.386,11.057-86.723,37.529-155.991c5.552-14.526,11.876-53.709,11.068-69.242
		c-1.647-31.677,9.707-57.819,39.241-69.837c84.397-34.344,118.949-56.184,171.169-78.868
		c104.595-45.437,133.38-37.418,194.748-64.405c1.895-0.833,3.945-1.04,4.393-3.552c3.554-19.895,20.12-33.677,15.359-55.321
		c-1.857-8.441-0.955-7.226,1.222-13.315c3.588-10.034-2.158-21.846-0.633-32.609c1.303-9.194,1.816-18.416-1.819-26.73
		c-1.918-4.387-0.573-8.992-3.007-12.888L856.302,736.616z"/>
	<polygon points="887.786,762.351 887.67,762.379 887.881,762.49 	"/>
</g>
</svg>
