<?xml version="1.0" encoding="utf-8"?>

<!DOCTYPE svg PUBLIC "-//W3C//DTD SVG 1.1//EN" "http://www.w3.org/Graphics/SVG/1.1/DTD/svg11.dtd">
<svg version="1.1" id="Layer_1" xmlns="http://www.w3.org/2000/svg" xmlns:xlink="http://www.w3.org/1999/xlink" x="0px" y="0px"
	 viewBox="0 0 542.143 1665.63" enable-background="new 0 0 542.143 1665.63" xml:space="preserve">
<g>
	<path d="M493.12,1535.103c-3.696-4.603-1.715-10.436-3.299-15.672c-2.612-8.63-4.752-17.531-6.651-26.404
		c-8-37.369-16.586-48.497-10.332-60.56c1.231-2.375,0.207-5.932,0.181-8.946c-0.026-2.993,1.115-7.292-0.405-8.702
		c-2.999-2.781,1.514-4.46-0.34-7.479c-0.614-1-24.186-72.788-31.03-116.556c-5.851-37.411-4.043-22.489-11.89-48.417
		c-26.352-87.063-21.456-26.058-57.994-132.697c-10.827-31.598,2.893-74.754,9.281-102.832c1.01-4.442,1.55-20.511,3.963-23.328
		c3.372-3.937,0.92-8.936,2.326-13.109c9.632-28.625,10.163-65.12,10.84-95.135c1.85-82.001-3.583-49.021-7.48-83.187
		c0,0-27.973-113.923-27.974-113.926c-26.36-96.789,5.015-87.944-4.705-214.498c-4.849-63.128-25.284-122.439-39.354-189.932
		c-1.15-5.513-1.381-11.788-4.298-16.224c-3.453-5.251-5.372-15.053-2.861-21.015c2.592-6.153,0.744-4.921,1.184-9.284
		c0.451-4.476,2.206-10.142,2.146-12.495c-0.288-11.261,4.199-9.243-0.811-22.354c-9.253-24.215,11.903-55.378,4.752-92.208
		c-0.564-2.905-1.148-6.598,0.125-8.913c3.334-6.063,1.368-12.278,1.704-18.376c0.683-12.43-12.086-7.076-11.854-13.741
		c0.382-10.99-12.091-12.306-15.288-16.067c-1.167-1.373-0.718-3.543-2.031-4.654c-3.608-3.053-11.421-1.604-15.791-3.754
		c-7.888-3.881-8.091-0.486-23.683,0.474c-1.279,0.079-3.153-0.438-3.518,1.033c-1.318,5.313-5.844,9.538-6.379,15.082
		c-0.237,2.454,1.241,6.788,0.683,9.894c-0.268,1.494,2.03,7.444,0.247,9.316c-3.517,3.69-4.354-4.864-4.509-6.709
		c-0.52-6.19-6.671-21.95-7.144-22.388c-0.931-0.862-2.772-0.808-3.964-1.434c-3.326-1.749-5.921-4.668-9.44-6.085
		c-1.584-0.637-9.534,1.65-9.711,3.053c-0.928,7.374-6.283,12.788-8.488,19.618c-1.403,4.345-5.665,7.753-9.248,8.333
		c-4.605,0.746-5.664,3.306-7.382,6.351c-8.48,15.032-11.712,2.668-13.257,14.302c-0.948,7.144,1.831,13.379,2.156,21.336
		c0.095,2.32,1.006,4.222,1.816,6.428c1.46,3.978-0.018,8.199,1.824,12.127c5.214,11.122,11.4,37.487,16.446,47.422
		c-1.357,3.805,4.015,6.786,1.852,10.117c-2.401,3.698-1.477,7.892-3.246,11.766c-2.554,5.593-2.26,12.499-4.87,18.052
		c-3.227,6.866-0.979,13.632-1.705,20.384c-2.346,21.825,9.035,1.871-18.261,95.956c-10.78,37.152-10.709,35.82-11.73,44.294
		c-19.379,160.944,4.943,129.041-14.05,230.988c-2.937,15.766-3.984,33.276-9.492,48.342c-5.044,13.756-12.952,26.104-18.184,39.719
		c-5.812,15.125-4.988,23.534-8.738,34.557c-1.461,4.293-2.333,8.627-2.067,13.238c0,116.386-16.454,173.375,12.909,238.841
		c4.674,10.423,7.334,21.114,7.04,32.166c-0.651,24.483,19.204,67.104,20.672,101.546c0,0-1.256,76.644-0.211,165.455
		c0.195,16.553-3.683,32.849-2.16,49.405c0.16,1.742-0.056,3.328-1.671,4.33c-7.8,4.838-7.716,14.322-12.403,20.99
		c-4.243,17.887-13.973,33.851-18.139,51.765c-7.047,11.512-5.61,12.569-34.823,91.072c-22.981,61.753-26.695,64.906-25.412,86.931
		c3.966,68.053,35.757,46.599,59.62,47.88c13.589,0.729,30.356,2.582,43.771,0.516c12.713-1.958,24.987-9.042,38.146-11.353
		c36.512-6.412,208.709-20.366,265.41-20.366C513.044,1595.171,490.183,1558.446,493.12,1535.103z M245.952,142.908
		c-0.068,1.312-0.012,2.63-0.012,3.945h-0.041c0,8.154,0.358,8.467-1.582,8.788c-0.564,0.093-1.677-0.13-1.722-0.37
		c-0.459-2.451-2.939-4.053-2.714-6.8c0.16-1.96,0.235-3.97-0.017-5.91C238.823,134.518,246.463,133.057,245.952,142.908z
		 M211.299,57.34c4.178-0.507,2.41,3.113,2.362,4.864c-0.075,2.712,3.097,4.243,2.131,7.055c-0.197,0.574-0.329,1.512-0.689,1.618
		c-5.768,1.713-5.839-6.844-5.324-8.666C210.253,60.539,208.437,57.688,211.299,57.34z M248.199,1491.92
		c-3.743-0.144-3.626,1.418-4.525,4.432c-2.914,9.77,6.941,19,3.058,32.387c-3.197,11.023-0.581,21.813-7.951,21.517
		c-2.008-0.081-2.832,1.353-4.196,2.094c-14.605,7.944-17.922,1.207-26.735,5.85c-4.587,2.417-10.372,1.122-15.05,2.522
		c-8.24,2.465-26.829,1.383-39.457,1.72c-10.453,0.28-2.629,2.377-12.229,1.928c-6.079-0.284-9.334-5.715-5.553-10.317
		c5.281-6.428,8.115-14.213,13.262-20.834c5.739-7.383,8.445-17.125,12.471-25.84c-1.704-10.527,5.188-18.009,4.246-31.391
		c-0.68-9.661,3.535-16.28,12.346-20.098c7.335-3.178,12.505-9.566,19.666-13.134c3.422-1.705,3.654-6.42,5.644-9.621
		c3.164-5.09,7.224-9.282,11.543-13.241c7.029-6.445-0.636-16.228,5.634-19.8c4.013-2.286,8.764-4.193,12.766-1.902
		c5.955,3.409,13.223,6.483,12.802,15.471c9.906,17.028-1.775,27.593,8.361,54.827c2.224,5.975,1.204,11.616,1.565,17.381
		C256.034,1488.559,251.735,1492.056,248.199,1491.92z M259.543,432.532c-0.676,47.886,10.068,90.304,0.585,111.909
		c-0.123,0.282-0.164,0.65-0.108,0.952c1.411,7.617-2.055,14.774-2.047,22.277c0.21,182.504-1.52,109.507,4.104,170.129
		c1.303,14.044-6.809,32.859-8.284,44.877c-1.344,10.948-8.473,22.216-12.463,16.448c-2.879-4.163-4.965-9.094-5.159-13.826
		c-0.281-6.857-3.265-13.216-2.452-20.273c2.72-23.611-9.084-147.905-1.847-166.267c3.767-9.557,2.907-19.775,1.553-29.242
		c-6.268-43.842,13.561-84.994,10.65-128.871c-0.664-10.004-0.706-20.126,0.039-30.118c0.549-7.365-2.768-14.021-2.294-21.29
		c3.33-51.059-22.84-113.642,12.874-144.734c1.884-1.641,7.141,0.359,7.184,2.912c0.156,9.178,3.902,18.315,4.557,27.64
		C273.342,373.307,260.601,357.55,259.543,432.532z M278.104,65.31c-2.226-0.004-2.307-0.459-1.981-12.543
		c0.059-2.197,3.793-2.219,3.942-0.019c0.134,1.98,0.039,3.976,0.039,5.965C280.104,63.384,280.621,65.314,278.104,65.31z
		 M300.529,76.587c-0.828-1.002,0.895-4.596,2.183-4.797c0.47-0.535,0.832-0.304,1.433,0.387c1.299,1.491,3.184,2.669,3.935,4.37
		C309.506,79.779,307.733,85.313,300.529,76.587z M415.45,1542.763c-4.641-5.772-7.445-6.603-6.791-12.41
		c0.297-2.642-0.192-5.374,0.122-8.013c0.382-3.208-1.182-6.192-2.958-7.729c-6.83-5.915-9.595-15.785-18.865-19.256
		c-0.855-0.32-1.806-1.244-2.09-2.096c-2.986-8.948-28.951-34.735-29.916-35.737c-8.319-8.643-11.473-5.103-12.621-15.726
		c-0.406-3.76,1.81-8.032-1.941-11.215c2.039-8.387,1.396-22.792,19.673-23.076c4.554-0.071,6.932,2.874,8.641,5.639
		c3.882,6.281,9.331,10.973,14.412,16.037c3.244,3.234,4.512,7.962,8.455,10.578c1.331,0.883,1.067,2.272,1.067,3.569
		c-0.002,35.552,1.792,25.002,3.941,44.498c0.661,6.004,7.315,6.435,6.083,15.551c-0.277,2.048,1.181,2.973,2.35,4.047
		c7.244,6.659,7.566,6.644,7.567,14.697c0,3.129,2.807,5.016,2.263,8.214C413.512,1538.163,420.116,1537.888,415.45,1542.763z"/>
</g>
</svg>
