<?xml version="1.0" encoding="utf-8"?>

<!DOCTYPE svg PUBLIC "-//W3C//DTD SVG 1.1//EN" "http://www.w3.org/Graphics/SVG/1.1/DTD/svg11.dtd">
<svg version="1.1" id="Layer_1" xmlns="http://www.w3.org/2000/svg" xmlns:xlink="http://www.w3.org/1999/xlink" x="0px" y="0px"
	 viewBox="0 0 689.613 1705.914" enable-background="new 0 0 689.613 1705.914" xml:space="preserve">
<path d="M635.311,121.258c1.335-2.074,1.584-4.686,1.296-7.086c-1.306-2.045-4.11-2.727-6.299-1.776
	c-4.791,1.988-10.12-0.019-14.979,1.68c-6.856,2.17-14.211,2.16-20.961,4.676c0.067-0.624,0.202-1.863,0.269-2.477
	c4.148-2.228,8.392-4.388,12.07-7.365c2.439-1.968,1.911-6.117,5.07-7.413c4.964-2.621,8.69-7.144,14.019-9.151
	c1.594-3.87,0.691-10.908-4.57-11.1c-3.505-0.807-5.425,2.833-8.21,4.167c-8.152,3.601-16.89,6.232-24.11,11.628
	c-1.152,1.056-2.717,0.749-4.119,0.72c1.645-5.743,7.766-8.379,23.534-14.191c2.228-2.324,4.916-4.811,5.588-8.056
	c0.192-4.369-5.166-5.992-8.507-4.292c-5.54,2.631-11.263,5.051-16.198,8.747c-5.665,4.647-13.27,6.011-18.848,10.792
	c-1.594,1.527-3.87,2.064-5.979,1.376c0.651-1,0.629-1.464,2.102-7.276c0.635-2.505-2.354-4.712-4.578-3.749
	c-1.756-0.067-5.484,0.834-6.93,3.334c-0.516-0.272-0.956-0.691-1.273-1.338c-0.067-8.085,6.126-14.47,7.701-22.161
	c0.52-8.153-6.349-10.187-9.285-5.588c-5.761,5.646-6.577,14.124-11.081,20.567c-3.197,4.859-4.052,10.812-7.173,15.699
	c-3.745,6.788-22.62,24.167-26.972,28.834c-5.281,5.838-8.747,12.982-13.471,19.223c-8.175,11.034-139.641,104.408-173.967,150.567
	c-1.978,2.929-1.421,6.577-1.786,9.9c-0.748,8.769-15.575,32.846-22.949,58.619c-14.709,43.085,1.187-0.381-19.751,57.89
	c-4.302,9.794-8.315,19.722-11.378,29.987c-1.085,5.031-6.26,7.422-8.123,12.06c-2.237,5.118-6.568,8.767-10.84,12.156
	c-4.196,3.226-6.424,8.219-10.245,11.801c-4.426,4.609-10.553,6.856-15.987,9.986c-37.658,22.391-78.453,14.841-137.124,119.937
	c-7.163,19.32-17.776,28.979-21.038,64.976c-0.326,9.9,0.317,19.828-0.663,29.708c-0.416,16.707-5.021,63.916-4.196,80.665
	c0.038,4.513,1.018,9.304-0.845,13.616c-0.547-1.047-1.085-2.074-1.623-3.111c-0.038,4.014,0.701,7.95,1.632,11.839
	c3.906,29.738,9.761,24.448,8.363,44.716c0.999,2.593,3.121,4.59,4.119,7.211c1.498,3.495,1.037,7.441,2.304,11.013
	c4.14,11.986,5.486,44.671,7.509,52.974c1.901,7.97-0.624,16.016-0.451,24.043c-0.085,32.586,12.498,37.523,16.112,46.944
	c2.295,5.031,0.058,10.792,2.007,15.901c1.075,2.9,2.016,5.876,2.352,8.978c1.805,14.758,5.963,29.074,9.131,43.573
	c-0.058,7.038,3.466,13.241,5.579,19.77c2.228,6.424,3.399,13.164,5.675,19.578c7.878,27.077,31.495,63.134,39.185,115.856
	c0.922,3.956-0.154,8.21,1.45,12.041c2.106,6.169,7.448,11.434,10.053,25.416c2.47,13.293,13.992,32.848,15.987,39.781
	c5.336,13.749,2.939,27.766,5.415,46.319c1.88,34.347,15.581,85.983,17.888,97.046c11.466,48.554,4.55,27.428,10.552,65.235
	c1.248,4.532,0.23,9.275,1.123,13.865c1.546,7.806,2.986,15.651,3.687,23.573c2.756,5.694,0.787,12.137,2.285,18.148
	c0.173,3.774,1.815,7.547,1.123,11.34c-5.501,8.483-46.469,23.44-47.472,23.659c-10.693,2.317-8.258,8.653-31.456,9.42
	c-4.724-1.143-9.554-1.575-14.403-1.316c-3.341-0.71-5.367-3.956-7.259-6.568c-1.803-2.465-10.7-3.708-7.297,10.975
	c1.661,4.801,6.366,7.221,10.053,10.255c2.871,1.133,5.79,2.151,8.766,3.005c0.125,1.152,0.23,2.343,0.307,3.543
	c-4.436,1.296-8.968,2.352-13.107,4.465c-4.398,2.285-9.986,0.336-13.98,3.524c-9.785,9.719,16.419,17.469,32.212,16.932
	c1.268-0.043,38.573,1.698,43.988,1.398c101.765-5.636,115.939,2.036,123.14-15.881c3.672-9.136-2.985-15.048-1.954-23.276
	c1.075-8.584-3.582-16.342-5.579-24.418c-2.717-8.219-4.244-16.746-6.587-25.051c-1.047-3.255,1.383-6.241,1.047-9.488
	c-2.193-44.286-14.093-106.478-13.529-126.408c0.182-4.58-2.064-8.834-1.94-13.404c0.564-81.059,5.103-68.33-10.764-123.893
	c-13.696-67.131-22.64-77.641-26.54-96.921c-5.424-18.872-5.436-58.06-8.267-76.796c-0.059-0.649-5.969-43.02-9.333-63.401
	c-5.281-37.351-7.069-23.094-7.672-49.44c2.794-1.315,6.779-1.949,7.672-5.415c0.826-4.302-2.804-7.614-3.697-11.561
	c-0.038-3.025,1.421-5.992,0.461-8.997c-2.185-5.379,6.072-5.644,9.304-12.386c1.911-3.351-0.634-7.624,1.604-10.879
	c5.363-10.178,8.923-4.7,5.857-20.5c-0.275-3.026,0.586-33.299-1.508-38.705c-1.258-3.591-2.151-7.307-2.362-11.1
	c-0.461-5.271-4.138-9.448-5.319-14.508c-0.245-1.04-10.448-25.645-12.972-30.179c-1.594-2.909-4.494-5.079-5.675-8.142
	c0.807-2.919,4.878-4.791,3.927-8.267c-1.815-2.957-5.56-4.167-6.99-7.393c-0.845-3.13,0.221-6.337,0.518-9.458
	c0.202-3.908-0.864-7.71-1.498-11.522c-2.237-1.191-5.079-2.65-5.175-5.54c1.047-1.872,2.881-3.063,4.494-4.378
	c0.192-3.697-0.134-7.393,0.077-11.071c1.575-2.881,4.503-4.782,6.088-7.701c10.749-18.982,3.345-24.3,7.432-32.07
	c18.108-31.479,16.207-31.308,24.773-39.435c16.011-13.608,28.87-35.633,37.015-52.887c3.774-11.215,12.012-20.02,18.752-29.497
	c4.609-7.345,7.883-15.392,11.657-23.169c8.22-19.199,7.299-36.525,14.72-37.265c3.495,0.557,6.404,2.813,9.784,3.764
	c3.783,0.912,6.558,3.841,10.092,5.291c7.751,2.904,13.804,13.107,21.115,7.182c2.16-1.776,5.07-0.211,7.557-0.903
	c7-1.988,14.912-2.967,21.681,0.327c4.359,1.037,8.911,0.038,13.299-0.403c2.506,0,4.714,1.69,7.221,1.69
	c4.712-2.445,15.231-16.213,23.275-20.769c3.543-1.786,4.695-6.088,8.114-7.989c4.964-2.583,8.315-7.24,12.646-10.668
	c4.531-4.933,7.236-1.826,12.386-20.98c0.787-3.562,4.878-5.118,5.694-8.671c1.229-3.908-2.564-7.125-1.834-11.061
	c-0.365-3.284,2.833-5.214,3.764-8.056c0.595-4.58,0.663-9.228,1.46-13.769c1.182-5.462,4.605-2.51-3.63-16.486
	c-2.516-3.716-5.579-7.009-8.046-10.764c0.739-2.487,1.872-4.916,1.988-7.528c-4.015-11.752-8.391-15.467-19.079-22.055
	c-4.014-2.412-5.304-6.397-15.968-4.071c-3.918,1.555-6.011,5.934-10.044,7.211c-18.354-1.236-17.474-7.324-25.311-10.236
	c-6.664-1.642-13.308-4.11-20.298-2.957c2.621-1.306,5.694-0.547,8.517-0.979c-2.871-0.154-5.752,0.221-8.603-0.163
	c-5.617-4.647-9.871-10.668-13.078-17.159c-3.169-4.715-8.93-1.306-13.433-1.988c-0.327-4.292,2.055-8.046,3.005-12.089
	c7.467-27.123,2.275-7.694,54.567-71.409c11.119-10.898,19.117-24.37,28.978-36.314c18.944-21.236,20.055-19.8,30.841-31.561
	c7.653-8.728,16.39-16.707,26.578-22.363c2.881-2.16,4.695-5.876,8.421-6.769c17.94-4.198,26.323,3.6,34.317,3.678
	c11.261,0.481,16.623-5.762,36.084-1.479c3.764,0.807,6.683,3.87,10.447,4.503c7.429-5.148-1.133-16.083-10.802-18.8
	c-3.005-1.095-6.635-0.605-9.189-2.746c-0.497-8.912,26.492,9.719,29.411,0.413c1.43-11.396-5.697-11.083-11.023-15.411
	c-1.911-1.613-4.513-0.576-6.721-0.451c-2.554,0.518-5.022-0.499-7.48-1.018c0.029-1.287,0.029-2.583,0-3.87
	c2.544,0.173,5.041,0.807,7.605,0.989c35.099-13.239,23.466-4.624,45.609-11.196c0.001-0.009,0-0.018,0.001-0.027
	c2.877-0.659,2.782-4.983,0.16-6.253c0.001-0.045,0.001-0.089,0.002-0.133c-4.033-1.056-8.306-1.344-12.386-0.422
	c-6.222,1.421-12.684-0.442-18.896,1.133c-7.374,2.036-15.469,1.719-22.344-1.815c6.433-5.06,14.729-6.548,21.681-10.677
	C606.152,129.724,624.626,128.494,635.311,121.258z"/>
</svg>
